<svg xmlns="http://www.w3.org/2000/svg" width="50" height="58" viewBox="0 0 50 58">
    <defs>
        <linearGradient id="mvckiosbza" x1="320.793%" x2="-263.144%" y1="384.948%" y2="-307.726%">
            <stop offset="0%" stop-color="#6462AA"/>
            <stop offset="33.452%" stop-color="#20B69E"/>
            <stop offset="51.202%" stop-color="#6462AA"/>
            <stop offset="100%" stop-color="#4CA7DA"/>
        </linearGradient>
    </defs>
    <g fill="none" fill-rule="evenodd">
        <g fill="url(#mvckiosbza)" fill-rule="nonzero" transform="translate(-38.000000, -474.000000)">
            <g>
                <g>
                    <path d="M48.296 47.626l-5.724-5.702V.964c0-.533-.433-.964-.967-.964h-29.02c-.019 0-.037.01-.055.01-.089.005-.177.023-.26.053-.029.008-.057.018-.084.03-.108.046-.206.111-.29.192L.288 11.847c-.082.082-.147.177-.194.282-.014.03-.021.06-.032.09-.028.08-.045.164-.05.248 0 .021-.012.04-.012.06v36.61c0 .532.433.963.967.963h33.395l5.725 5.7c1.084 1.091 2.562 1.704 4.104 1.7 2.35.002 4.469-1.408 5.368-3.57.898-2.162.4-4.651-1.264-6.304zm-8.2 5.461L25.038 38.096l5.48-5.46L45.57 47.635l-5.476 5.453zM24.22 36.185l-1.311-5.668 5.692 1.305-4.38 4.363zM11.617 3.29v8.273H3.312l8.305-8.273zM1.944 48.173V13.49h10.64c.535 0 .968-.432.968-.964V1.927h27.085v38.069l-9.433-9.403-.011-.007c-.08-.075-.172-.137-.273-.182l-.08-.03c-.034-.015-.068-.028-.104-.04l-8.9-2.042c-.324-.075-.666.023-.902.257-.236.236-.333.576-.258.9l2.05 8.863c.012.036.025.07.04.104.01.026.018.052.03.079.045.101.108.194.185.274l.005.008 9.44 9.396H1.944zm44.981 6.268c-.724.723-1.707 1.13-2.732 1.13-1.025 0-2.007-.407-2.73-1.13l.455-.455 5.015-4.994c.726.721 1.134 1.702 1.132 2.723-.001 1.022-.412 2.001-1.14 2.721v.005z" transform="translate(20.000000, 456.000000) translate(18.000000, 18.000000)"/>
                </g>
            </g>
        </g>
    </g>
</svg>
