<svg xmlns="http://www.w3.org/2000/svg" width="50" height="50" viewBox="0 0 50 50">
    <defs>
        <linearGradient id="cfg8xg9q9a" x1="408.124%" x2="-364.133%" y1="384.948%" y2="-307.726%">
            <stop offset="0%" stop-color="#6462AA"/>
            <stop offset="33.452%" stop-color="#20B69E"/>
            <stop offset="51.202%" stop-color="#6462AA"/>
            <stop offset="100%" stop-color="#4CA7DA"/>
        </linearGradient>
    </defs>
    <g fill="none" fill-rule="evenodd">
        <g fill="url(#cfg8xg9q9a)" fill-rule="nonzero" transform="translate(-237.000000, -528.000000)">
            <g>
                <g>
                    <path d="M47.656 34.7V6.886c0-1.643-1.336-2.979-2.978-2.979h-7.08V2.93c0-1.616-1.315-2.93-2.93-2.93-1.615 0-2.93 1.314-2.93 2.93v.976h-15.82V2.93c0-1.616-1.314-2.93-2.93-2.93-1.615 0-2.93 1.314-2.93 2.93v.976h-7.08C1.337 3.906 0 5.242 0 6.885v36.23c0 1.643 1.336 2.979 2.979 2.979h13.31c.54 0 .977-.437.977-.977s-.438-.976-.977-.976H2.98c-.566 0-1.026-.46-1.026-1.026V6.885c0-.566.46-1.026 1.026-1.026h7.08v.977c0 1.615 1.314 2.93 2.93 2.93 1.615 0 2.929-1.315 2.929-2.93v-.977h15.82v.977c0 1.615 1.315 2.93 2.93 2.93 1.615 0 2.93-1.315 2.93-2.93v-.977h7.08c.565 0 1.025.46 1.025 1.026v4.834H8.79c-.54 0-.976.437-.976.976 0 .54.437.977.976.977h36.914V33.05c-.831-.524-1.752-.918-2.734-1.155V17.383c0-.54-.438-.977-.977-.977H5.664c-.54 0-.976.437-.976.977V40.43c0 .539.437.976.976.976H31.66c.06.959.269 1.878.602 2.735h-8.16c-.54 0-.977.437-.977.976 0 .54.437.977.977.977h9.209C34.974 48.454 37.72 50 40.82 50 45.881 50 50 45.882 50 40.82c0-2.349-.887-4.494-2.344-6.12zM13.965 6.837c0 .538-.438.976-.977.976-.538 0-.976-.438-.976-.976V2.93c0-.539.438-.977.976-.977.539 0 .977.438.977.977v3.906zm21.68 0c0 .538-.439.976-.977.976-.539 0-.977-.438-.977-.976V2.93c0-.539.438-.977.977-.977.538 0 .977.438.977.977v3.906zM40.82 31.64c-.454 0-.9.033-1.337.097h-3.78v-5.664h5.313v5.57c-.065-.002-.13-.003-.196-.003zm-9.078 7.812h-3.305v-5.762h5.313v1.281c-1.041 1.257-1.755 2.795-2.008 4.481zM6.641 26.074h5.312v5.664H6.641v-5.664zm7.265 0h5.313v5.664h-5.313v-5.664zm14.531 0h5.313v5.664h-5.313v-5.664zm-1.953 5.664h-5.312v-5.664h5.312v5.664zm1.953-7.617V18.36h5.313v5.762h-5.313zm-1.953 0h-5.312V18.36h5.312v5.762zm-7.265 0h-5.313V18.36h5.313v5.762zm0 9.57v5.762h-5.313v-5.762h5.313zm1.953 0h5.312v5.762h-5.312v-5.762zm19.844-9.57h-5.313V18.36h5.313v5.762zM11.953 18.36v5.762H6.641V18.36h5.312zM6.641 33.691h5.312v5.762H6.641v-5.762zm34.18 14.356c-3.985 0-7.227-3.242-7.227-7.227 0-3.984 3.242-7.226 7.226-7.226 3.985 0 7.227 3.242 7.227 7.226 0 3.985-3.242 7.227-7.227 7.227z" transform="translate(217.000000, 508.000000) translate(20.000000, 20.000000)"/>
                </g>
            </g>
        </g>
    </g>
</svg>
