<svg xmlns="http://www.w3.org/2000/svg" width="55" height="55" viewBox="0 0 55 55">
    <defs>
        <linearGradient id="uyxg8mxjya" x1="408.124%" x2="-364.133%" y1="384.948%" y2="-307.726%">
            <stop offset="0%" stop-color="#6462AA"/>
            <stop offset="33.452%" stop-color="#20B69E"/>
            <stop offset="51.202%" stop-color="#6462AA"/>
            <stop offset="100%" stop-color="#4CA7DA"/>
        </linearGradient>
    </defs>
    <g fill="none" fill-rule="evenodd">
        <g fill="url(#uyxg8mxjya)" fill-rule="nonzero" transform="translate(-40.000000, -473.000000)">
            <g>
                <path d="M53.438 33.76c-.55-.827-1.224-1.547-1.986-2.147V14.345c0-5.953-4.844-10.797-10.797-10.797-1.733 0-3.369.63-4.646 1.783-2.71.121-5.069 1.605-6.419 3.777-.448-1.21-1.146-2.323-2.086-3.262l-.909-.908C26.42 2.186 24.131 0 21.335 0h-4.63c-3.399 0-6.602 1.757-8.434 4.607l-.179.072c-2.76 1.104-4.544 3.738-4.544 6.711 0 .777.125 1.547.371 2.286l1.425 4.273c.109 1.858 1.641 3.341 3.527 3.341h.052c.266 2.392 1.59 4.469 3.496 5.747v3.3l-4.76 1.058c-1.82.405-3.477 1.314-4.795 2.631C1.017 35.873 0 38.33 0 40.941V55h55V38.918c0-1.842-.54-3.626-1.562-5.159zm-.212 5.158v4.55h-3.549v-3.549h-1.774v13.307h-6.57c-1.772-3.128-4.97-5.109-8.56-5.302 1.135-.843 2.059-1.947 2.687-3.226l.132.132c.838.838 1.95 1.299 3.136 1.299h4.196l-1.152-3.457c-.542-1.625-1.811-2.85-3.374-3.368l.079-.238c.369-1.104.555-2.254.555-3.418 0-1.041-.156-2.047-.433-3 .427.112.868.175 1.32.175 1.382 0 2.68-.538 3.656-1.515l.213-.213 2.846.356c2.172.272 4.114 1.472 5.328 3.293.826 1.24 1.264 2.684 1.264 4.174zM16 34.997c-.013.216-.033.431-.033.651 0 .04.004.08.004.12l-2.939 1.176-1.166-4.667 1.156-.257 2.978 2.977zm2.277 5.81h.351c0 .705.091 1.388.248 2.046l-.723.723c-.495.495-1.181.779-1.882.779h-1.735l.374-1.122c.484-1.452 1.836-2.427 3.367-2.427zm.351-2.865v1.09h-.247l-.176-.527c-.308-.923-.464-1.884-.464-2.857 0-4.982 4.053-9.035 9.035-9.035h1.446c4.982 0 9.035 4.053 9.035 9.035 0 .973-.156 1.934-.463 2.856l-.177.528h-.247v-.283c0-2.288-1.787-4.23-4.067-4.42l-4.913-.41c-.933-.078-1.665-.873-1.665-1.81 0-.783.5-1.475 1.242-1.722l.813-.272-.561-1.683-.813.272c-1.469.49-2.455 1.857-2.455 3.405 0 .099.004.197.012.294l-1.474.421c-2.273.65-3.861 2.755-3.861 5.118zm6.21-21.974c.978 0 1.774.795 1.774 1.774 0 .978-.796 1.774-1.774 1.774v-3.548zm-.053 5.322h.053c1.866 0 3.384-1.453 3.521-3.285l.027-.054v6.896c-.055-.001-.109-.008-.164-.008h-1.446c-1.35 0-2.638.26-3.831.714.998-1.178 1.661-2.648 1.84-4.263zm15.133 4.436c-3.424 0-6.21-2.786-6.21-6.21v-2.893c0-1.92 1.01-3.647 2.64-4.596.411.698.959 1.317 1.619 1.812 1.068.8 2.39 1.242 3.726 1.242h2.66c.98 0 1.775.795 1.775 1.774v2.661c0 3.424-2.785 6.21-6.21 6.21zm0 1.774c.712 0 1.4-.103 2.056-.279l.53 2.648-.184.184c-1.283 1.283-3.52 1.283-4.803 0l-.162-.162-.02-.033.528-2.637c.656.176 1.344.279 2.055.279zm-3.548 13.306h.351c1.53 0 2.883.975 3.367 2.427l.374 1.122h-1.735c-.7 0-1.387-.284-1.882-.779l-.723-.723c.157-.658.248-1.341.248-2.047zm-15.968-2.864c0-1.575 1.059-2.979 2.574-3.412l1.572-.449c.591.891 1.568 1.513 2.694 1.607l4.912.409c1.37.113 2.442 1.279 2.442 2.652v2.057c0 3.913-3.184 7.097-7.097 7.097-3.913 0-7.097-3.184-7.097-7.097v-2.864zm11.792 11.735c2.819 0 5.386 1.336 7.016 3.549H15.789c1.63-2.213 4.197-3.549 7.016-3.549h9.39zm4.176-42.58h.367l.26-.26c.977-.977 2.275-1.514 3.657-1.514 4.975 0 9.022 4.047 9.022 9.022v16.168c-.881-.416-1.832-.699-2.823-.823l-2.642-.33-.559-2.793c2.526-1.342 4.25-3.997 4.25-7.05v-2.662c0-1.957-1.591-3.549-3.548-3.549h-2.661c-.954 0-1.9-.314-2.662-.887-1.11-.833-1.774-2.159-1.774-3.548h-1.774c0 .51.064 1.015.186 1.5-2.292 1.229-3.735 3.603-3.735 6.252v2.893c0 3.054 1.725 5.71 4.25 7.052l-.294 1.471c-1.526-1.538-3.512-2.613-5.73-3.017V13.306c0-3.424 2.786-6.21 6.21-6.21zM25.067 9.01c.543-.542.946-1.184 1.208-1.881 1.36 1.376 2.112 3.196 2.112 5.132 0 1.128-.266 2.256-.77 3.264l-.012.022c-.65-.818-1.642-1.353-2.766-1.353h-.716l-2.552-1.022c-.71-.282-1.168-.96-1.168-1.723 0-.932.759-1.69 1.691-1.69.728 0 1.373.463 1.604 1.155l.3.899 1.683-.562-.3-.899c-.133-.397-.338-.753-.59-1.067l.276-.275zM8.75 6.326l.727-.291.153-.256c1.483-2.47 4.193-4.005 7.074-4.005h4.63c1.932 0 3.504 1.572 3.504 3.504 0 .936-.365 1.816-1.027 2.478l-.47.47c-.391-.152-.81-.242-1.248-.242-1.704 0-3.116 1.24-3.404 2.862l-2.215.632c-2.185.625-4.444.941-6.717.941-.489 0-.887-.398-.887-.887s.398-.887.887-.887h.887V8.871h-.887c-1.467 0-2.661 1.194-2.661 2.661 0 1.155.744 2.131 1.774 2.498v.164c-1 0-1.901.42-2.547 1.087l-.722-2.165c-.185-.558-.28-1.14-.28-1.726 0-2.243 1.346-4.231 3.43-5.064zM7.097 17.742c0-.979.795-1.774 1.774-1.774v3.548c-.979 0-1.774-.796-1.774-1.774zm3.548 2.661v-6.24c2.138-.073 4.26-.39 6.317-.979l1.876-.536c.34.972 1.076 1.773 2.074 2.172l2.153.861v4.722c0 3.424-2.786 6.21-6.21 6.21s-6.21-2.786-6.21-6.21zm6.21 7.984c.775 0 1.523-.116 2.233-.324-1.292 1.31-2.244 2.949-2.736 4.776l-2.158-2.158v-2.76c.833.297 1.727.466 2.66.466zM4.119 35.281c1.079-1.079 2.435-1.823 3.923-2.154l2.091-.465 1.672 6.684 4.348-1.74c.09.493.21.982.37 1.46l.078.238c-1.563.518-2.831 1.743-3.373 3.368l-1.152 3.457h4.196c1.184 0 2.298-.461 3.136-1.299l.132-.132c.628 1.28 1.553 2.383 2.686 3.226-3.589.193-6.787 2.174-8.56 5.302h-6.57v-12.42H5.324v3.549H1.774V40.94c0-2.138.832-4.148 2.345-5.66zM1.774 46.129h3.549v7.097H1.774v-7.097zm47.903 7.097v-7.984h3.549v7.984h-3.549z" transform="translate(40.000000, 473.000000)"/>
            </g>
        </g>
    </g>
</svg>
