<svg xmlns="http://www.w3.org/2000/svg" width="50" height="50" viewBox="0 0 50 50">
    <defs>
        <linearGradient id="jrnnowzrza" x1="408.124%" x2="-364.133%" y1="384.948%" y2="-307.726%">
            <stop offset="0%" stop-color="#6462AA"/>
            <stop offset="33.452%" stop-color="#20B69E"/>
            <stop offset="51.202%" stop-color="#6462AA"/>
            <stop offset="100%" stop-color="#4CA7DA"/>
        </linearGradient>
    </defs>
    <g fill="none" fill-rule="evenodd">
        <g fill="url(#jrnnowzrza)" fill-rule="nonzero" transform="translate(-40.000000, -376.000000)">
            <g>
                <g>
                    <path d="M43.941 30.897c1.075-.914 2.597-1.132 3.88-.56 1.105.493 1.897 1.497 2.117 2.687.22 1.19-.159 2.41-1.014 3.266l-9.174 9.178c-2.29 2.293-5.338 3.555-8.579 3.555H25c-.54 0-.977-.437-.977-.976 0-.54.438-.977.977-.977h6.171c2.72 0 5.276-1.06 7.198-2.982l9.174-9.179c.406-.406.579-.964.475-1.53-.105-.565-.467-1.024-.992-1.258-.601-.268-1.314-.166-1.815.26l-10.51 9.04c-.671.577-1.524.903-2.408.922-.053.002-.106.003-.16.003l-10.03-.003c-.54 0-.977-.437-.977-.976 0-.54.438-.977.977-.977h10.13c1.078-.052 1.94-.945 1.94-2.036 0-1.124-.915-2.039-2.04-2.039h-7.707c-.18 0-.357-.05-.51-.143l-1.584-.969c-1.885-1.153-4.05-1.763-6.26-1.763h-.405c-2.558 0-4.974 1.075-6.683 2.96v10.67h7.227c.54 0 .977.437.977.977s-.438.976-.977.976H8.72c-.338.583-.968.977-1.689.977H1.953C.876 50 0 49.124 0 48.047V33.594c0-1.077.876-1.953 1.953-1.953h5.078c1.077 0 1.953.876 1.953 1.953v.16c1.899-1.46 4.238-2.268 6.683-2.268h.404c2.57 0 5.088.71 7.28 2.05l1.35.826h7.432c1.968 0 3.608 1.432 3.933 3.308zM20.605 47.07c.257 0 .51.105.69.286.183.182.287.434.287.69 0 .258-.104.51-.286.691-.182.182-.434.286-.69.286-.257 0-.51-.104-.691-.286-.182-.181-.286-.433-.286-.69 0-.257.104-.51.286-.69.182-.182.434-.287.69-.287zM7.031 33.594H1.952l.001 14.453h5.078V33.594zM23.344.128c.3-.17.668-.17.969 0l17.19 9.819c.305.174.493.497.493.848v4.81c1.356.417 2.344 1.682 2.344 3.173v8.102c0 .539-.437.976-.977.976h-4.687c-.54 0-.977-.437-.977-.976v-8.102c0-1.491.988-2.756 2.344-3.174v-3.127l-5.863 3.349v6.654c0 .568-.284 1.09-.76 1.4l-7.404 4.822c-.664.433-1.426.649-2.188.649-.762 0-1.523-.216-2.188-.649l-7.404-4.821c-.476-.31-.76-.833-.76-1.401v-6.654l-7.323-4.183c-.305-.174-.493-.498-.493-.848s.188-.675.493-.848zm8.883 16.813l-7.914 4.52c-.15.085-.318.128-.485.128-.167 0-.334-.043-.484-.128l-7.914-4.52v5.386l7.276 4.738c.682.444 1.563.444 2.244 0l7.277-4.738v-5.386zm8.792.47c-.754 0-1.367.613-1.367 1.367v7.125h2.735v-7.125c0-.754-.614-1.367-1.368-1.367zM23.83 2.1L8.605 10.795l15.222 8.693 13.512-7.717H26.62c-.377 1.183-1.486 2.042-2.792 2.042-1.616 0-2.93-1.314-2.93-2.93 0-1.615 1.314-2.93 2.93-2.93 1.24 0 2.3.775 2.728 1.865H37.34L23.828 2.101zm-.001 7.806c-.539 0-.977.438-.977.977 0 .538.438.976.977.976.538 0 .976-.438.976-.976 0-.539-.438-.977-.976-.977z" transform="translate(20.000000, 356.000000) translate(20.000000, 20.000000)"/>
                </g>
            </g>
        </g>
    </g>
</svg>
