<?xml version="1.0" encoding="UTF-8"?>
<svg width="375px" height="186px" viewBox="0 0 375 186" version="1.1" xmlns="http://www.w3.org/2000/svg" xmlns:xlink="http://www.w3.org/1999/xlink">
    <title>blog copy 2</title>
    <defs>
        <rect id="path-1" x="0" y="0" width="375" height="186" rx="14"></rect>
        <linearGradient x1="408.124081%" y1="384.94761%" x2="-364.133121%" y2="-307.725694%" id="linearGradient-3">
            <stop stop-color="#6462AA" offset="0%"></stop>
            <stop stop-color="#20B69E" offset="33.4517045%"></stop>
            <stop stop-color="#6462AA" offset="51.2019231%"></stop>
            <stop stop-color="#4CA7DA" offset="100%"></stop>
        </linearGradient>
    </defs>
    <g id="Page-1" stroke="none" stroke-width="1" fill="none" fill-rule="evenodd">
        <g id="Group-26">
            <mask id="mask-2" fill="white">
                <use xlink:href="#path-1"></use>
            </mask>
            <use id="Mask" fill="#EAEBF6" xlink:href="#path-1"></use>
            <g id="Activities" mask="url(#mask-2)">
                <g transform="translate(139.000000, 44.000000)" id="tasks">
                    <g transform="translate(0.000000, 0.000000)">
                        <path d="M71.9260919,5.69492341 C87.9666143,14.1871839 97.9999843,30.8500771 97.9999843,48.9999213 C97.9999843,68.8181159 86.0612165,86.6847073 67.75157,94.2687483 C49.4419234,101.852789 28.3666568,97.6607811 14.3528788,83.6473997 C-2.35013365,66.9423328 -4.75929486,40.6990907 8.62308365,21.2321487 C8.93834999,20.7544825 9.48719994,20.4845531 10.0579912,20.5264483 C10.6287826,20.5683435 11.1323381,20.9155177 11.3744816,21.4340969 C11.6166251,21.9526762 11.5595255,22.5616407 11.225201,23.0261673 C-2.19794165,42.550197 1.4689289,69.0864399 19.6837517,84.2386252 C37.8985746,99.3908105 64.658945,98.1657768 81.4132154,81.4127796 C98.0857932,64.735172 99.3852121,38.1292015 84.4171539,19.9062851 C69.4490957,1.68336874 43.0975456,-2.21046811 23.4988173,10.904687 L26.0001692,13.8802289 L15.137268,15.8066255 L18.8991748,5.43569633 L21.4538731,8.47446354 C36.4648737,-1.72782583 55.8855695,-2.79733703 71.9260919,5.69492341 Z M49.0003571,9.48409295 C70.7893849,9.48409295 88.5161855,27.2108936 88.5161855,48.9999213 C88.5161855,70.7889491 70.7893849,88.5157497 49.0003571,88.5157497 C27.2113293,88.5157497 9.48452871,70.7889491 9.48452871,48.9999213 C9.48452871,27.2108936 27.2113293,9.48409295 49.0003571,9.48409295 Z M49.0003571,12.6453592 C28.9543725,12.6453592 12.645795,28.9539368 12.645795,48.9999213 C12.645795,69.0459059 28.9543725,85.3544835 49.0003571,85.3544835 C69.0463417,85.3544835 85.3549192,69.0459059 85.3549192,48.9999213 C85.3549192,28.9539368 69.0463417,12.6453592 49.0003571,12.6453592 Z M49.0003571,79.0319509 C49.8733167,79.0319509 50.5809902,79.7396245 50.5809902,80.6125841 L50.5809902,80.6125841 L50.5809902,82.1932172 C50.5809902,83.0661768 49.8733167,83.7738503 49.0003571,83.7738503 C48.1273975,83.7738503 47.419724,83.0661768 47.419724,82.1932172 L47.419724,82.1932172 L47.419724,80.6125841 C47.419724,79.7396245 48.1273975,79.0319509 49.0003571,79.0319509 Z M25.5291405,70.2355299 C25.9284934,69.836177 26.510563,69.6802119 27.0560892,69.8263852 C27.6016154,69.9725585 28.0277199,70.398663 28.1738932,70.9441893 C28.3200665,71.4897155 28.1641014,72.071785 27.7647485,72.4711379 L27.7647485,72.4711379 L26.6468457,73.5888431 C26.3507288,73.885746 25.9484688,74.0523529 25.5291405,74.0517726 C24.8898162,74.0517726 24.3134335,73.6666852 24.0687715,73.0760278 C23.8241096,72.4853705 23.9593531,71.8054916 24.4114353,71.3534327 L24.4114353,71.3534327 Z M70.944625,69.8263852 C71.4901512,69.6802119 72.0722208,69.836177 72.4715737,70.2355299 L72.4715737,70.2355299 L73.5892789,71.3534327 C74.2065704,71.9707243 74.2065703,72.9715516 73.5892788,73.5888431 C72.9719873,74.2061346 71.97116,74.2061346 71.3538685,73.5888431 L71.3538685,73.5888431 L70.2359657,72.4711379 C69.8366128,72.071785 69.6806477,71.4897155 69.826821,70.9441892 C69.9729943,70.398663 70.3990988,69.9725585 70.944625,69.8263852 Z M67.8720301,30.7264604 C68.2913026,30.7264604 68.6933975,30.8930405 68.9898341,31.1895448 L68.9898341,31.1895448 L72.3429497,34.5426604 C72.639454,34.839097 72.806034,35.2411919 72.806034,35.6604644 C72.806034,36.0797369 72.639454,36.4818318 72.3429497,36.7782684 L72.3429497,36.7782684 L41.4245801,67.6964404 C41.1281515,67.9928842 40.7260989,68.1594259 40.3068749,68.1594259 C39.8876508,68.1594259 39.4855982,67.9928842 39.1891697,67.6964404 L39.1891697,67.6964404 L25.6577645,54.1652329 C25.3612603,53.8687963 25.1946802,53.4667014 25.1946802,53.0474289 C25.1946802,52.6281564 25.3612603,52.2260614 25.6577645,51.9296249 L25.6577645,51.9296249 L29.0108802,48.5765092 C29.3073167,48.280005 29.7094117,48.1134249 30.1286842,48.1134249 C30.5479567,48.1134249 30.9500516,48.280005 31.2464881,48.5765092 L31.2464881,48.5765092 L40.3068749,57.6372911 L66.7542261,31.1895448 C67.0506627,30.8930405 67.4527576,30.7264604 67.8720301,30.7264604 Z M67.8721289,34.5426604 L41.4245801,60.9904067 C41.1281515,61.2868506 40.7260989,61.4533923 40.3068749,61.4533923 C39.8876508,61.4533923 39.4855982,61.2868506 39.1891697,60.9904067 L39.1891697,60.9904067 L30.1285854,51.9296249 L29.0108802,53.0473301 L40.3068749,64.3433248 L68.9898341,35.6603656 L67.8721289,34.5426604 Z M82.193653,47.4192882 C83.0666125,47.4192882 83.7742861,48.1269618 83.7742861,48.9999213 C83.7742861,49.8728809 83.0666125,50.5805545 82.193653,50.5805545 L82.193653,50.5805545 L80.6130198,50.5805545 C79.7400602,50.5805545 79.0323867,49.8728809 79.0323867,48.9999213 C79.0323867,48.1269618 79.7400602,47.4192882 80.6130198,47.4192882 L80.6130198,47.4192882 Z M17.3876944,47.4192882 C18.260654,47.4192882 18.9683275,48.1269618 18.9683275,48.9999213 C18.9683275,49.8728809 18.260654,50.5805545 17.3876944,50.5805545 L17.3876944,50.5805545 L15.8070613,50.5805545 C14.9341017,50.5805545 14.2264281,49.8728809 14.2264281,48.9999213 C14.2264281,48.1269618 14.9341017,47.4192882 15.8070613,47.4192882 L15.8070613,47.4192882 Z M25.1130969,23.987944 C25.663165,23.8426987 26.2488514,24.00427 26.6466481,24.4109996 L26.6466481,24.4109996 L27.7645509,25.5287048 C28.167919,25.9271695 28.3269626,26.5111604 28.1813471,27.0591349 C28.0357316,27.6071094 27.6077667,28.0351121 27.0598051,28.1807761 C26.5118435,28.32644 25.9278384,28.167448 25.5293381,27.7641152 L25.5293381,27.7641152 L24.4116329,26.64641 C24.0048331,26.2486851 23.8431582,25.6630273 23.9883062,25.1129335 C24.1334542,24.5628397 24.5630287,24.1331892 25.1130969,23.987944 Z M71.3540661,24.4109996 C71.7518628,24.00427 72.3375492,23.8426987 72.8876173,23.987944 C73.4376855,24.1331892 73.86726,24.5628397 74.012408,25.1129335 C74.157556,25.6630273 73.9958812,26.2486851 73.5890813,26.64641 L73.5890813,26.64641 L72.4713761,27.7641152 C72.1753075,28.0609694 71.7731316,28.2275723 71.3538685,28.2270444 C70.7145442,28.2270444 70.1381615,27.8419572 69.8934995,27.2512999 C69.6488375,26.6606425 69.7840811,25.9807637 70.2361633,25.5287048 L70.2361633,25.5287048 Z M49.0003571,14.2259924 C49.8733167,14.2259924 50.5809902,14.9336659 50.5809902,15.8066255 L50.5809902,15.8066255 L50.5809902,17.3872586 C50.5809902,18.2602182 49.8733167,18.9678918 49.0003571,18.9678918 C48.1273975,18.9678918 47.419724,18.2602182 47.419724,17.3872586 L47.419724,17.3872586 L47.419724,15.8066255 C47.419724,14.9336659 48.1273975,14.2259924 49.0003571,14.2259924 Z" id="Combined-Shape" fill="url(#linearGradient-3)" fill-rule="nonzero"></path>
                    </g>
                </g>
            </g>
        </g>
    </g>
</svg>