<?xml version="1.0" encoding="UTF-8"?>
<svg width="375px" height="186px" viewBox="0 0 375 186" version="1.1" xmlns="http://www.w3.org/2000/svg" xmlns:xlink="http://www.w3.org/1999/xlink">
    <title>blog</title>
    <defs>
        <rect id="path-1" x="0" y="0" width="375" height="186" rx="14"></rect>
        <linearGradient x1="408.124081%" y1="384.94761%" x2="-364.133121%" y2="-307.725694%" id="linearGradient-3">
            <stop stop-color="#6462AA" offset="0%"></stop>
            <stop stop-color="#20B69E" offset="33.4517045%"></stop>
            <stop stop-color="#6462AA" offset="51.2019231%"></stop>
            <stop stop-color="#4CA7DA" offset="100%"></stop>
        </linearGradient>
        <linearGradient x1="408.124081%" y1="111.274165%" x2="-364.133121%" y2="-15.4411099%" id="linearGradient-4">
            <stop stop-color="#6462AA" offset="0%"></stop>
            <stop stop-color="#20B69E" offset="33.4517045%"></stop>
            <stop stop-color="#6462AA" offset="51.2019231%"></stop>
            <stop stop-color="#4CA7DA" offset="100%"></stop>
        </linearGradient>
        <linearGradient x1="408.124081%" y1="50.7779303%" x2="-364.133121%" y2="49.1691666%" id="linearGradient-5">
            <stop stop-color="#6462AA" offset="0%"></stop>
            <stop stop-color="#20B69E" offset="33.4517045%"></stop>
            <stop stop-color="#6462AA" offset="51.2019231%"></stop>
            <stop stop-color="#4CA7DA" offset="100%"></stop>
        </linearGradient>
        <linearGradient x1="408.124081%" y1="51.488656%" x2="-364.133121%" y2="48.410108%" id="linearGradient-6">
            <stop stop-color="#6462AA" offset="0%"></stop>
            <stop stop-color="#20B69E" offset="33.4517045%"></stop>
            <stop stop-color="#6462AA" offset="51.2019231%"></stop>
            <stop stop-color="#4CA7DA" offset="100%"></stop>
        </linearGradient>
        <linearGradient x1="408.124081%" y1="58.5746588%" x2="-364.133121%" y2="40.8422222%" id="linearGradient-7">
            <stop stop-color="#6462AA" offset="0%"></stop>
            <stop stop-color="#20B69E" offset="33.4517045%"></stop>
            <stop stop-color="#6462AA" offset="51.2019231%"></stop>
            <stop stop-color="#4CA7DA" offset="100%"></stop>
        </linearGradient>
    </defs>
    <g id="Page-1" stroke="none" stroke-width="1" fill="none" fill-rule="evenodd">
        <g id="Group-26">
            <mask id="mask-2" fill="white">
                <use xlink:href="#path-1"></use>
            </mask>
            <use id="Mask" fill="#EAEBF6" xlink:href="#path-1"></use>
            <g id="Artical" mask="url(#mask-2)">
                <g transform="translate(139.000000, 44.000000)" id="news-paper">
                    <path d="M93.1,0 L21.2332695,0 C18.4565391,0 16.3332695,2.12326953 16.3332695,4.9 L16.3332695,52.2667305 L1.63326953,52.2667305 C0.653269531,52.2667305 0,52.92 0,53.9 L0,88.2 C0,93.59 4.41,98 9.8,98 L88.2,98 C93.59,98 98,93.59 98,88.2 L98,4.9 C98,2.12326953 95.8767305,0 93.1,0 Z M3.26673047,88.2 L3.26673047,55.5332695 L16.3334609,55.5332695 L16.3334609,88.2 C16.3334609,91.7932695 13.3934609,94.7332695 9.80019141,94.7332695 C6.20692187,94.7332695 3.26673047,91.7932695 3.26673047,88.2 Z M94.7332695,88.2 C94.7332695,91.7932695 91.7932695,94.7332695 88.2,94.7332695 L17.15,94.7332695 C17.4642891,94.3491172 17.7544609,93.9414219 18.0191758,93.5157344 C18.9377344,92.1035391 19.5042969,90.4444297 19.5883242,88.6633945 C19.5959805,88.5095039 19.6001914,88.3550391 19.6001914,88.1998086 L19.6001914,53.9 L19.6001914,4.9 C19.6001914,3.92 20.2534609,3.26673047 21.2334609,3.26673047 L93.1,3.26673047 C94.08,3.26673047 94.7332695,3.92 94.7332695,4.9 L94.7332695,88.2 Z" id="Shape" fill="url(#linearGradient-3)" fill-rule="nonzero"></path>
                    <path d="M88.1016686,16.1365462 L26.0348776,16.1365462 C25.0548766,16.1365462 24.4016064,16.7939856 24.4016064,17.780241 L24.4016064,42.4366265 C24.4016064,43.4228819 25.0548766,44.0803213 26.0348776,44.0803213 L88.1016686,44.0803213 C89.0816696,44.0803213 89.7349398,43.4228819 89.7349398,42.4366265 L89.7349398,17.780241 C89.7349398,16.7941782 89.0816696,16.1365462 88.1016686,16.1365462 Z M86.4683975,40.7929316 L27.6683401,40.7929316 L27.6683401,19.4241285 L86.4683975,19.4241285 L86.4683975,40.7929316 Z" id="Shape" fill="url(#linearGradient-4)" fill-rule="nonzero"></path>
                    <path d="M88.1016686,8.26506024 L26.0348776,8.26506024 C25.0548766,8.26506024 24.4016064,8.89474222 24.4016064,9.83935743 C24.4016064,10.7839726 25.0548766,11.4136546 26.0348776,11.4136546 L88.1016686,11.4136546 C89.0816696,11.4136546 89.7349398,10.7839726 89.7349398,9.83935743 C89.7349398,8.89474222 89.0816696,8.26506024 88.1016686,8.26506024 Z" id="Path" fill="url(#linearGradient-5)" fill-rule="nonzero"></path>
                    <path d="M26.0250528,63.7590361 L35.7661118,63.7590361 C36.7402177,63.7590361 37.3895582,63.1096956 37.3895582,62.1355897 L37.3895582,52.3945307 C37.3895582,51.4204249 36.7402177,50.7710843 35.7661118,50.7710843 L26.0250528,50.7710843 C25.0509469,50.7710843 24.4016064,51.4204249 24.4016064,52.3945307 L24.4016064,62.1355897 C24.4016064,63.1096956 25.0509469,63.7590361 26.0250528,63.7590361 Z M27.6486895,54.0179772 L34.1426654,54.0179772 L34.1426654,60.5119531 L27.6486895,60.5119531 L27.6486895,54.0179772 L27.6486895,54.0179772 Z" id="Shape" fill="url(#linearGradient-3)" fill-rule="nonzero"></path>
                    <path d="M26.0250528,81.4698795 L35.7661118,81.4698795 C36.7402177,81.4698795 37.3895582,80.820539 37.3895582,79.8464331 L37.3895582,70.1053741 C37.3895582,69.1312682 36.7402177,68.4819277 35.7661118,68.4819277 L26.0250528,68.4819277 C25.0509469,68.4819277 24.4016064,69.1312682 24.4016064,70.1053741 L24.4016064,79.8464331 C24.4016064,80.8203487 25.0509469,81.4698795 26.0250528,81.4698795 Z M27.6486895,71.7288205 L34.1426654,71.7288205 L34.1426654,78.2227964 L27.6486895,78.2227964 L27.6486895,71.7288205 L27.6486895,71.7288205 Z" id="Shape" fill="url(#linearGradient-3)" fill-rule="nonzero"></path>
                    <path d="M88.1064157,50.7710843 L44.1345482,50.7710843 C43.1573956,50.7710843 42.5060241,51.4007663 42.5060241,52.3453815 C42.5060241,53.2899967 43.1573956,53.9196787 44.1345482,53.9196787 L88.1064157,53.9196787 C89.0835683,53.9196787 89.7349398,53.2899967 89.7349398,52.3453815 C89.7349398,51.4009508 89.0835683,50.7710843 88.1064157,50.7710843 Z" id="Path" fill="url(#linearGradient-6)" fill-rule="nonzero"></path>
                    <path d="M44.145869,62.184739 L60.5448941,62.184739 C61.5288394,62.184739 62.184739,61.555057 62.184739,60.6104418 C62.184739,59.6658266 61.5288394,59.0361446 60.5448941,59.0361446 L44.145869,59.0361446 C43.1619236,59.0361446 42.5060241,59.6658266 42.5060241,60.6104418 C42.5060241,61.555057 43.1619236,62.184739 44.145869,62.184739 Z" id="Path" fill="url(#linearGradient-7)" fill-rule="nonzero"></path>
                    <path d="M88.1064157,68.4819277 L44.1345482,68.4819277 C43.1573956,68.4819277 42.5060241,69.1116097 42.5060241,70.0562249 C42.5060241,71.0008401 43.1573956,71.6305221 44.1345482,71.6305221 L88.1064157,71.6305221 C89.0835683,71.6305221 89.7349398,71.0008401 89.7349398,70.0562249 C89.7349398,69.1116097 89.0835683,68.4819277 88.1064157,68.4819277 Z" id="Path" fill="url(#linearGradient-6)" fill-rule="nonzero"></path>
                    <path d="M60.5448941,79.8955823 C61.5288394,79.8955823 62.184739,79.2659004 62.184739,78.3212851 C62.184739,77.3766699 61.5288394,76.746988 60.5448941,76.746988 L44.145869,76.746988 C43.1619236,76.746988 42.5060241,77.3766699 42.5060241,78.3212851 C42.5060241,79.2659004 43.1619236,79.8955823 44.145869,79.8955823 L60.5448941,79.8955823 Z" id="Path" fill="url(#linearGradient-7)" fill-rule="nonzero"></path>
                    <path d="M88.1016686,86.5863454 L26.0348776,86.5863454 C25.0548766,86.5863454 24.4016064,87.2160274 24.4016064,88.1606426 C24.4016064,89.1052578 25.0548766,89.7349398 26.0348776,89.7349398 L88.1016686,89.7349398 C89.0816696,89.7349398 89.7349398,89.1052578 89.7349398,88.1606426 C89.7349398,87.2160274 89.0816696,86.5863454 88.1016686,86.5863454 Z" id="Path" fill="url(#linearGradient-5)" fill-rule="nonzero"></path>
                </g>
            </g>
        </g>
    </g>
</svg>