<?xml version="1.0" encoding="UTF-8"?>
<svg width="50px" height="42px" viewBox="0 0 50 42" version="1.1" xmlns="http://www.w3.org/2000/svg" xmlns:xlink="http://www.w3.org/1999/xlink">
    <title>Group 23</title>
    <defs>
        <linearGradient x1="342.898129%" y1="211.949127%" x2="-364.133121%" y2="-190.950365%" id="linearGradient-1">
            <stop stop-color="#6462AA" offset="0%"></stop>
            <stop stop-color="#20B69E" offset="33.4517045%"></stop>
            <stop stop-color="#6462AA" offset="51.2019231%"></stop>
            <stop stop-color="#4CA7DA" offset="100%"></stop>
        </linearGradient>
        <linearGradient x1="407.865912%" y1="384.94761%" x2="-363.834576%" y2="-307.725694%" id="linearGradient-2">
            <stop stop-color="#6462AA" offset="0%"></stop>
            <stop stop-color="#20B69E" offset="33.4517045%"></stop>
            <stop stop-color="#6462AA" offset="51.2019231%"></stop>
            <stop stop-color="#4CA7DA" offset="100%"></stop>
        </linearGradient>
    </defs>
    <g id="Page-1" stroke="none" stroke-width="1" fill="none" fill-rule="evenodd">
        <g id="Group-23">
            <path d="M47.9531829,6.80588338 C47.9531829,5.61799276 47.9531829,4.48244588 47.9531829,3.34702922 C47.9531829,2.21916463 47.6804688,1.95067505 46.5363281,1.95067505 C32.1450521,1.95067505 17.7539063,1.95067505 3.36263021,1.95067505 C3.26523438,1.95067505 3.16770833,1.94950318 3.0703125,1.95106568 C2.32981771,1.96317505 1.95572917,2.32476359 1.95130208,3.05757609 C1.94427083,4.21070109 1.94882813,5.36408651 1.95078125,6.51734172 C1.95091146,6.6092688 1.96875,6.70132609 1.9796875,6.80588338 L47.9531829,6.80588338 Z M1.94919792,8.79143026 L1.94919792,9.32658651 C1.94919792,18.7801021 1.94919792,28.2336178 1.94919792,37.6871334 C1.94919792,38.6799719 2.26158854,38.9877193 3.26731771,38.9877193 C17.7238281,38.9877193 32.1802083,38.9877193 46.6365885,38.9877193 C47.6408854,38.9877193 47.9531576,38.6790605 47.9531576,37.6847896 C47.9531576,28.231274 47.9531576,18.7777584 47.9531576,9.32424276 L47.9531576,8.79143026 L1.94919792,8.79143026 Z M1.11022302e-14,2.43804484 C0.196875,2.01499797 0.339322917,1.55393026 0.60234375,1.17710734 C1.12434896,0.428930259 1.88932292,0.0608313006 2.80013021,0.00588338396 C2.96197917,-0.00388224104 3.12486979,0.00145630063 3.28723958,0.00145630063 C17.7259115,0.00132609229 32.1644531,0.00132609229 46.6029948,0.00145630063 C48.7492187,0.00145630063 49.902654,1.16018026 49.902654,3.31682088 C49.902654,14.8157792 49.902654,26.3146073 49.9016927,37.8135657 C49.9014323,39.4432532 48.9455729,40.6377844 47.4300781,40.8965084 C47.1605469,40.9424719 46.8800781,40.9355709 46.6046875,40.9355709 C32.2635417,40.9372636 17.9223958,40.9225501 3.58138021,40.9555129 C1.80104167,40.9596594 0.502473958,40.3182532 1.11022302e-14,38.5004146 L1.11022302e-14,2.43804484 Z" id="Fill-1" fill="url(#linearGradient-1)" fill-rule="nonzero"></path>
            <path d="M28.2610286,29.1422766 C27.5792578,30.0092037 27.5073828,31.0688391 27.1398047,32.0308183 C28.0877214,31.6184485 29.1931901,31.6270422 29.9858984,30.8913652 C29.398138,30.2954016 28.8644141,29.7542558 28.2610286,29.1422766 M41.9585547,18.8978756 C42.5622005,18.295011 43.1620703,17.7267818 43.7252214,17.1240474 C44.1780859,16.6392818 44.1584245,15.9565995 43.7302995,15.4954016 C43.2994401,15.0312089 42.5924089,14.9444902 42.1122005,15.3847245 C41.4730078,15.9707922 40.8933203,16.6217037 40.3125911,17.2194902 C40.8521745,17.7696204 41.3933203,18.3214433 41.9585547,18.8978756 M31.3705339,29.3860266 C34.4019141,26.3545162 37.4377214,23.3185787 40.4330339,20.3232662 C39.913763,19.8038652 39.3567318,19.2465735 38.8580339,18.7478756 C35.8519141,21.7539954 32.8171484,24.788761 29.8227474,27.7832922 C30.3247005,28.3029537 30.8607682,28.858162 31.3705339,29.3860266 M42.9702734,13.1541256 C44.1757422,13.2275631 45.1719661,13.8065995 45.7149349,15.0185787 C46.2562109,16.226912 46.0796484,17.3817297 45.2122005,18.3763912 C44.6159766,19.0602454 43.9421484,19.6765214 43.2994401,20.3194902 C39.2480078,24.3726152 35.1999609,28.429386 31.1343359,32.4683183 C30.8375911,32.7632402 30.4362891,32.9969641 30.0405859,33.1403235 C28.7309505,33.6150631 27.3998307,34.0296464 26.0812109,34.4799068 C25.6364193,34.6317297 25.2260026,34.6671464 24.8627214,34.3065995 C24.4999609,33.9464433 24.5275651,33.5370683 24.6799089,33.0905839 C25.1508724,31.7102454 25.5951432,30.3205318 26.0788672,28.9447506 C26.1821224,28.6510006 26.3645443,28.3568599 26.5842057,28.1364172 C31.2135026,23.4900631 35.8558203,18.8567297 40.4886328,14.2138912 C41.1517839,13.5494381 41.9219661,13.1697506 42.9702734,13.1541256" id="Fill-3" fill="#4687A4"></path>
            <path d="M18.691276,15.1085787 C14.2110677,15.1085787 9.73085937,15.1087089 5.25065104,15.1081881 C5.08841146,15.1081881 4.92434896,15.1174329 4.76432292,15.0971204 C4.26731771,15.0338391 3.90364583,14.6218599 3.90220931,14.1361829 C3.90078125,13.6507662 4.26289062,13.2364433 4.75963542,13.1714693 C4.91953125,13.1505058 5.08372396,13.1596204 5.24596354,13.1596204 C14.2226562,13.1592297 23.199349,13.1592297 32.1759115,13.1592297 L32.2246094,13.1592297 C33.0632812,13.160662 33.5233073,13.5046724 33.5244819,14.1314954 C33.5257812,14.760011 33.0657552,15.1083183 32.2292969,15.1084485 C27.7165365,15.1088391 23.2039062,15.1085787 18.691276,15.1085787" id="Fill-5" fill="#4687A4"></path>
            <path d="M17.9838411,22.9058834 C15.1928255,22.9058834 12.4018099,22.9060136 9.61079427,22.9053626 C9.4486849,22.9053626 9.28410156,22.9146073 9.12485677,22.8910396 C8.63123698,22.8177323 8.2769401,22.3939042 8.28800781,21.9086178 C8.2986849,21.4427323 8.6472526,21.0426021 9.12095052,20.9717688 C9.28019531,20.9479407 9.44477865,20.9570553 9.60688802,20.9570553 C15.1889193,20.9564042 20.7709505,20.9565344 26.3529818,20.9567948 C26.4989453,20.9567948 26.6463411,20.9485917 26.7907422,20.9648678 C27.3102734,21.0234615 27.6886589,21.4505448 27.6762891,21.9532792 C27.6645703,22.4380448 27.2945182,22.8389563 26.7946484,22.8970292 C26.6503776,22.9138261 26.5028516,22.905623 26.356888,22.905623 C23.5658724,22.9058834 20.7748568,22.9058834 17.9838411,22.9058834" id="Fill-7" fill="#4687A4"></path>
            <path d="M12.7738542,30.703123 C10.2588802,30.703123 7.74403646,30.7032532 5.2290625,30.7028626 C5.08309896,30.7028626 4.93570312,30.7110657 4.79130208,30.6950501 C4.27033854,30.6371073 3.89260417,30.2139303 3.90223958,29.7097636 C3.91135417,29.2244771 4.27997396,28.8230448 4.77932292,28.7623678 C4.89143229,28.7486959 5.00614583,28.7541646 5.11955729,28.7541646 C10.214349,28.753774 15.3091406,28.753774 20.4038021,28.7539042 C20.5011979,28.7539042 20.5989844,28.7501282 20.6957292,28.7580709 C21.2459896,28.8033834 21.6440365,29.2242167 21.6336198,29.7463521 C21.623724,30.2513001 21.2380469,30.6510396 20.7078385,30.6972636 C20.5627865,30.7098938 20.4159115,30.7029928 20.2699479,30.7029928 C17.77125,30.703123 15.2725521,30.703123 12.7738542,30.703123" id="Fill-9" fill="#4687A4"></path>
            <path d="M11.3126432,34.6016126 C9.26876302,34.6017428 7.2247526,34.6020032 5.1808724,34.6013521 C5.03503906,34.6012219 4.88699219,34.6090344 4.74376302,34.5878105 C4.2496224,34.5147636 3.8935026,34.0943209 3.90222656,33.6092948 C3.9105599,33.143149 4.25808594,32.7460136 4.72957031,32.6655448 C4.77735677,32.6573417 4.82644531,32.6546073 4.87501302,32.6546073 C9.1574349,32.6540865 13.439987,32.6501803 17.7224089,32.6585136 C18.3053516,32.6595553 18.7196745,33.1038261 18.7095182,33.6440605 C18.6989714,34.2009615 18.271237,34.5970553 17.6390755,34.5990084 C15.5303516,34.6055188 13.4214974,34.6014823 11.3126432,34.6016126" id="Fill-11" fill="#4687A4"></path>
            <path d="M24.4922917,19.0068209 C22.8221094,19.0068209 21.1517969,19.0151542 19.4816146,19.0033053 C18.6581771,18.9974459 18.1352604,18.2141126 18.5640365,17.5841646 C18.7363021,17.3311698 19.1299219,17.0845553 19.4252344,17.0815605 C22.8140365,17.0466646 26.2033594,17.054998 29.5924219,17.0630709 C30.1820052,17.0645032 30.5982812,17.4888521 30.6003722,18.0284355 C30.6024479,18.5858573 30.1743229,19.0007011 29.5516667,19.0038261 C27.8652083,19.0124198 26.17875,19.0068209 24.4922917,19.0068209" id="Fill-13" fill="#4687A4"></path>
            <path d="M9.2111849,19.0071985 C7.8330599,19.0071985 6.4549349,19.009412 5.07667969,19.006287 C4.34295573,19.0045943 3.88748698,18.6135787 3.90220052,18.0088912 C3.91639323,17.4236047 4.35923177,17.059412 5.07498698,17.0588912 C7.83136719,17.0566777 10.5876172,17.0565474 13.3439974,17.0588912 C14.0762891,17.0595422 14.5341016,17.4534224 14.5186068,18.0558964 C14.5036328,18.6414433 14.0607943,19.0047245 13.3456901,19.006287 C11.9675651,19.0092818 10.5893099,19.0071985 9.2111849,19.0071985" id="Fill-15" fill="#4687A4"></path>
            <path d="M9.25282552,24.8551933 C10.6148047,24.8551933 11.9767839,24.8532402 13.338763,24.8559745 C14.0753516,24.857537 14.5305599,25.2442558 14.5187109,25.8476412 C14.5071224,26.4339693 14.0635026,26.8028495 13.3510026,26.8035006 C10.5946224,26.8058443 7.83824219,26.8057141 5.08186198,26.8035006 C4.34410156,26.8029797 3.89084635,26.4165214 3.90217448,25.8111829 C3.91324219,25.2227714 4.35373698,24.8577974 5.0696224,24.8561047 C6.46402344,24.8529797 7.85842448,24.8551933 9.25282552,24.8551933" id="Fill-17" fill="#4687A4"></path>
            <path d="M5.84402344,21.9169902 C5.85183594,22.455011 5.40027344,22.9082662 4.86251302,22.9021464 C4.34311198,22.896287 3.90990885,22.464386 3.90209635,21.9447245 C3.89389323,21.4059224 4.34389323,20.9542297 4.88308594,20.9602193 C5.40235677,20.9659485 5.83647135,21.3982402 5.84402344,21.9169902" id="Fill-19" fill="#4687A4"></path>
            <path d="M38.6739974,3.4161438 C39.2122786,3.40455526 39.6677474,3.85221151 39.6654127,4.39062297 C39.6631901,4.91015422 39.2341536,5.34713338 38.715013,5.3583313 C38.1776432,5.36978963 37.721263,4.92109172 37.7232099,4.38320109 C37.7251693,3.86432088 38.1548568,3.42734172 38.6739974,3.4161438" id="Fill-21" fill="#369AA2"></path>
            <path d="M42.1145443,5.35827922 C41.5765234,5.36348755 41.1258724,4.90997193 41.1343359,4.37182088 C41.1425391,3.85241984 41.5765234,3.42130005 42.0963151,3.41609172 C42.6351172,3.41088338 43.0852474,3.86374797 43.0763932,4.40202922 C43.0679297,4.92156047 42.6335547,5.35320109 42.1145443,5.35827922" id="Fill-23" fill="#369AA2"></path>
            <path d="M45.493099,3.4161438 C46.0307292,3.40299276 46.4882812,3.85012818 46.487501,4.38788859 C46.4867188,4.90702922 46.0585938,5.34531047 45.5395833,5.3583313 C45.0020833,5.37161255 44.5450521,4.92460734 44.5454425,4.38593547 C44.5458333,3.86640422 44.9735677,3.42890422 45.493099,3.4161438" id="Fill-25" fill="url(#linearGradient-2)" fill-rule="nonzero"></path>
        </g>
    </g>
</svg>