<svg xmlns="http://www.w3.org/2000/svg" width="50" height="50" viewBox="0 0 50 50">
    <defs>
        <linearGradient id="mn5ghgkpha" x1="408.124%" x2="-364.133%" y1="384.877%" y2="-307.65%">
            <stop offset="0%" stop-color="#6462AA"/>
            <stop offset="33.452%" stop-color="#20B69E"/>
            <stop offset="51.202%" stop-color="#6462AA"/>
            <stop offset="100%" stop-color="#4CA7DA"/>
        </linearGradient>
    </defs>
    <g fill="none" fill-rule="evenodd">
        <g fill="url(#mn5ghgkpha)" fill-rule="nonzero" transform="translate(-236.000000, -174.000000)">
            <g>
                <path d="M41.952 33.903c-1.856-.001-3.656.642-5.09 1.82l-3.874-3.874c1.53-1.783 2.413-4.032 2.504-6.38l8.22-.304c.473 1.537 2.016 2.482 3.6 2.207 1.585-.275 2.719-1.685 2.647-3.292-.071-1.607-1.325-2.91-2.928-3.044-1.603-.133-3.056.946-3.392 2.519l-8.2.303c-.355-3.085-2.063-5.853-4.66-7.555l1.537-2.796c2.374.829 4.986-.3 6.01-2.596 1.024-2.296.117-4.993-2.085-6.205-2.203-1.212-4.967-.534-6.358 1.56-1.392 2.093-.947 4.904 1.023 6.466l-1.539 2.797c-3.695-1.692-8.038-1.074-11.115 1.582l-3.875-3.874c2.72-3.325 2.353-8.199-.832-11.08-3.185-2.882-8.07-2.76-11.108.277-3.038 3.038-3.16 7.923-.278 11.109 2.882 3.185 7.755 3.551 11.08.832l3.875 3.874c-2.077 2.399-2.94 5.617-2.34 8.733l-7.069 1.903c-.927-1.8-3.055-2.62-4.95-1.91-1.896.71-2.96 2.728-2.476 4.694.485 1.966 2.364 3.258 4.373 3.006 2.009-.251 3.512-1.966 3.497-3.99 0-.081-.02-.162-.025-.242l7.074-1.905c.814 2.287 2.395 4.22 4.474 5.473l-1.704 3.401c-2.808-.94-5.866.45-7.005 3.183-1.139 2.734.028 5.883 2.673 7.214 2.646 1.332 5.87.393 7.387-2.15 1.518-2.544.812-5.827-1.616-7.522l1.7-3.401c3.624 1.486 7.776.81 10.742-1.75l3.874 3.875c-2.379 2.915-2.42 7.088-.1 10.05 2.322 2.96 6.385 3.917 9.783 2.303 3.398-1.613 5.224-5.367 4.396-9.037-.828-3.67-4.088-6.275-7.85-6.274zm4.829-11.267c.889 0 1.61.72 1.61 1.61 0 .888-.721 1.61-1.61 1.61-.89 0-1.61-.722-1.61-1.61 0-.89.72-1.61 1.61-1.61zM33.903 5.734c1.778 0 3.22 1.442 3.22 3.22 0 1.778-1.442 3.219-3.22 3.219-1.778 0-3.219-1.441-3.219-3.22 0-1.777 1.441-3.219 3.22-3.219zM4.125 33.1c-1.334 0-2.415-1.081-2.415-2.415 0-1.333 1.081-2.414 2.415-2.414 1.333 0 2.414 1.08 2.414 2.414S5.46 33.1 4.125 33.1zm16.096 9.658c0 2.222-1.801 4.024-4.024 4.024-2.222 0-4.024-1.802-4.024-4.024 0-2.223 1.802-4.025 4.024-4.025 2.222.003 4.022 1.803 4.024 4.025zM1.711 8.149c-.008-2.877 1.895-5.41 4.66-6.204 2.765-.794 5.722.342 7.243 2.785 1.521 2.442 1.237 5.596-.695 7.728.037-.09.057-.187.059-.285.004-1.281-.505-2.511-1.413-3.415-.321-.32-.685-.595-1.082-.814 1.213-1.273 1.182-3.283-.071-4.517-1.253-1.233-3.264-1.233-4.517 0-1.253 1.234-1.285 3.244-.071 4.517-1.544.848-2.503 2.468-2.504 4.229.002.097.02.193.056.283-1.071-1.179-1.665-2.714-1.666-4.307zm6.438-.805c-.89 0-1.61-.72-1.61-1.61 0-.889.72-1.61 1.61-1.61.889 0 1.61.721 1.61 1.61 0 .427-.17.837-.472 1.139-.302.301-.711.471-1.138.471zm0 1.61c1.468 0 2.75.993 3.117 2.414H5.031c.369-1.42 1.65-2.413 3.118-2.414zm-4.306 3.968c.09.035.185.054.282.056h8.048c.098-.001.195-.021.286-.058-2.441 2.22-6.17 2.22-8.612 0l-.004.002zM16.197 25.05c0-4.89 3.964-8.853 8.853-8.853 4.89 0 8.853 3.964 8.853 8.853 0 4.89-3.963 8.853-8.853 8.853-4.887-.005-8.847-3.966-8.853-8.853zm21.449 21.674c.09.036.185.055.282.057h8.048c.098-.002.195-.021.286-.058-2.441 2.22-6.171 2.22-8.612 0l-.004.001zm4.306-5.577c-.89 0-1.61-.72-1.61-1.61 0-.889.72-1.61 1.61-1.61.889 0 1.61.721 1.61 1.61 0 .89-.721 1.61-1.61 1.61zm0 1.61c1.468 0 2.75.993 3.117 2.414h-6.235c.369-1.42 1.65-2.413 3.118-2.414zm4.77 3.504c.037-.09.057-.187.059-.285.004-1.282-.505-2.511-1.414-3.415-.32-.32-.684-.595-1.081-.815 1.213-1.272 1.182-3.282-.071-4.516-1.253-1.233-3.264-1.233-4.517 0-1.253 1.234-1.285 3.244-.071 4.516-1.544.848-2.503 2.469-2.504 4.23.001.097.02.192.056.282-2.332-2.574-2.202-6.534.294-8.95 2.496-2.415 6.459-2.415 8.955 0 2.496 2.416 2.626 6.376.294 8.95v.003z" transform="translate(236.000000, 174.000000)"/>
            </g>
        </g>
    </g>
</svg>
