<?xml version="1.0" encoding="UTF-8"?>
<svg width="375px" height="186px" viewBox="0 0 375 186" version="1.1" xmlns="http://www.w3.org/2000/svg" xmlns:xlink="http://www.w3.org/1999/xlink">
    <title>blog copy 3</title>
    <defs>
        <rect id="path-1" x="0" y="0" width="375" height="186" rx="14"></rect>
        <linearGradient x1="408.124081%" y1="339.329832%" x2="-364.133121%" y2="-259.005683%" id="linearGradient-3">
            <stop stop-color="#6462AA" offset="0%"></stop>
            <stop stop-color="#20B69E" offset="33.4517045%"></stop>
            <stop stop-color="#6462AA" offset="51.2019231%"></stop>
            <stop stop-color="#4CA7DA" offset="100%"></stop>
        </linearGradient>
        <linearGradient x1="209.166258%" y1="384.94761%" x2="-134.059165%" y2="-307.725694%" id="linearGradient-4">
            <stop stop-color="#6462AA" offset="0%"></stop>
            <stop stop-color="#20B69E" offset="33.4517045%"></stop>
            <stop stop-color="#6462AA" offset="51.2019231%"></stop>
            <stop stop-color="#4CA7DA" offset="100%"></stop>
        </linearGradient>
        <linearGradient x1="408.124081%" y1="51.907854%" x2="-364.133121%" y2="47.9624026%" id="linearGradient-5">
            <stop stop-color="#6462AA" offset="0%"></stop>
            <stop stop-color="#20B69E" offset="33.4517045%"></stop>
            <stop stop-color="#6462AA" offset="51.2019231%"></stop>
            <stop stop-color="#4CA7DA" offset="100%"></stop>
        </linearGradient>
        <linearGradient x1="178.924669%" y1="384.94761%" x2="-99.0879237%" y2="-307.725694%" id="linearGradient-6">
            <stop stop-color="#6462AA" offset="0%"></stop>
            <stop stop-color="#20B69E" offset="33.4517045%"></stop>
            <stop stop-color="#6462AA" offset="51.2019231%"></stop>
            <stop stop-color="#4CA7DA" offset="100%"></stop>
        </linearGradient>
        <linearGradient x1="408.124081%" y1="384.94761%" x2="-364.133121%" y2="-307.725694%" id="linearGradient-7">
            <stop stop-color="#6462AA" offset="0%"></stop>
            <stop stop-color="#20B69E" offset="33.4517045%"></stop>
            <stop stop-color="#6462AA" offset="51.2019231%"></stop>
            <stop stop-color="#4CA7DA" offset="100%"></stop>
        </linearGradient>
        <linearGradient x1="89.7915645%" y1="384.94761%" x2="3.98520873%" y2="-307.725694%" id="linearGradient-8">
            <stop stop-color="#6462AA" offset="0%"></stop>
            <stop stop-color="#20B69E" offset="33.4517045%"></stop>
            <stop stop-color="#6462AA" offset="51.2019231%"></stop>
            <stop stop-color="#4CA7DA" offset="100%"></stop>
        </linearGradient>
        <linearGradient x1="408.124081%" y1="54.1351557%" x2="-364.133121%" y2="45.5836334%" id="linearGradient-9">
            <stop stop-color="#6462AA" offset="0%"></stop>
            <stop stop-color="#20B69E" offset="33.4517045%"></stop>
            <stop stop-color="#6462AA" offset="51.2019231%"></stop>
            <stop stop-color="#4CA7DA" offset="100%"></stop>
        </linearGradient>
    </defs>
    <g id="Page-1" stroke="none" stroke-width="1" fill="none" fill-rule="evenodd">
        <g id="Group-26">
            <mask id="mask-2" fill="white">
                <use xlink:href="#path-1"></use>
            </mask>
            <use id="Mask" fill="#EAEBF6" xlink:href="#path-1"></use>
            <g id="Group-25" mask="url(#mask-2)">
                <g transform="translate(135.000000, 44.000000)" id="Group-19">
                    <path d="M0,5.10140842 C0.2193209,5.07799558 0.239962867,4.88288857 0.296728276,4.73200581 C1.53782654,1.50883791 3.59428251,0.0650459982 7.02342928,0.0104160339 C7.16018231,0.007814607 7.29693535,0.0104160339 7.43626862,0.0104160339 C37.6354664,0.0104160339 67.8372444,0.0182203145 98.0364422,5.15292448e-06 C100.985663,-0.0025911005 103.325946,0.975545404 104.742501,3.70704362 C105.261131,4.70599154 105.441748,5.79338797 105.441748,6.91460296 C105.441748,34.9735932 105.446908,63.0325835 105.436587,91.0941751 C105.434007,95.0379383 102.876983,97.7304151 98.9679109,97.9645435 C97.9409731,98.0269778 96.9088747,97.9879564 95.8793566,97.9879564 C85.1042498,97.9879564 74.3265628,97.9905578 63.551456,97.9853549 C63.0715303,97.9853549 62.586444,97.9801521 62.1168393,97.8995078 C61.1982718,97.7408208 60.5532103,96.9473856 60.5170868,96.0108719 C60.4783832,95.0223297 61.0873212,94.1612574 62.0420122,93.9609476 C62.5399996,93.8568905 63.0612093,93.8360791 63.572098,93.8360791 C75.0335502,93.8282748 86.4975826,93.8308762 97.9590348,93.8308762 C100.567663,93.8308762 101.321095,93.0686581 101.321095,90.4360141 C101.321095,68.7088969 101.313354,46.9791782 101.344317,25.252061 C101.346898,24.2713231 101.145638,24.0085789 100.136762,24.0111804 C68.5287503,24.0423975 36.9207383,24.0423975 5.31530651,24.0111804 C4.31417111,24.0111804 4.09743046,24.2557145 4.1000107,25.2468581 C4.13097365,47.0103954 4.12323291,68.7713311 4.12323291,90.5348684 C4.12323291,93.019231 4.92052889,93.8308762 7.37692297,93.8308762 C19.7646834,93.8334776 32.1550241,93.8308762 44.5427846,93.8360791 C45.0536733,93.8360791 45.5774632,93.8594919 46.0728704,93.9713533 C46.9475738,94.1664603 47.5874747,95.0717568 47.5642525,95.9692491 C47.5410303,96.8719442 46.8650059,97.7330165 45.9851421,97.8969064 C45.5181176,97.9827535 45.0304511,97.9879564 44.5505253,97.9905578 C32.2633945,97.9957606 19.9788438,97.9931592 7.69171297,97.9931592 C3.44462825,97.9931592 1.75198695,96.8329228 0.154814753,92.8371311 C0.134172786,92.7851026 0.0541851635,92.7564869 0.00258024588,92.7174655 C0,63.511246 0,34.3076279 0,5.10140842 Z M52.6241147,19.8827159 C68.5132688,19.8827159 84.3998427,19.8749116 100.288997,19.9035567 C101.150799,19.9061288 101.352058,19.6954132 101.342108,18.8369423 C101.290132,15.0674748 101.318515,11.2954058 101.318515,7.52333684 C101.318515,4.97393851 100.52896,4.17269903 98.0106397,4.17269903 C91.077519,4.1700976 84.1469786,4.17269903 77.2138579,4.17269903 C53.981324,4.17269903 30.7487901,4.17269903 7.51625625,4.17269903 C4.89214619,4.17269903 4.11807242,4.94011996 4.11807242,7.5389454 C4.11807242,11.3110144 4.15161562,15.0804819 4.09437149,18.8525509 C4.08194898,19.737036 4.32707234,19.9061288 5.163072,19.9035567 C20.9851397,19.8749116 36.8046272,19.8827159 52.6241147,19.8827159 Z" id="Shape" fill="url(#linearGradient-3)" fill-rule="nonzero"></path>
                    <path d="M21.0921649,52.7230021 C21.0921649,49.3369899 21.0867178,45.9536025 21.0948884,42.5675902 C21.0976119,40.4729873 21.8574778,39.7170404 24.01724,39.7327893 C26.4765908,39.751163 28.9441123,39.5910493 31.398016,39.8246579 C34.4374796,40.1160124 36.5917946,41.6935266 37.7765318,44.3550897 C38.9694395,47.0376513 38.5718036,49.6309692 36.6816712,51.9171837 C36.1533057,52.5550139 36.1451351,52.8726166 36.6789477,53.5156964 C38.5718036,55.8019109 38.9748865,58.3952288 37.7792553,61.0777904 C36.5754534,63.7787258 34.3830089,65.35624 31.2945218,65.6213464 C28.7289531,65.8392061 26.1552138,65.7105901 23.5869217,65.6948412 C21.8765425,65.6869668 21.1057825,64.8365265 21.0976119,63.0831496 C21.0812707,59.631517 21.0921649,56.1772595 21.0921649,52.7230021 Z M25.4470951,47.2922585 C25.4470951,48.1978199 25.4634363,49.1007565 25.441648,50.0063179 C25.4307539,50.4446621 25.5832718,50.6362736 26.0598902,50.6283992 C27.6123043,50.6074007 29.167442,50.6651466 30.7144091,50.589027 C32.6808004,50.4919088 34.0561848,49.0955068 34.0725261,47.3106322 C34.0915908,45.4811356 32.6971416,44.0558607 30.6762796,43.9587426 C29.1647185,43.8852477 27.6449867,43.9482433 26.130702,43.9219951 C25.6214013,43.9141207 25.4225833,44.0794841 25.4389245,44.5834487 C25.4688834,45.4837605 25.4470951,46.3866971 25.4470951,47.2922585 Z M28.4402585,54.8858502 C28.4402585,54.8622269 28.4402585,54.8412284 28.4402585,54.817605 C27.6831162,54.817605 26.9232503,54.846478 26.166108,54.8097306 C25.5859953,54.7808576 25.4280304,55.0065918 25.436201,55.5394293 C25.4634363,57.3138047 25.4525422,59.0881801 25.441648,60.8599307 C25.4389245,61.2641523 25.5097364,61.5292587 26.0190372,61.5187595 C27.7130751,61.4846369 29.4152836,61.5528821 31.1038744,61.4295157 C32.8278712,61.3008998 34.0888673,59.8047548 34.0725261,58.135372 C34.0561848,56.5079863 32.81153,55.0827114 31.1447274,54.9042239 C30.2514084,54.8097306 29.3417482,54.8858502 28.4402585,54.8858502 Z" id="Shape" fill="url(#linearGradient-4)" fill-rule="nonzero"></path>
                    <path d="M52.7083094,81.8739105 C62.6533356,81.8739105 72.5983618,81.8708307 82.543388,81.88007 C83.0270447,81.88007 83.5211587,81.9016285 83.9943579,82.0094208 C84.9355276,82.2250055 85.6178756,83.2875299 85.5949367,84.4024106 C85.5682028,85.4895733 84.9119984,86.4658638 84.002201,86.6814485 C83.5629885,86.786161 83.1054755,86.8107993 82.6558055,86.8107993 C62.6977797,86.8169588 42.7371395,86.8015599 22.7791137,86.835443 C20.4314182,86.8385173 19.8641021,85.5542487 19.8481013,84.2884587 C19.827501,82.6869726 20.8497159,81.8769903 22.7712706,81.8769903 C32.7476692,81.8739105 42.7292964,81.8739105 52.7083094,81.8739105 Z" id="Path" fill="url(#linearGradient-5)" fill-rule="nonzero"></path>
                    <path d="M85.5882663,62.3811784 C85.5136814,63.9620573 85.6834264,65.8839101 85.4828187,67.8057628 C85.0944628,71.5177284 82.0081909,74.3514279 78.2146484,74.428922 C74.5111222,74.5038329 71.2859681,71.683049 70.8153116,67.9581678 C70.7947365,67.7876808 70.7561581,67.619777 70.7381548,67.4492901 C70.5941288,66.1241416 71.3656968,65.0831381 72.5847742,64.9539813 C73.6932602,64.8351571 74.6345731,65.6307628 74.7708834,66.9042485 C74.9200532,68.3017248 75.4652946,69.4098899 76.7821039,70.0143436 C78.7624617,70.9236072 81.0514467,69.7146999 81.3729333,67.5371167 C81.5169593,66.5606915 81.4063679,65.5481025 81.4912404,64.5587616 C81.5581096,63.7631559 81.2391949,63.8251511 80.6836659,64.0421345 C78.5027005,64.8894029 76.4066075,64.6388388 74.3928151,63.4970929 C71.6383175,61.9394623 70.1517632,58.4883934 70.902756,55.3860478 C71.6948991,52.1183815 74.5188379,49.801309 77.9240245,49.628239 C80.9485709,49.4732508 84.0374147,51.5914219 85.0790315,54.4871167 C85.4570998,55.5384528 85.5676912,56.6207865 85.5831225,57.7160359 C85.6062696,59.1600086 85.5882663,60.6013982 85.5882663,62.3811784 Z M78.1837857,60.4128293 C80.0098299,60.3869979 81.501528,58.8551986 81.4655215,57.0418376 C81.429515,55.2207271 79.8889509,53.7173423 78.0911976,53.7457568 C76.2934442,53.7741713 74.7708834,55.3421345 74.8017461,57.1322473 C74.830037,58.9456084 76.3680291,60.4360775 78.1837857,60.4128293 Z" id="Shape" fill="url(#linearGradient-6)" fill-rule="nonzero"></path>
                    <path d="M59.7698489,64.4958867 C55.7535957,64.7125725 52.3710811,61.5319339 52.1134638,57.2910824 C51.8738797,53.3339862 55.1945663,49.8128413 59.3447804,49.6271106 C63.3249671,49.4491187 66.7924955,52.7587369 66.9805561,56.9170414 C67.1557358,60.8689784 63.9174868,64.271462 59.7698489,64.4958867 Z M59.3782706,60.3865945 C61.2099294,60.471721 62.7607853,59.0684222 62.8638322,57.2317518 C62.9643029,55.4466732 61.5036131,53.8421661 59.6899875,53.7441416 C57.8892428,53.646117 56.3255061,55.0803709 56.219883,56.919621 C56.1168361,58.7537119 57.5234263,60.2988883 59.3782706,60.3865945 Z" id="Shape" fill="url(#linearGradient-7)" fill-rule="nonzero"></path>
                    <path d="M40.9460446,50.6157059 C40.9460446,47.6661288 40.9181917,44.7165517 40.958705,41.7669746 C40.9764296,40.5390844 41.7563103,39.7548191 42.8299123,39.699366 C43.9187068,39.6439129 44.6960554,40.3199126 44.903686,41.5372403 C44.966988,41.9148496 44.9771163,42.3030213 44.9771163,42.6885524 C44.9821805,47.7796756 45.0353542,52.8734394 44.9517955,57.9645626 C44.9163464,60.0559369 45.7645933,61.3762489 47.8130462,61.6482332 C49.0208485,61.8093112 49.732363,62.7889828 49.605759,63.8795605 C49.4639625,65.0810445 48.5903948,65.7992942 47.334483,65.7438411 C43.9035143,65.5986068 41.1232902,62.8338734 40.9941541,59.2505465 C40.8903388,56.3749069 40.9738975,53.4939861 40.9738975,50.6130652 C40.9637692,50.6157059 40.9561729,50.6157059 40.9460446,50.6157059 Z" id="Path" fill="url(#linearGradient-8)" fill-rule="nonzero"></path>
                    <path d="M57.0626498,95.4805853 C57.0939168,96.7919339 55.9776842,97.9579282 54.6519627,97.9990066 C53.3012275,98.0369251 52.1662347,96.9846864 52.1037007,95.6354193 C52.0411666,94.2608732 53.1917929,93.0443209 54.5612883,93.0379747 C55.8776298,93.0316814 57.0313828,94.1597571 57.0626498,95.4805853 Z" id="Path" fill="url(#linearGradient-7)" fill-rule="nonzero"></path>
                    <path d="M73.2323304,13.6447937 C66.6567191,13.6447937 60.0784754,13.6478974 53.5028642,13.64169 C51.878704,13.6385863 51.0574107,12.9526707 50.8836755,11.5032472 C50.7309992,10.2338377 51.3522339,9.11961283 52.4183358,8.84028068 C52.855306,8.72544413 53.3185996,8.68819984 53.7687316,8.68819984 C66.7119984,8.68199246 79.6552653,8.68199246 92.5985322,8.68819984 C93.0486641,8.68819984 93.5093254,8.72544413 93.9489279,8.84028068 C94.9439564,9.097887 95.549397,10.0693421 95.5178088,11.2673667 C95.4862206,12.387799 94.8412947,13.3344246 93.9015456,13.5392682 C93.4593108,13.6354826 92.9960171,13.64169 92.5432528,13.64169 C86.1045238,13.6478974 79.6684271,13.6447937 73.2323304,13.6447937 Z" id="Path" fill="url(#linearGradient-9)" fill-rule="nonzero"></path>
                    <path d="M37.2148602,11.1264379 C37.236662,12.4926616 36.1745997,13.6101948 34.8197695,13.6448226 C33.4431374,13.6794504 32.2346911,12.5052535 32.2533785,11.1484738 C32.2720658,9.82946978 33.418221,8.6899007 34.7419057,8.68360474 C36.0780486,8.67416079 37.1930583,9.77280612 37.2148602,11.1264379 Z" id="Path" fill="url(#linearGradient-7)" fill-rule="nonzero"></path>
                    <path d="M17.3670286,11.1486306 C17.3763603,12.5055155 16.2969906,13.6199871 14.9470008,13.6451729 C13.5627947,13.6703587 12.3745548,12.4929226 12.4056606,11.1297412 C12.4367663,9.80433859 13.5876793,8.67727411 14.9065633,8.6835443 C16.2441108,8.68671878 17.3576968,9.80119037 17.3670286,11.1486306 Z" id="Path" fill="url(#linearGradient-7)" fill-rule="nonzero"></path>
                    <path d="M22.3306664,11.0803821 C22.3743696,9.70906852 23.4888015,8.64669456 24.843601,8.6845239 C26.1671839,8.72235324 27.306589,9.88875788 27.2909807,11.1970225 C27.2753725,12.5588788 26.0516826,13.7032163 24.6687882,13.6433198 C23.301502,13.5834234 22.2838416,12.4706103 22.3306664,11.0803821 Z" id="Path" fill="url(#linearGradient-7)" fill-rule="nonzero"></path>
                </g>
            </g>
        </g>
    </g>
</svg>