<?xml version="1.0" encoding="UTF-8"?>
<svg width="50px" height="47px" viewBox="0 0 50 47" version="1.1" xmlns="http://www.w3.org/2000/svg" xmlns:xlink="http://www.w3.org/1999/xlink">
    <title>Group 19</title>
    <defs>
        <linearGradient x1="408.124081%" y1="334.637526%" x2="-364.133121%" y2="-253.994277%" id="linearGradient-1">
            <stop stop-color="#6462AA" offset="0%"></stop>
            <stop stop-color="#20B69E" offset="33.4517045%"></stop>
            <stop stop-color="#6462AA" offset="51.2019231%"></stop>
            <stop stop-color="#4CA7DA" offset="100%"></stop>
        </linearGradient>
        <linearGradient x1="197.837004%" y1="384.94761%" x2="-120.958065%" y2="-307.725694%" id="linearGradient-2">
            <stop stop-color="#6462AA" offset="0%"></stop>
            <stop stop-color="#20B69E" offset="33.4517045%"></stop>
            <stop stop-color="#6462AA" offset="51.2019231%"></stop>
            <stop stop-color="#4CA7DA" offset="100%"></stop>
        </linearGradient>
        <linearGradient x1="408.124081%" y1="51.3747899%" x2="-364.133121%" y2="48.5317176%" id="linearGradient-3">
            <stop stop-color="#6462AA" offset="0%"></stop>
            <stop stop-color="#20B69E" offset="33.4517045%"></stop>
            <stop stop-color="#6462AA" offset="51.2019231%"></stop>
            <stop stop-color="#4CA7DA" offset="100%"></stop>
        </linearGradient>
        <linearGradient x1="180.054235%" y1="384.94761%" x2="-100.394149%" y2="-307.725694%" id="linearGradient-4">
            <stop stop-color="#6462AA" offset="0%"></stop>
            <stop stop-color="#20B69E" offset="33.4517045%"></stop>
            <stop stop-color="#6462AA" offset="51.2019231%"></stop>
            <stop stop-color="#4CA7DA" offset="100%"></stop>
        </linearGradient>
        <linearGradient x1="408.124081%" y1="384.059874%" x2="-364.133121%" y2="-306.777588%" id="linearGradient-5">
            <stop stop-color="#6462AA" offset="0%"></stop>
            <stop stop-color="#20B69E" offset="33.4517045%"></stop>
            <stop stop-color="#6462AA" offset="51.2019231%"></stop>
            <stop stop-color="#4CA7DA" offset="100%"></stop>
        </linearGradient>
        <linearGradient x1="93.2762119%" y1="384.94761%" x2="-0.0444222894%" y2="-307.725694%" id="linearGradient-6">
            <stop stop-color="#6462AA" offset="0%"></stop>
            <stop stop-color="#20B69E" offset="33.4517045%"></stop>
            <stop stop-color="#6462AA" offset="51.2019231%"></stop>
            <stop stop-color="#4CA7DA" offset="100%"></stop>
        </linearGradient>
    </defs>
    <g id="Page-1" stroke="none" stroke-width="1" fill="none" fill-rule="evenodd">
        <g id="Group-19" fill-rule="nonzero">
            <path d="M6.94907321e-15,2.39731537 C0.10391198,2.38631292 0.113691932,2.29462588 0.140586797,2.22372123 C0.728606357,0.709051307 1.70293399,0.0305671999 3.32762836,0.00489482825 C3.39242054,0.00367233436 3.45721271,0.00489482825 3.52322738,0.00489482825 C17.8312958,0.00489482825 32.1405868,0.00856230991 46.4486553,2.42152497e-06 C47.8459658,-0.00121764119 48.9547677,0.458440061 49.6259169,1.74205864 C49.8716381,2.2114963 49.9572127,2.72249874 49.9572127,3.24939361 C49.9572127,16.4352127 49.9596577,29.6210317 49.9547677,42.8080733 C49.9535452,44.661374 48.7420538,45.9266552 46.8899756,46.0366797 C46.403423,46.0660195 45.9144254,46.0476821 45.4266504,46.0476821 C40.3215159,46.0476821 35.2151589,46.0489046 30.1100244,46.0464596 C29.8826406,46.0464596 29.6528117,46.0440146 29.4303178,46.0061173 C28.99511,45.9315452 28.6894866,45.5586846 28.6723716,45.1185868 C28.6540342,44.6540391 28.9425428,44.2493936 29.3948655,44.1552616 C29.6308068,44.1063618 29.8777506,44.0965819 30.1198044,44.0965819 C35.5501222,44.0929144 40.9816626,44.0941369 46.4119804,44.0941369 C47.6479218,44.0941369 48.00489,43.7359462 48.00489,42.4987824 C48.00489,32.2885134 48.0012225,22.077022 48.0158924,11.866753 C48.0171149,11.4058728 47.9217604,11.2824009 47.4437653,11.2836234 C32.4682152,11.2982934 17.492665,11.2982934 2.51833741,11.2836234 C2.04400978,11.2836234 1.94132029,11.3985379 1.94254279,11.864308 C1.95721271,22.0916919 1.95354523,32.3178533 1.95354523,42.5452371 C1.95354523,43.7127188 2.33129584,44.0941369 3.49511002,44.0941369 C9.36430318,44.0953594 15.2347188,44.0941369 21.103912,44.0965819 C21.3459658,44.0965819 21.594132,44.1075843 21.8288509,44.1601516 C22.2432763,44.2518386 22.5464548,44.6772665 22.5354523,45.0990269 C22.5244499,45.5232322 22.2041565,45.9278777 21.7872861,46.0048948 C21.5660147,46.0452371 21.3349633,46.0476821 21.1075795,46.0489046 C15.2860636,46.0513496 9.46577017,46.0501271 3.64425428,46.0501271 C1.63202934,46.0501271 0.83007335,45.5048948 0.0733496333,43.6271442 C0.0635696822,43.6026943 0.0256723716,43.5892469 0.00122249389,43.5709095 C6.94907321e-15,29.8459706 6.94907321e-15,16.1222542 6.94907321e-15,2.39731537 Z M24.9327628,9.34352564 C32.4608802,9.34352564 39.9877751,9.33985815 47.5158924,9.35331937 C47.9242054,9.35452808 48.0195599,9.25550608 48.0148459,8.85208309 C47.99022,7.08068945 48.0036675,5.30807331 48.0036675,3.53545718 C48.0036675,2.33741317 47.6295844,1.96088505 46.4364303,1.96088505 C43.1515892,1.95966255 39.8679707,1.96088505 36.5831296,1.96088505 C25.5757946,1.96088505 14.5684597,1.96088505 3.56112469,1.96088505 C2.31784841,1.96088505 1.95110024,2.32152075 1.95110024,3.54279214 C1.95110024,5.31540828 1.96699267,7.08680192 1.93987099,8.85941806 C1.93398533,9.27506598 2.05012225,9.35452808 2.44621027,9.35331937 C9.94254279,9.33985815 17.4376528,9.34352564 24.9327628,9.34352564 Z" id="Shape" fill="url(#linearGradient-1)"></path>
            <path d="M9.58924205,24.9853349 C9.58924205,23.4083178 9.58679707,21.8325232 9.59046455,20.2555061 C9.59168704,19.279956 9.93276284,18.9278777 10.9022005,18.9352127 C12.0061125,18.9437701 13.1136919,18.869198 14.2151589,18.978 C15.5794621,19.1136968 16.5464548,19.8484156 17.0782396,21.0880244 C17.6136919,22.3374132 17.4352078,23.5452371 16.5867971,24.6100293 C16.3496333,24.9070953 16.3459658,25.0550171 16.5855746,25.3545281 C17.4352078,26.4193203 17.6161369,27.6271442 17.0794621,28.876533 C16.5391198,30.1344792 15.5550122,30.869198 14.1687042,30.9926699 C13.0171149,31.0941369 11.8618582,31.0342347 10.7090465,31.0268997 C9.94132029,31.0232322 9.59535452,30.6271442 9.59168704,29.8105183 C9.58435208,28.2029388 9.58924205,26.5941369 9.58924205,24.9853349 Z M11.5440098,22.4559951 C11.5440098,22.8777555 11.5513447,23.2982934 11.5415648,23.7200538 C11.5366748,23.9242102 11.6051345,24.0134523 11.8190709,24.0097848 C12.5158924,24.0000049 13.2139364,24.0268997 13.908313,23.9914474 C14.7909535,23.9462151 15.408313,23.2958484 15.4156479,22.4645525 C15.4242054,21.6124743 14.7982885,20.9486601 13.891198,20.9034278 C13.2127139,20.869198 12.5305623,20.8985379 11.8508557,20.8863129 C11.6222494,20.8826454 11.5330073,20.9596626 11.5403423,21.1943814 C11.5537897,21.6136968 11.5440098,22.0342347 11.5440098,22.4559951 Z M12.8875306,25.9926699 C12.8875306,25.9816674 12.8875306,25.9718875 12.8875306,25.960885 C12.5476773,25.960885 12.2066015,25.9743325 11.8667482,25.9572176 C11.606357,25.9437701 11.5354523,26.0489046 11.5391198,26.2970709 C11.5513447,27.1234767 11.5464548,27.9498826 11.5415648,28.775066 C11.5403423,28.96333 11.5721271,29.0868019 11.8007335,29.0819119 C12.5611247,29.0660195 13.3251834,29.0978044 14.0831296,29.0403472 C14.8569682,28.980445 15.4229829,28.2836234 15.4156479,27.5061173 C15.408313,26.7481711 14.8496333,26.0843569 14.101467,26.0012273 C13.700489,25.9572176 13.292176,25.9926699 12.8875306,25.9926699 Z" id="Shape" fill="url(#linearGradient-2)"></path>
            <path d="M24.9767726,38.6381467 C29.6271394,38.6381467 34.2775061,38.6369242 38.9278729,38.6405916 C39.1540342,38.6405916 39.3850856,38.6491491 39.606357,38.6919364 C40.0464548,38.777511 40.3655257,39.1992714 40.3547993,39.6418141 C40.3422983,40.0733545 40.0354523,40.460885 39.6100244,40.5464596 C39.4046455,40.5880244 39.190709,40.5978044 38.9804401,40.5978044 C29.6479218,40.6002494 20.3141809,40.5941369 10.9816626,40.6075865 C9.88386308,40.6088068 9.61858191,40.0990269 9.61109981,39.5965819 C9.60146699,38.960885 10.0794621,38.6393692 10.9779951,38.6393692 C15.6430318,38.6381467 20.3105134,38.6381467 24.9767726,38.6381467 Z" id="Path" fill="url(#linearGradient-3)"></path>
            <path d="M40.3655257,30.0048948 C40.3300733,30.7530611 40.4107579,31.6625965 40.3154034,32.572132 C40.1308068,34.3288557 38.6638142,35.6699315 36.8606357,35.7066063 C35.1002445,35.7420586 33.5672372,34.4070953 33.3435208,32.6442591 C33.3337408,32.5635745 33.3154034,32.4841124 33.306846,32.4034278 C33.2383863,31.7762885 33.6051345,31.2836234 34.1845966,31.2224987 C34.7114914,31.166264 35.1589242,31.5427921 35.2237164,32.1454816 C35.294621,32.8068508 35.5537897,33.3313007 36.1797066,33.6173643 C37.1210269,34.0476821 38.2090465,33.475555 38.3618582,32.4449926 C38.4303178,31.9828899 38.3777506,31.5036723 38.4180929,31.0354572 C38.4498778,30.6589291 38.2982885,30.6882689 38.0342298,30.7909584 C36.997555,31.1919364 36.0012225,31.0733545 35.0440098,30.5330122 C33.7347188,29.7958484 33.0281174,28.1625965 33.3850856,26.6943814 C33.7616137,25.1479266 35.103912,24.0513496 36.7224939,23.9694425 C38.1601467,23.8960929 39.6283619,24.8985379 40.1234719,26.2689535 C40.3031785,26.7665085 40.3557457,27.2787335 40.3630807,27.7970709 C40.3740831,28.480445 40.3655257,29.1625965 40.3655257,30.0048948 Z M36.8459658,29.0733545 C37.7139364,29.0611295 38.4229829,28.3361907 38.405868,27.478 C38.3887531,26.6161418 37.6564792,25.9046503 36.801956,25.9180978 C35.9474328,25.9315452 35.2237164,26.673599 35.2383863,27.5207872 C35.2518337,28.378978 35.9828851,29.0843569 36.8459658,29.0733545 Z" id="Shape" fill="url(#linearGradient-4)"></path>
            <path d="M28.2775061,31.0146748 C26.3716381,31.1173643 24.7665037,29.6100293 24.6442543,27.6002494 C24.5305623,25.7249437 26.106357,24.0562396 28.0757946,23.96822 C29.9645477,23.8838679 31.6100244,25.4523276 31.6992665,27.4229877 C31.7823961,29.2958484 30.2457213,30.9083178 28.2775061,31.0146748 Z M28.091687,29.067242 C28.9608802,29.1075843 29.6968215,28.4425476 29.7457213,27.572132 C29.7933985,26.7261662 29.1002445,25.965775 28.2396088,25.9193203 C27.3850856,25.8728655 26.6430318,26.5525721 26.5929095,27.4242102 C26.5440098,28.2934034 27.2114914,29.0256772 28.091687,29.067242 Z" id="Shape" fill="url(#linearGradient-5)"></path>
            <path d="M19.200489,24.0085623 C19.200489,22.6430366 19.1870416,21.277511 19.2066015,19.9119853 C19.2151589,19.3435256 19.591687,18.980445 20.1100244,18.9547726 C20.6356968,18.9291002 21.0110024,19.2420586 21.1112469,19.8056283 C21.1418093,19.980445 21.1466993,20.1601516 21.1466993,20.3386357 C21.1491443,22.6956039 21.1748166,25.0537946 21.1344743,27.4107628 C21.1173594,28.378978 21.5268949,28.9902249 22.5158924,29.1161418 C23.099022,29.1907139 23.4425428,29.6442591 23.3814181,30.1491491 C23.3129584,30.7053838 22.891198,31.0379022 22.2848411,31.0122298 C20.6283619,30.9449926 19.2860636,29.6650415 19.2237164,28.0061173 C19.1735941,26.6748215 19.2139364,25.3410806 19.2139364,24.0073398 C19.2090465,24.0085623 19.205379,24.0085623 19.200489,24.0085623 Z" id="Path" fill="url(#linearGradient-6)"></path>
            <path d="M26.6234719,45.0586846 C26.6356968,45.5660195 26.1992665,46.0171198 25.6809291,46.0330122 C25.1528117,46.0476821 24.7090465,45.6405916 24.6845966,45.1185868 C24.6601467,44.5868019 25.1100244,44.1161418 25.6454768,44.1136866 C26.1601467,44.1112518 26.6112469,44.5476821 26.6234719,45.0586846 Z" id="Path" fill="#4786A5"></path>
            <path d="M33.9621027,6.62836671 C30.908313,6.62836671 27.8533007,6.6295892 24.799511,6.62714422 C24.0452323,6.62592172 23.6638142,6.35575057 23.5831296,5.78484593 C23.5122249,5.28484593 23.8007335,4.84597062 24.2958435,4.73594617 C24.4987775,4.6907139 24.7139364,4.67604397 24.9229829,4.67604397 C30.9339853,4.67359898 36.9449878,4.67359898 42.9559902,4.67604397 C43.1650367,4.67604397 43.3789731,4.6907139 43.5831296,4.73594617 C44.0452323,4.83741317 44.3264059,5.22005375 44.3117359,5.69193639 C44.297066,6.13325669 43.997555,6.50611732 43.5611247,6.58680192 C43.3557457,6.62469923 43.1405868,6.62714422 42.9303178,6.62714422 C39.9400978,6.6295892 36.9511002,6.62836671 33.9621027,6.62836671 Z" id="Path" fill="#6365AC"></path>
            <path d="M17.1821516,5.63936916 C17.190709,6.1699315 16.7738386,6.60391683 16.2420538,6.61736427 C15.7017115,6.6308117 15.2273839,6.17482148 15.2347188,5.64792661 C15.2420538,5.13570167 15.6919315,4.69315889 16.2114914,4.6907139 C16.7359413,4.68704642 17.1735941,5.11369678 17.1821516,5.63936916 Z" id="Path" fill="#6365AC"></path>
            <path d="M7.5195599,5.64792661 C7.52322738,6.17482148 7.099022,6.60758431 6.56845966,6.61736427 C6.02444988,6.62714422 5.55745721,6.1699315 5.56968215,5.64059165 C5.58190709,5.12592172 6.03422983,4.68826891 6.55256724,4.6907037 C7.07823961,4.69193639 7.51589242,5.12469923 7.5195599,5.64792661 Z" id="Path" fill="#6365AC"></path>
            <path d="M10.4229829,5.62103175 C10.4400978,5.08924691 10.8765281,4.67726647 11.4070905,4.69193639 C11.9254279,4.70660632 12.3716381,5.15892906 12.3655257,5.66626402 C12.3594132,6.19438138 11.8801956,6.63814666 11.3386308,6.61491928 C10.8031785,6.59169189 10.4046455,6.16015155 10.4229829,5.62103175 Z" id="Path" fill="#6364AB"></path>
        </g>
    </g>
</svg>