<svg xmlns="http://www.w3.org/2000/svg" width="50" height="46" viewBox="0 0 50 46">
    <defs>
        <linearGradient id="ddgbline9a" x1="408.124%" x2="-364.133%" y1="328.662%" y2="-247.613%">
            <stop offset="0%" stop-color="#6462AA"/>
            <stop offset="33.452%" stop-color="#20B69E"/>
            <stop offset="51.202%" stop-color="#6462AA"/>
            <stop offset="100%" stop-color="#4CA7DA"/>
        </linearGradient>
    </defs>
    <g fill="none" fill-rule="evenodd">
        <g fill="url(#ddgbline9a)" fill-rule="nonzero" transform="translate(-40.000000, -174.000000)">
            <path d="M50.01 174c2.827 0 5.127 2.3 5.127 5.127v2.93c0 1.526-.671 2.897-1.733 3.837.779.297 1.385.946 1.623 1.752 4.152-.32 7.434-3.798 7.434-8.03 0-.405.328-.733.732-.733.405 0 .733.328.733.732 0 5.004-3.88 9.119-8.79 9.494v9.06c0 1.394-.559 2.659-1.464 3.584v15.616l2.429.81c.383.127.591.542.463.926-.102.307-.388.5-.695.5-.077 0-.155-.011-.231-.037l-2.93-.977c-.3-.1-.501-.38-.501-.695v-15.095c-.666.318-1.411.496-2.197.496s-1.531-.178-2.197-.496v15.095c0 .316-.202.596-.501.695l-2.93.977c-.077.026-.155.038-.232.038-.306 0-.592-.194-.694-.501-.128-.384.08-.799.463-.927l2.429-.81v-15.615c-.754-.77-1.266-1.775-1.418-2.894-2.774-.339-4.93-2.707-4.93-5.572 0-2.88 2.179-5.258 4.974-5.577.224-.836.842-1.511 1.641-1.816-1.061-.94-1.732-2.311-1.732-3.837v-2.93c0-2.827 2.3-5.127 5.127-5.127zm36.328 10.889c1.211 0 2.197.985 2.197 2.197 0 .592-.172 1.145-.467 1.613.273.106.467.371.467.682v9.521h.733c.404 0 .732.328.732.733v19.238c0 .404-.328.732-.732.732-.405 0-.733-.328-.733-.732v-10.146l-5.43-5.43H64.96l-5.43 5.43v10.146c0 .404-.327.732-.732.732-.405 0-.733-.328-.733-.732v-19.238c0-.405.328-.733.733-.733h.732v-6.079c0-1.24.838-2.288 1.978-2.608v-.834c0-.404.327-.733.732-.733.405 0 .733.329.733.733v.834c1.14.32 1.977 1.368 1.977 2.608v6.08h1.465v-6.08c0-1.24.838-2.288 1.978-2.608v-.834c0-.404.327-.733.732-.733.405 0 .732.329.732.733v.834c1.14.32 1.978 1.368 1.978 2.608v6.08H73.3v-9.522c0-.311.194-.576.467-.682-.296-.468-.467-1.02-.467-1.613 0-1.212.985-2.197 2.197-2.197.288 0 .568.055.83.162.262-.107.543-.162.83-.162.562 0 1.076.212 1.465.56.39-.348.903-.56 1.465-.56.288 0 .568.055.83.162.262-.107.542-.162.83-.162.562 0 1.076.212 1.465.56.389-.348.902-.56 1.465-.56.287 0 .568.055.83.162.262-.107.542-.162.83-.162zM62.89 203.297h-3.359v3.359l3.36-3.36zm25.645 0h-3.359l3.36 3.359v-3.36zm-34.937-4.395h-7.177c.34 1.67 1.82 2.93 3.589 2.93 1.768 0 3.248-1.26 3.588-2.93zm34.937 1.465H59.531v1.465h29.004v-1.465zm-26.294-8.789c-.686 0-1.245.559-1.245 1.245v6.08h2.49v-6.08c0-.686-.558-1.245-1.245-1.245zm6.885 0c-.687 0-1.245.559-1.245 1.245v6.08h2.49v-6.08c0-.686-.558-1.245-1.245-1.245zm12.622 5.03c-.148 0-.292.044-.414.128-.25.173-.581.173-.832 0-.122-.084-.266-.129-.414-.129-.404 0-.733.329-.733.733 0 .861.702 1.562 1.563 1.562s1.562-.7 1.562-1.562c0-.404-.328-.733-.732-.733zm5.322-6.495H74.766v8.79h3.56c-.276-.457-.435-.992-.435-1.563 0-1.212.985-2.197 2.197-2.197.288 0 .568.055.83.162.262-.107.542-.162.83-.162 1.212 0 2.197.985 2.197 2.197 0 .571-.159 1.106-.435 1.562h3.56v-8.789zm-36.328-2.93h-1.465v5.128c0 1.768-1.26 3.248-2.93 3.588v1.538h7.325V195.9c-1.67-.34-2.93-1.82-2.93-3.588v-5.127zm-5.86 2.02c-1.94.347-3.417 2.046-3.417 4.084 0 2.039 1.478 3.737 3.418 4.085zm7.57-2.02h-.245v5.128c0 .954.612 1.768 1.465 2.07v-5.977c0-.673-.548-1.22-1.22-1.22zm-4.64 0h-.244c-.673 0-1.22.548-1.22 1.221v5.978c.852-.303 1.465-1.117 1.465-2.071v-5.127zm29.346-.83c-.148 0-.292.045-.414.13-.25.172-.581.172-.832 0-.122-.085-.266-.13-.414-.13-.404 0-.732.329-.732.733 0 .861.7 1.562 1.562 1.562.861 0 1.563-.7 1.563-1.562 0-.404-.329-.732-.733-.732zm4.59 0c-.148 0-.292.045-.414.13-.25.172-.581.172-.832 0-.122-.085-.266-.13-.414-.13-.404 0-.733.329-.733.733 0 .861.702 1.562 1.563 1.562s1.562-.7 1.562-1.562c0-.404-.328-.732-.732-.732zm4.59 0c-.149 0-.292.045-.414.13-.251.172-.581.172-.832 0-.122-.085-.266-.13-.414-.13-.404 0-.733.329-.733.733 0 .861.701 1.562 1.563 1.562.861 0 1.562-.7 1.562-1.562 0-.404-.328-.732-.732-.732zM50.01 179.86c-.49 0-.946.244-1.219.652-.135.203-.364.325-.608.325h-1.835v1.22c0 2.02 1.642 3.663 3.662 3.663s3.662-1.643 3.662-3.662v-1.221h-1.835c-.245 0-.473-.122-.609-.325-.273-.408-.728-.652-1.218-.652zm0-4.394c-2.02 0-3.662 1.642-3.662 3.662v.244h1.478c.552-.618 1.343-.976 2.184-.976.84 0 1.631.358 2.183.976h1.479v-.244c0-2.02-1.643-3.662-3.662-3.662z"/>
        </g>
    </g>
</svg>
