<svg xmlns="http://www.w3.org/2000/svg" width="50" height="50" viewBox="0 0 50 50">
    <defs>
        <linearGradient id="kg9tvz4upa" x1="408.124%" x2="-364.133%" y1="384.948%" y2="-307.726%">
            <stop offset="0%" stop-color="#6462AA"/>
            <stop offset="33.452%" stop-color="#20B69E"/>
            <stop offset="51.202%" stop-color="#6462AA"/>
            <stop offset="100%" stop-color="#4CA7DA"/>
        </linearGradient>
    </defs>
    <g fill="none" fill-rule="evenodd">
        <g fill="url(#kg9tvz4upa)" fill-rule="nonzero" transform="translate(-40.000000, -224.000000)">
            <g>
                <g>
                    <path d="M47.075 43.717l-2.72-.777v-.411c1.46-1.022 2.42-2.713 2.42-4.626V36.29c0-2.946-2.27-5.37-5.153-5.62l-1.759-3.227c.57-1.045 1.027-2.15 1.364-3.298l3.128-.97v-7.64l-3.128-.971c-.337-1.147-.796-2.253-1.365-3.298l1.526-2.897-5.402-5.401-2.897 1.524c-1.044-.568-2.149-1.026-3.298-1.365L28.82 0H21.18l-.97 3.127c-1.15.339-2.254.797-3.298 1.365l-2.898-1.524-5.401 5.4 1.526 2.898c-.57 1.045-1.028 2.151-1.366 3.298l-3.128.972v7.639l3.128.97c.337 1.148.795 2.253 1.364 3.298l-1.759 3.228c-2.882.25-5.152 2.673-5.152 5.62v1.612c0 1.913.959 3.604 2.42 4.626v.41l-2.722.778C1.203 44.21 0 45.804 0 47.595V50h17.742v-2.405c0-1.791-1.203-3.385-2.925-3.878l-2.72-.777v-.411c1.46-1.022 2.42-2.713 2.42-4.626V36.29c0-.273-.027-.54-.065-.802l2.46-1.27c1.045.57 2.15 1.026 3.298 1.364l.97 3.128h7.64l.971-3.128c1.148-.338 2.252-.795 3.298-1.365l2.44 1.281.016.007c-.036.257-.061.518-.061.785v1.613c0 1.913.959 3.604 2.42 4.626v.41l-2.722.778c-1.721.493-2.924 2.087-2.924 3.878V50H50v-2.405c0-1.791-1.203-3.385-2.925-3.878zm-7.559-.406c.511.153 1.053.237 1.613.237s1.102-.084 1.613-.237v.237c0 .89-.723 1.613-1.613 1.613s-1.613-.723-1.613-1.613v-.237zm-32.258 0c.511.153 1.053.237 1.613.237s1.102-.084 1.613-.237v.237c0 .89-.723 1.613-1.613 1.613s-1.613-.723-1.613-1.613v-.237zm8.871 4.284v.792H1.613v-.792c0-1.074.722-2.031 1.755-2.327l2.458-.702c.428 1.278 1.624 2.208 3.045 2.208 1.421 0 2.617-.93 3.045-2.208l2.458.702c1.033.296 1.755 1.253 1.755 2.327zm-3.226-9.692c0 2.223-1.809 4.032-4.032 4.032s-4.032-1.809-4.032-4.032V36.29c0-2.223 1.809-4.032 4.032-4.032s4.032 1.81 4.032 4.032v1.613zm21.007-5.076l-.602-.601-.538.318c-1.227.723-2.551 1.272-3.94 1.631l-.604.156v.851l-.594 1.915h-5.264l-.594-1.915v-.851l-.605-.156c-1.388-.359-2.712-.908-3.939-1.631l-.538-.318-.602.6-2.097 1.106c-.723-1.562-2.135-2.738-3.846-3.136l1.377-2.526.605-.607-.318-.538c-.723-1.225-1.272-2.55-1.631-3.94l-.156-.604h-.851l-1.915-.594v-5.264l1.915-.594h.851l.156-.605c.359-1.388.908-2.713 1.631-3.94l.318-.537-.6-.603-.934-1.774 3.72-3.721 1.775.933.602.603.538-.32c1.222-.722 2.547-1.27 3.94-1.63l.604-.156v-.852l.594-1.914h5.264l.594 1.914v.852l.605.156c1.392.36 2.717.909 3.939 1.63l.538.32.602-.603 1.775-.933 3.72 3.721-.933 1.774-.601.603.318.538c.723 1.226 1.272 2.551 1.631 3.94l.156.604h.851l1.915.593v5.264l-1.915.595h-.851l-.156.604c-.359 1.39-.908 2.715-1.631 3.94l-.318.538.605.607 1.377 2.526c-1.711.398-3.123 1.574-3.846 3.135l-2.097-1.104zm3.187 5.076V36.29c0-2.223 1.809-4.032 4.032-4.032s4.032 1.81 4.032 4.032v1.613c0 2.223-1.809 4.032-4.032 4.032s-4.032-1.809-4.032-4.032zm11.29 10.484H33.871v-.792c0-1.074.722-2.031 1.755-2.327l2.458-.702c.428 1.278 1.624 2.208 3.045 2.208 1.421 0 2.617-.93 3.045-2.208l2.458.702c1.033.296 1.755 1.253 1.755 2.327v.792z" transform="translate(20.000000, 204.000000) translate(20.000000, 20.000000)"/>
                </g>
            </g>
        </g>
    </g>
</svg>
