<svg xmlns="http://www.w3.org/2000/svg" width="50" height="47" viewBox="0 0 50 47">
    <defs>
        <linearGradient id="ee2it3izja" x1="408.124%" x2="-364.133%" y1="334.115%" y2="-253.436%">
            <stop offset="0%" stop-color="#6462AA"/>
            <stop offset="33.452%" stop-color="#20B69E"/>
            <stop offset="51.202%" stop-color="#6462AA"/>
            <stop offset="100%" stop-color="#4CA7DA"/>
        </linearGradient>
    </defs>
    <g fill="none" fill-rule="evenodd">
        <g fill="url(#ee2it3izja)" fill-rule="nonzero" transform="translate(-235.000000, -668.000000)">
            <g>
                <g>
                    <path d="M3.592 9.097c.47.264.638.86.374 1.33-1.336 2.379-2.013 4.987-2.013 7.752 0 3.306.832 6.877 2.284 9.797 1.704 3.428 2.203 7.308 1.419 10.971l-.093.406-1.44 5.971c-.107.447-.507.748-.948.748-.076 0-.153-.009-.23-.027-.486-.118-.8-.581-.74-1.066l.02-.113 1.44-5.97c.804-3.337.386-6.906-1.177-10.05C.907 25.664 0 21.775 0 18.178c0-3.06.783-6.071 2.263-8.708.264-.47.86-.638 1.33-.374zM18.75.022c6.192 0 11.943 3.245 15.294 8.545l.202.327 14.328-7.458c.478-.25 1.068-.063 1.317.415.23.445.087.985-.318 1.259l-.098.058-22.725 11.83 22.725 11.829c.479.249.665.838.416 1.317-.174.334-.515.525-.867.525-.114 0-.23-.02-.34-.061l-.11-.05-10.127-5.27 1.739 5.661c.09.296.036.618-.149.867-.16.218-.404.358-.67.39l-.115.006h-4.257v4.038c0 3.279-2.607 5.96-5.858 6.08l-.228.005h-5.164l-.86 4.928c-.083.474-.495.809-.96.809-.057 0-.113-.005-.17-.015-.493-.086-.835-.528-.807-1.017l.013-.113 1.001-5.736c.075-.429.423-.751.845-.802l.117-.007h5.985c2.21 0 4.02-1.743 4.128-3.927l.005-.205v-5.014c0-.501.377-.914.863-.97l.113-.007h3.912l-1.915-6.237-9.9-5.153.509 1.656c.09.296.036.618-.149.867-.16.218-.404.358-.67.39l-.115.006h-1v.917c0 1.545-1.212 2.812-2.735 2.9l-.17.006H20.5v2.407c0 .307-.145.597-.391.782-.171.127-.377.194-.586.194-.061 0-.123-.006-.184-.017l-.09-.022-8.288-2.435c-.378-.111-.649-.436-.695-.82l-.007-.117V14.62c.035-2.03.854-3.92 2.306-5.324 1.451-1.402 3.37-2.157 5.398-2.124 1.999.032 3.872.835 5.276 2.26 1.043 1.06 1.738 2.373 2.027 3.8l.056.306 7.187-3.74c-2.976-4.847-8.169-7.823-13.76-7.823-3.226 0-6.36.878-9.063 2.538-.46.283-1.06.139-1.343-.32-.282-.46-.139-1.062.32-1.344C11.676.999 15.164.022 18.75.022zm-.818 9.103c-3.029-.046-5.54 2.31-5.71 5.3l-.009.22v8.207l6.335 1.861v-2.079c0-.5.377-.913.862-.97l.114-.006h2.26c.488 0 .892-.369.947-.842l.006-.11v-1.894c0-.501.377-.914.863-.97l.114-.007h.654l-.859-2.797c-.028-.093-.043-.19-.043-.287 0-3.053-2.482-5.576-5.534-5.626zM5.745 5.451c.257 0 .509.105.69.286.182.183.287.434.287.692 0 .257-.105.508-.287.69-.181.182-.433.286-.69.286-.258 0-.509-.104-.69-.286-.182-.182-.286-.433-.286-.69 0-.258.104-.51.286-.692.181-.181.432-.286.69-.286z" transform="translate(215.000000, 660.000000) translate(20.000000, 8.000000)"/>
                </g>
            </g>
        </g>
    </g>
</svg>
