<?xml version="1.0" encoding="UTF-8"?>
<svg width="26px" height="26px" viewBox="0 0 26 26" version="1.1" xmlns="http://www.w3.org/2000/svg" xmlns:xlink="http://www.w3.org/1999/xlink">
    <title>Artical</title>
    <defs>
        <linearGradient x1="408.124081%" y1="384.94761%" x2="-364.133121%" y2="-307.725694%" id="linearGradient-1">
            <stop stop-color="#6462AA" offset="0%"></stop>
            <stop stop-color="#20B69E" offset="33.4517045%"></stop>
            <stop stop-color="#6462AA" offset="51.2019231%"></stop>
            <stop stop-color="#4CA7DA" offset="100%"></stop>
        </linearGradient>
        <linearGradient x1="408.124081%" y1="111.274165%" x2="-364.133121%" y2="-15.4411099%" id="linearGradient-2">
            <stop stop-color="#6462AA" offset="0%"></stop>
            <stop stop-color="#20B69E" offset="33.4517045%"></stop>
            <stop stop-color="#6462AA" offset="51.2019231%"></stop>
            <stop stop-color="#4CA7DA" offset="100%"></stop>
        </linearGradient>
        <linearGradient x1="408.124081%" y1="50.7779303%" x2="-364.133121%" y2="49.1691666%" id="linearGradient-3">
            <stop stop-color="#6462AA" offset="0%"></stop>
            <stop stop-color="#20B69E" offset="33.4517045%"></stop>
            <stop stop-color="#6462AA" offset="51.2019231%"></stop>
            <stop stop-color="#4CA7DA" offset="100%"></stop>
        </linearGradient>
        <linearGradient x1="408.124081%" y1="51.488656%" x2="-364.133121%" y2="48.410108%" id="linearGradient-4">
            <stop stop-color="#6462AA" offset="0%"></stop>
            <stop stop-color="#20B69E" offset="33.4517045%"></stop>
            <stop stop-color="#6462AA" offset="51.2019231%"></stop>
            <stop stop-color="#4CA7DA" offset="100%"></stop>
        </linearGradient>
        <linearGradient x1="408.124081%" y1="58.5746588%" x2="-364.133121%" y2="40.8422222%" id="linearGradient-5">
            <stop stop-color="#6462AA" offset="0%"></stop>
            <stop stop-color="#20B69E" offset="33.4517045%"></stop>
            <stop stop-color="#6462AA" offset="51.2019231%"></stop>
            <stop stop-color="#4CA7DA" offset="100%"></stop>
        </linearGradient>
    </defs>
    <g id="Page-1" stroke="none" stroke-width="1" fill="none" fill-rule="evenodd">
        <g id="Artical" fill-rule="nonzero">
            <g id="news-paper">
                <path d="M24.7,0 L5.63331641,0 C4.89663281,0 4.33331641,0.563316406 4.33331641,1.3 L4.33331641,13.8666836 L0.433316406,13.8666836 C0.173316406,13.8666836 0,14.04 0,14.3 L0,23.4 C0,24.83 1.17,26 2.6,26 L23.4,26 C24.83,26 26,24.83 26,23.4 L26,1.3 C26,0.563316406 25.4366836,0 24.7,0 Z M0.866683594,23.4 L0.866683594,14.7333164 L4.33336719,14.7333164 L4.33336719,23.4 C4.33336719,24.3533164 3.55336719,25.1333164 2.60005078,25.1333164 C1.64673437,25.1333164 0.866683594,24.3533164 0.866683594,23.4 Z M25.1333164,23.4 C25.1333164,24.3533164 24.3533164,25.1333164 23.4,25.1333164 L4.55,25.1333164 C4.63338281,25.0313984 4.71036719,24.9232344 4.78059766,24.8102969 C5.02429687,24.4356328 5.17460937,23.9954609 5.19690234,23.5229414 C5.19893359,23.4821133 5.20005078,23.4411328 5.20005078,23.3999492 L5.20005078,14.3 L5.20005078,1.3 C5.20005078,1.04 5.37336719,0.866683594 5.63336719,0.866683594 L24.7,0.866683594 C24.96,0.866683594 25.1333164,1.04 25.1333164,1.3 L25.1333164,23.4 Z" id="Shape" fill="url(#linearGradient-1)"></path>
                <path d="M23.3739121,4.2811245 L6.90721241,4.2811245 C6.64721216,4.2811245 6.47389558,4.4555472 6.47389558,4.7172068 L6.47389558,11.2586968 C6.47389558,11.5203564 6.64721216,11.6947791 6.90721241,11.6947791 L23.3739121,11.6947791 C23.6339123,11.6947791 23.8072289,11.5203564 23.8072289,11.2586968 L23.8072289,4.7172068 C23.8072289,4.4555983 23.6339123,4.2811245 23.3739121,4.2811245 Z M22.9405953,10.8226145 L7.34058002,10.8226145 L7.34058002,5.1533402 L22.9405953,5.1533402 L22.9405953,10.8226145 Z" id="Shape" fill="url(#linearGradient-2)"></path>
                <path d="M23.3739121,2.19277108 L6.90721241,2.19277108 C6.64721216,2.19277108 6.47389558,2.35982957 6.47389558,2.61044177 C6.47389558,2.86105397 6.64721216,3.02811245 6.90721241,3.02811245 L23.3739121,3.02811245 C23.6339123,3.02811245 23.8072289,2.86105397 23.8072289,2.61044177 C23.8072289,2.35982957 23.6339123,2.19277108 23.3739121,2.19277108 Z" id="Path" fill="url(#linearGradient-3)"></path>
                <path d="M6.90460585,16.9156627 L9.48896844,16.9156627 C9.7474047,16.9156627 9.91967871,16.7433886 9.91967871,16.4849524 L9.91967871,13.9005898 C9.91967871,13.6421535 9.7474047,13.4698795 9.48896844,13.4698795 L6.90460585,13.4698795 C6.6461696,13.4698795 6.47389558,13.6421535 6.47389558,13.9005898 L6.47389558,16.4849524 C6.47389558,16.7433886 6.6461696,16.9156627 6.90460585,16.9156627 Z M7.3353666,14.3313001 L9.05825817,14.3313001 L9.05825817,16.0541916 L7.3353666,16.0541916 L7.3353666,14.3313001 L7.3353666,14.3313001 Z" id="Shape" fill="url(#linearGradient-1)"></path>
                <path d="M6.90460585,21.6144578 L9.48896844,21.6144578 C9.7474047,21.6144578 9.91967871,21.4421838 9.91967871,21.1837476 L9.91967871,18.599385 C9.91967871,18.3409487 9.7474047,18.1686747 9.48896844,18.1686747 L6.90460585,18.1686747 C6.6461696,18.1686747 6.47389558,18.3409487 6.47389558,18.599385 L6.47389558,21.1837476 C6.47389558,21.4421333 6.6461696,21.6144578 6.90460585,21.6144578 Z M7.3353666,19.0300952 L9.05825817,19.0300952 L9.05825817,20.7529868 L7.3353666,20.7529868 L7.3353666,19.0300952 L7.3353666,19.0300952 Z" id="Shape" fill="url(#linearGradient-1)"></path>
                <path d="M23.3751715,13.4698795 L11.7091658,13.4698795 C11.4499213,13.4698795 11.2771084,13.636938 11.2771084,13.8875502 C11.2771084,14.1381624 11.4499213,14.3052209 11.7091658,14.3052209 L23.3751715,14.3052209 C23.6344161,14.3052209 23.8072289,14.1381624 23.8072289,13.8875502 C23.8072289,13.6369869 23.6344161,13.4698795 23.3751715,13.4698795 Z" id="Path" fill="url(#linearGradient-4)"></path>
                <path d="M11.7121693,16.497992 L16.0629311,16.497992 C16.3239778,16.497992 16.497992,16.3309335 16.497992,16.0803213 C16.497992,15.8297091 16.3239778,15.6626506 16.0629311,15.6626506 L11.7121693,15.6626506 C11.4511226,15.6626506 11.2771084,15.8297091 11.2771084,16.0803213 C11.2771084,16.3309335 11.4511226,16.497992 11.7121693,16.497992 Z" id="Path" fill="url(#linearGradient-5)"></path>
                <path d="M23.3751715,18.1686747 L11.7091658,18.1686747 C11.4499213,18.1686747 11.2771084,18.3357332 11.2771084,18.5863454 C11.2771084,18.8369576 11.4499213,19.0040161 11.7091658,19.0040161 L23.3751715,19.0040161 C23.6344161,19.0040161 23.8072289,18.8369576 23.8072289,18.5863454 C23.8072289,18.3357332 23.6344161,18.1686747 23.3751715,18.1686747 Z" id="Path" fill="url(#linearGradient-4)"></path>
                <path d="M16.0629311,21.1967871 C16.3239778,21.1967871 16.497992,21.0297287 16.497992,20.7791165 C16.497992,20.5285043 16.3239778,20.3614458 16.0629311,20.3614458 L11.7121693,20.3614458 C11.4511226,20.3614458 11.2771084,20.5285043 11.2771084,20.7791165 C11.2771084,21.0297287 11.4511226,21.1967871 11.7121693,21.1967871 L16.0629311,21.1967871 Z" id="Path" fill="url(#linearGradient-5)"></path>
                <path d="M23.3739121,22.9718876 L6.90721241,22.9718876 C6.64721216,22.9718876 6.47389558,23.138946 6.47389558,23.3895582 C6.47389558,23.6401704 6.64721216,23.8072289 6.90721241,23.8072289 L23.3739121,23.8072289 C23.6339123,23.8072289 23.8072289,23.6401704 23.8072289,23.3895582 C23.8072289,23.138946 23.6339123,22.9718876 23.3739121,22.9718876 Z" id="Path" fill="url(#linearGradient-3)"></path>
            </g>
        </g>
    </g>
</svg>