<svg xmlns="http://www.w3.org/2000/svg" xmlns:xlink="http://www.w3.org/1999/xlink" width="42" height="50" viewBox="0 0 42 50">
    <defs>
        <path id="tzbmi456ha" d="M0.037 0.034L2.068 0.034 2.068 3.863 0.037 3.863z"/>
    </defs>
    <g fill="none" fill-rule="evenodd">
        <g>
            <g>
                <path fill="#000" d="M18.223 23.532c.16-.408.342-.805.603-1.167l-.14-.17c-.128-.156-.268-.306-.385-.471-.523-.735-1.089-1.434-1.696-2.1-.624-.682-1.26-1.354-1.892-2.03-.402-.432-.817-.851-1.26-1.242-1.297-1.145-2.76-2.02-4.358-2.672-1.191-.486-2.42-.792-3.717-.766-.373.008-.74.06-1.09.187-.862.311-1.421.902-1.581 1.814-.089.503-.132 1.018-.155 1.53-.043.94-.012 1.88.074 2.819.066.729.16 1.454.289 2.174.29 1.625.713 3.215 1.285 4.762.5 1.357 1.24 2.57 2.295 3.576.607.579 1.297 1.034 2.103 1.281.436.134.886.219 1.33.327.216.052.438.091.647.165.189.068.214.172.071.318l-.031.034c-.388.409-.702.869-.947 1.376-.41.851-.597 1.758-.654 2.694-.041.661-.008 1.321.093 1.977.144.932.401 1.835.728 2.719.121.327.295.624.516.894.064.08.142.124.24.148.2.047.372-.007.523-.136.126-.108.21-.245.27-.4 2.064-5.332 4.13-10.663 6.196-15.994.213-.55.428-1.098.643-1.647M38.16 15.152c-.065-.49-.217-.94-.538-1.322-.347-.41-.793-.66-1.306-.797-.497-.133-1.003-.133-1.512-.102-.678.042-1.341.162-1.986.366-2.378.754-4.459 2.001-6.213 3.782-.528.536-1.039 1.089-1.555 1.637-.627.666-1.238 1.347-1.813 2.06-.398.495-.744 1.03-1.177 1.515.262.332.457.693.61 1.078.618 1.543 1.235 3.086 1.855 4.628 1.628 4.051 3.256 8.102 4.887 12.151.099.245.215.483.331.72.072.147.17.278.301.38.178.14.362.145.548.018.125-.085.225-.194.281-.334.1-.25.2-.5.287-.755.34-.995.58-2.012.647-3.063.055-.841.003-1.677-.188-2.5-.204-.88-.56-1.688-1.13-2.392-.106-.13-.223-.251-.333-.378-.106-.124-.095-.207.053-.276.119-.055.247-.093.375-.122.341-.077.685-.145 1.027-.217 1.08-.227 2-.75 2.785-1.517 1-.977 1.704-2.146 2.203-3.442.305-.792.546-1.607.768-2.426.332-1.228.586-2.47.74-3.734.082-.656.142-1.314.167-1.974.039-.997.015-1.992-.115-2.984M24.497 35.632c-.145-.369-.406-.628-.797-.738-.222-.063-.447-.093-.677-.093h-.762c-.294 0-.59-.003-.884.001-.09.002-.182.014-.27.032-.124.026-.207.101-.243.227-.043.148-.068.295-.031.45.102.435.223.864.391 1.28.572 1.411 1.356 2.695 2.288 3.892.69.885 1.575 1.488 2.644 1.82.162.05.338.072.508.077.225.006.321-.102.33-.327.005-.176-.033-.343-.097-.505-.8-2.04-1.596-4.079-2.4-6.116M19.501 34.802c-.035-.002-.07 0-.106 0h-.686V34.8c-.209 0-.418-.009-.625.002-.187.01-.377.023-.558.065-.474.11-.826.37-.987.855-.087.26-.196.512-.295.768-.657 1.703-1.315 3.404-1.97 5.107-.077.201-.113.412-.087.628.02.16.1.234.26.245.184.013.365-.004.54-.072.888-.346 1.651-.872 2.248-1.621.795-.997 1.482-2.064 2.027-3.22.277-.589.537-1.186.672-1.827.03-.143.06-.292.05-.437-.02-.365-.132-.469-.483-.492M22.02 32.03c.157 0 .299-.047.43-.129.296-.184.493-.596.348-1-.117-.326-.23-.653-.345-.978l-1.101-3.119c-.058-.165-.135-.318-.272-.434-.463-.39-1.152-.211-1.363.364-.506 1.378-1.004 2.76-1.503 4.14-.027.076-.047.157-.053.237-.045.539.41.931.84.922.498-.012.996-.003 1.494-.003h1.525M15.053 15.796c.065-.01.129-.028.194-.039.195-.032.39-.079.585-.092.54-.037 1.033.123 1.493.397.406.242.752.557 1.053.918.832 1 1.379 2.151 1.78 3.38.024.077.049.156.09.224.09.148.248.15.347.007.039-.057.064-.126.087-.193.076-.216.14-.436.223-.648.338-.865.747-1.693 1.304-2.441.303-.406.644-.776 1.055-1.073.684-.495 1.43-.71 2.27-.492.113.029.23.05.345.058.191.013.307-.078.361-.259.053-.179.008-.337-.117-.463-.077-.077-.175-.147-.276-.183-.161-.057-.331-.1-.501-.118-.432-.047-.836.067-1.223.25-.46.22-.859.524-1.222.876-.99.961-1.708 2.103-2.216 3.38-.093.236-.17.479-.261.739-.02-.054-.033-.081-.041-.11-.15-.504-.347-.988-.585-1.455-.515-1.01-1.154-1.928-1.999-2.692-.36-.326-.752-.605-1.202-.796-.351-.148-.715-.231-1.098-.194-.214.02-.422.062-.611.172-.142.082-.247.195-.286.36-.074.312.136.54.451.487M1.637 10.207l.201-.22c.076-.084.111-.169.107-.256-.004-.087-.047-.169-.13-.244l-.326-.297c-.083-.075-.168-.111-.255-.107-.087.004-.168.048-.243.13l-.202.222.848.772zm2.045.894l-1.442-.749-.201.221 1.16 1.058-.387.427L0 9.495l.607-.668c.185-.203.394-.31.625-.32.232-.01.45.079.653.264l.31.282c.128.117.218.247.271.388.053.141.065.284.036.43l1.583.787-.403.443zM1.851 7.537L3.062 6.437 3.427 6.84 2.642 7.552 3.354 8.337 3.978 7.771 4.343 8.174 3.719 8.74 4.468 9.566 5.252 8.853 5.617 9.256 4.406 10.356zM5.416 6.775c.09-.068.14-.144.153-.23.012-.087-.015-.175-.083-.265l-.28-.374c-.067-.09-.144-.141-.23-.154-.086-.012-.174.015-.264.083l-.24.18.704.94.24-.18zm-1.73-.85l.722-.542c.22-.165.445-.23.674-.196.23.034.427.161.592.382l.267.357c.165.22.231.445.2.675-.032.23-.158.428-.378.593l-.26.195.924 1.236-.46.346-2.28-3.046zM8.45 6.553c.018-.088-.003-.183-.065-.285L7.312 4.49c-.062-.103-.136-.166-.222-.19-.087-.024-.176-.008-.27.049-.092.056-.148.128-.167.215-.02.088.002.183.064.286L7.79 6.628c.062.102.136.165.222.19.087.023.176.007.27-.049.092-.056.148-.128.167-.216m-.59.811c-.232-.056-.42-.202-.562-.438L6.224 5.148c-.142-.236-.184-.47-.125-.703.058-.232.205-.42.44-.562.236-.142.47-.185.703-.13.233.057.42.203.563.439L8.878 5.97c.142.236.184.47.125.702-.058.233-.205.42-.44.563-.237.142-.47.185-.703.129M9.42 4.297l.271-.128c.101-.048.167-.113.196-.195.03-.082.02-.174-.028-.275L9.671 3.3c-.048-.101-.113-.167-.195-.196-.082-.03-.174-.02-.275.028l-.27.128.49 1.037zm1.553 1.605l-1.05-1.241-.27.128.671 1.42-.52.247-1.626-3.441.815-.386c.249-.118.482-.137.7-.058.218.08.386.244.503.493l.18.378c.074.158.108.312.103.462-.005.151-.048.288-.13.41l1.164 1.333-.54.255zM10.451 1.976L12.178 1.353 12.362 1.864 11.77 2.078 12.876 5.147 12.334 5.343 11.228 2.274 10.635 2.488zM13.34 4.393L13.891 4.227 14.055 4.774 13.504 4.94zM14.975 4.46c-.155-.048-.286-.132-.392-.253-.107-.122-.18-.271-.218-.448l-.03-.133.53-.177.03.138c.029.134.084.234.165.298.08.063.178.083.29.058.11-.024.191-.075.243-.153.051-.078.065-.172.04-.282-.026-.12-.086-.228-.179-.323-.093-.094-.263-.216-.51-.366-.334-.201-.57-.378-.71-.53-.138-.15-.23-.329-.275-.534-.062-.28-.034-.519.082-.717.116-.198.306-.326.572-.385.265-.058.492-.02.68.112.19.134.314.34.376.62l.02.095-.528.178-.023-.107c-.031-.141-.082-.243-.15-.306-.07-.063-.154-.083-.254-.062-.099.022-.168.069-.208.14-.04.073-.047.167-.021.284.025.117.085.221.18.314.094.092.264.217.51.375.337.215.574.396.712.542.137.146.228.32.273.522.038.177.035.343-.01.498-.047.155-.13.286-.25.394-.122.109-.27.182-.447.221-.177.039-.343.035-.498-.013M16.815 4.147L16.376.365 16.948.299 17.133 1.892 17.813 1.813 17.628.22 18.2.153 18.639 3.934 18.067 4.001 17.876 2.353 17.196 2.433 17.387 4.08z" transform="translate(-236.000000, -668.000000) translate(236.000000, 668.000000)"/>
                <g transform="translate(-236.000000, -668.000000) translate(236.000000, 668.000000) translate(19.013195, 0.041616)">
                    <mask id="r5yst7ajpb" fill="#fff">
                        <use xlink:href="#tzbmi456ha"/>
                    </mask>
                    <path fill="#000" d="M1.258 2.445L.998.855.791 2.454l.467-.008zM1.343 3l-.62.01-.11.844-.576.01L.605.046l.771-.012.692 3.796-.587.01-.138-.841z" mask="url(#r5yst7ajpb)"/>
                </g>
                <path fill="#000" d="M22.237 1.834l.297.025c.112.009.201-.014.268-.07.066-.057.104-.141.114-.253l.036-.44c.01-.111-.014-.2-.07-.267-.056-.067-.14-.105-.252-.114L22.332.69l-.095 1.144zm.538 2.168L22.49 2.4l-.298-.024-.13 1.566-.574-.048L21.803.1l.899.075c.274.023.486.124.634.302.149.178.212.404.189.679l-.035.417c-.014.173-.061.324-.141.452-.08.128-.186.224-.319.29l.34 1.736-.595-.05zM24.485.377L26.094.668 25.997 1.203 24.955 1.014 24.766 2.058 25.594 2.208 25.498 2.743 24.669 2.593 24.471 3.69 25.513 3.879 25.416 4.414 23.807 4.122zM27.261 2.745c.108.03.2.024.276-.018.076-.043.13-.118.16-.227l.126-.45c.03-.108.025-.2-.018-.276-.043-.076-.118-.13-.226-.16l-.288-.08-.317 1.13.287.081zM26.884.854l.868.244c.265.075.454.213.566.416.112.203.131.438.057.703l-.12.429c-.075.265-.213.455-.415.57-.201.114-.435.134-.7.06l-.313-.088-.418 1.486-.554-.156 1.03-3.664zM29.32 3.396l.279.11c.104.04.197.044.276.009.08-.035.14-.105.182-.21l.16-.41c.042-.104.045-.196.01-.276-.035-.08-.105-.14-.21-.181l-.277-.11-.42 1.068zm-.104 2.232l.184-1.616-.278-.11-.574 1.463-.536-.21 1.39-3.544.84.33c.256.101.43.258.521.471.092.213.087.448-.013.705l-.153.39c-.064.161-.152.292-.265.392-.113.1-.243.162-.389.186l-.171 1.761-.556-.218zM31.892 2.647L33.349 3.389 33.103 3.874 32.159 3.393 31.679 4.338 32.429 4.72 32.183 5.205 31.432 4.822 30.927 5.816 31.871 6.297 31.625 6.782 30.168 6.039zM35.663 4.819L33.088 7.69 32.437 7.275 33.95 3.726 34.445 4.041 33.205 6.797 35.178 4.509zM36.287 5.275L37.577 6.281 37.243 6.71 36.407 6.058 35.756 6.895 36.42 7.413 36.087 7.842 35.422 7.324 34.738 8.204 35.574 8.855 35.24 9.284 33.95 8.278zM38.205 6.818L38.665 7.257 37.434 9.614 39.196 7.764 39.605 8.154 36.981 10.91 36.541 10.489 37.669 8.201 35.99 9.964 35.581 9.574zM40.144 8.725L41.341 10.119 40.929 10.474 40.519 9.995 38.048 12.123 37.672 11.686 40.143 9.558 39.732 9.08zM11.039 47.04l.815-1.945c.206-.491.685-.691 1.18-.483.497.209.69.69.483 1.182l-.172.411-.521-.219.172-.41c.086-.207.014-.384-.166-.46-.18-.076-.359-.003-.445.202l-.815 1.946c-.087.206-.014.383.166.46.18.075.358.002.445-.203l.21-.502.52.219-.21.502c-.205.49-.684.69-1.18.483-.496-.209-.688-.69-.482-1.182M14.618 48.318l.573-1.996c.066-.23-.027-.399-.23-.457-.204-.059-.372.034-.438.264l-.573 1.997c-.066.23.027.398.23.457.204.058.372-.035.438-.265m-1.222-.351l.573-1.997c.152-.528.609-.781 1.141-.628.533.153.786.61.634 1.139l-.573 1.996c-.151.528-.608.781-1.14.628-.533-.153-.786-.61-.635-1.138M18.995 46.133L18.463 49.902 17.893 49.821 18.257 47.237 17.361 49.746 16.963 49.69 16.794 47.03 16.43 49.615 15.871 49.536 16.402 45.767 17.209 45.881 17.365 48.357 18.177 46.017zM22.079 46.112L22.148 49.918 21.572 49.929 21.525 47.319 21.034 49.939 20.633 49.946 20.047 47.346 20.095 49.956 19.53 49.966 19.461 46.16 20.275 46.145 20.819 48.566 21.253 46.127zM22.562 46.035L24.179 45.792 24.26 46.329 23.212 46.487 23.37 47.536 24.203 47.41 24.283 47.948 23.451 48.074 23.617 49.176 24.664 49.018 24.745 49.556 23.128 49.799zM24.542 45.719L25.155 45.552 26.534 47.825 25.863 45.359 26.408 45.21 27.408 48.883 26.821 49.043 25.447 46.893 26.087 49.244 25.542 49.392zM26.721 45.102L28.425 44.416 28.628 44.921 28.043 45.156 29.259 48.183 28.725 48.399 27.509 45.371 26.924 45.607zM29.8 47.323L30.319 47.074 30.565 47.59 30.045 47.838z" transform="translate(-236.000000, -668.000000) translate(236.000000, 668.000000)"/>
            </g>
        </g>
    </g>
</svg>
