<?xml version="1.0" encoding="UTF-8"?>
<svg width="26px" height="26px" viewBox="0 0 26 26" version="1.1" xmlns="http://www.w3.org/2000/svg" xmlns:xlink="http://www.w3.org/1999/xlink">
    <title>Activities</title>
    <defs>
        <linearGradient x1="408.124081%" y1="384.94761%" x2="-364.133121%" y2="-307.725694%" id="linearGradient-1">
            <stop stop-color="#6462AA" offset="0%"></stop>
            <stop stop-color="#20B69E" offset="33.4517045%"></stop>
            <stop stop-color="#6462AA" offset="51.2019231%"></stop>
            <stop stop-color="#4CA7DA" offset="100%"></stop>
        </linearGradient>
    </defs>
    <g id="Page-1" stroke="none" stroke-width="1" fill="none" fill-rule="evenodd">
        <g id="Activities" transform="translate(-0.000194, -0.000078)" fill="url(#linearGradient-1)" fill-rule="nonzero">
            <g id="tasks" transform="translate(0.000000, 0.000000)">
                <path d="M19.0825777,1.51090954 C23.3382589,3.76397537 26.0001936,8.18477661 26.0001936,13.000078 C26.0001936,18.2580064 22.8327413,22.9981585 17.9750431,25.0102664 C13.1173448,27.0223742 7.52590499,25.9102003 3.80793558,22.1923361 C-0.62350959,17.7603459 -1.26267967,10.7978001 2.28777429,5.63306191 C2.37141702,5.50633316 2.51703138,5.43471871 2.66846696,5.44583384 C2.81990254,5.45694897 2.95349992,5.54905711 3.01774257,5.68664041 C3.08198521,5.82422371 3.06683622,5.98578694 2.9781372,6.10902965 C-0.583131812,11.2889137 0.389718796,18.3291949 5.22225958,22.349193 C10.0548004,26.3691912 17.1545445,26.0441797 21.5995888,21.5994732 C26.0229594,17.1747681 26.3677059,10.1159876 22.3965582,5.28129949 C18.4254105,0.44661143 11.4341297,-0.586455185 6.23442752,2.89310223 L6.89805655,3.68253771 L4.01604042,4.19362642 L5.01410494,1.44213449 L5.6918872,2.24834417 C9.67442784,-0.458406258 14.8268966,-0.742156287 19.0825777,1.51090954 Z M13.0001936,2.51620707 C18.7810001,2.51620707 23.4840646,7.21927159 23.4840646,13.000078 C23.4840646,18.7808845 18.7810001,23.483949 13.0001936,23.483949 C7.2193872,23.483949 2.51632268,18.7808845 2.51632268,13.000078 C2.51632268,7.21927159 7.2193872,2.51620707 13.0001936,2.51620707 Z M13.0001936,3.35491675 C7.68183074,3.35491675 3.35503236,7.68171513 3.35503236,13.000078 C3.35503236,18.3184409 7.68183074,22.6452393 13.0001936,22.6452393 C18.3185566,22.6452393 22.6453549,18.3184409 22.6453549,13.000078 C22.6453549,7.68171513 18.3185566,3.35491675 13.0001936,3.35491675 Z M13.0001936,20.96782 C13.2317969,20.96782 13.4195485,21.1555715 13.4195485,21.3871748 L13.4195485,21.3871748 L13.4195485,21.8065297 C13.4195485,22.0381329 13.2317969,22.2258845 13.0001936,22.2258845 C12.7685904,22.2258845 12.5808388,22.0381329 12.5808388,21.8065297 L12.5808388,21.8065297 L12.5808388,21.3871748 C12.5808388,21.1555715 12.7685904,20.96782 13.0001936,20.96782 Z M7.09066314,18.5117344 L7.17820072,18.5255085 C7.32293327,18.5642894 7.43598226,18.6773384 7.47476323,18.822071 C7.5135442,18.9668035 7.47216539,19.1212313 7.36621381,19.2271829 L7.36621381,19.2271829 L7.0696251,19.5237192 C6.99106286,19.6024899 6.88434002,19.6466921 6.77308881,19.6465381 C6.60347086,19.6465381 6.45055185,19.5443713 6.38564103,19.3876651 C6.32073022,19.2309589 6.35661143,19.0505815 6.47655252,18.9306466 L6.47655252,18.9306466 L6.77308881,18.6340579 C6.87904038,18.5281063 7.03346818,18.4867275 7.17820072,18.5255085 Z M18.8221866,18.5255084 C18.9669191,18.4867275 19.1213469,18.5281063 19.2272985,18.6340579 L19.2272985,18.6340579 L19.5238348,18.9306466 C19.6876072,19.0944191 19.6876072,19.3599467 19.5238348,19.5237191 C19.3600623,19.6874916 19.0945347,19.6874916 18.9307622,19.5237192 L18.9307622,19.5237192 L18.6341735,19.2271829 C18.5282219,19.1212313 18.4868431,18.9668035 18.5256241,18.822071 C18.564405,18.6773384 18.677454,18.5642894 18.8221866,18.5255084 Z M18.0070021,8.15198009 C18.1182385,8.15198009 18.2249176,8.19617514 18.3035646,8.27484013 L18.3035646,8.27484013 L19.1931735,9.164449 C19.2718385,9.24309604 19.3160335,9.3497751 19.3160335,9.4610115 C19.3160335,9.57224791 19.2718385,9.67892697 19.1931735,9.757574 L19.1931735,9.757574 L10.9902783,17.9604167 C10.9116334,18.0390657 10.8049656,18.0832506 10.693742,18.0832506 C10.5825185,18.0832506 10.4758507,18.0390657 10.3972057,17.9604167 L10.3972057,17.9604167 L6.80721381,14.3704772 C6.72854881,14.2918302 6.68435377,14.1851511 6.68435377,14.0739147 C6.68435377,13.9626783 6.72854881,13.8559993 6.80721381,13.7773522 L6.80721381,13.7773522 L7.69682268,12.8877434 C7.77546972,12.8090784 7.88214877,12.7648833 7.99338518,12.7648833 C8.10462159,12.7648833 8.21130064,12.8090784 8.28994768,12.8877434 L8.28994768,12.8877434 L10.693742,15.2916426 L17.7104396,8.27484013 C17.7890867,8.19617514 17.8957657,8.15198009 18.0070021,8.15198009 Z M18.0070283,9.164449 L10.9902783,16.1812514 C10.9116334,16.2599004 10.8049656,16.3040853 10.693742,16.3040853 C10.5825185,16.3040853 10.4758507,16.2599004 10.3972057,16.1812514 L10.3972057,16.1812514 L7.99335897,13.7773522 L7.69682268,14.0738885 L10.693742,17.0708079 L18.3035646,9.4609853 L18.0070283,9.164449 Z M21.8066453,12.5807232 C22.0382485,12.5807232 22.2260001,12.7684748 22.2260001,13.000078 C22.2260001,13.2316813 22.0382485,13.4194329 21.8066453,13.4194329 L21.8066453,13.4194329 L21.3872904,13.4194329 C21.1556871,13.4194329 20.9679356,13.2316813 20.9679356,13.000078 C20.9679356,12.7684748 21.1556871,12.5807232 21.3872904,12.5807232 L21.3872904,12.5807232 Z M4.61309687,12.5807232 C4.84470016,12.5807232 5.03245171,12.7684748 5.03245171,13.000078 C5.03245171,13.2316813 4.84470016,13.4194329 4.61309687,13.4194329 L4.61309687,13.4194329 L4.19374204,13.4194329 C3.96213875,13.4194329 3.7743872,13.2316813 3.7743872,13.000078 C3.7743872,12.7684748 3.96213875,12.5807232 4.19374204,12.5807232 L4.19374204,12.5807232 Z M6.66270905,6.36419683 C6.80864661,6.32566208 6.96403396,6.36852826 7.06957268,6.47643691 L7.06957268,6.47643691 L7.36616139,6.7729732 C7.47317822,6.87868913 7.5153738,7.03362669 7.47674082,7.17900878 C7.43810783,7.32439086 7.32456525,7.43794348 7.17918658,7.47658931 C7.03380791,7.51523515 6.87886661,7.47305326 6.77314123,7.36604578 L6.77314123,7.36604578 L6.47660494,7.06950949 C6.36867763,6.96398985 6.32578398,6.80861007 6.36429293,6.6626657 C6.40280187,6.51672134 6.51677149,6.40273157 6.66270905,6.36419683 Z M19.2494561,6.35071322 L19.3376782,6.36419683 C19.4836158,6.40273157 19.5975854,6.51672134 19.6360944,6.6626657 C19.6746033,6.80861007 19.6317097,6.96398985 19.5237824,7.06950949 L19.5237824,7.06950949 L19.2272461,7.36604578 C19.1486966,7.44480363 19.0419952,7.48900472 18.9307622,7.48886466 C18.7611442,7.48886466 18.6082252,7.38669791 18.5433144,7.22999171 C18.4784036,7.0732855 18.5142848,6.89290811 18.6342259,6.7729732 L18.6342259,6.7729732 L18.9308146,6.47643691 C19.0363533,6.36852826 19.1917407,6.32566208 19.3376782,6.36419683 Z M13.0001936,3.77427159 C13.2317969,3.77427159 13.4195485,3.96202314 13.4195485,4.19362642 L13.4195485,4.19362642 L13.4195485,4.61298126 C13.4195485,4.84458455 13.2317969,5.0323361 13.0001936,5.0323361 C12.7685904,5.0323361 12.5808388,4.84458455 12.5808388,4.61298126 L12.5808388,4.61298126 L12.5808388,4.19362642 C12.5808388,3.96202314 12.7685904,3.77427159 13.0001936,3.77427159 Z" id="Combined-Shape"></path>
            </g>
        </g>
    </g>
</svg>