<?xml version="1.0" encoding="UTF-8"?>
<svg width="28px" height="26px" viewBox="0 0 28 26" version="1.1" xmlns="http://www.w3.org/2000/svg" xmlns:xlink="http://www.w3.org/1999/xlink">
    <title>Group 25</title>
    <defs>
        <linearGradient x1="408.124081%" y1="339.329832%" x2="-364.133121%" y2="-259.005683%" id="linearGradient-1">
            <stop stop-color="#6462AA" offset="0%"></stop>
            <stop stop-color="#20B69E" offset="33.4517045%"></stop>
            <stop stop-color="#6462AA" offset="51.2019231%"></stop>
            <stop stop-color="#4CA7DA" offset="100%"></stop>
        </linearGradient>
        <linearGradient x1="209.166258%" y1="384.94761%" x2="-134.059165%" y2="-307.725694%" id="linearGradient-2">
            <stop stop-color="#6462AA" offset="0%"></stop>
            <stop stop-color="#20B69E" offset="33.4517045%"></stop>
            <stop stop-color="#6462AA" offset="51.2019231%"></stop>
            <stop stop-color="#4CA7DA" offset="100%"></stop>
        </linearGradient>
        <linearGradient x1="408.124081%" y1="51.907854%" x2="-364.133121%" y2="47.9624026%" id="linearGradient-3">
            <stop stop-color="#6462AA" offset="0%"></stop>
            <stop stop-color="#20B69E" offset="33.4517045%"></stop>
            <stop stop-color="#6462AA" offset="51.2019231%"></stop>
            <stop stop-color="#4CA7DA" offset="100%"></stop>
        </linearGradient>
        <linearGradient x1="178.924669%" y1="384.94761%" x2="-99.0879237%" y2="-307.725694%" id="linearGradient-4">
            <stop stop-color="#6462AA" offset="0%"></stop>
            <stop stop-color="#20B69E" offset="33.4517045%"></stop>
            <stop stop-color="#6462AA" offset="51.2019231%"></stop>
            <stop stop-color="#4CA7DA" offset="100%"></stop>
        </linearGradient>
        <linearGradient x1="408.124081%" y1="384.94761%" x2="-364.133121%" y2="-307.725694%" id="linearGradient-5">
            <stop stop-color="#6462AA" offset="0%"></stop>
            <stop stop-color="#20B69E" offset="33.4517045%"></stop>
            <stop stop-color="#6462AA" offset="51.2019231%"></stop>
            <stop stop-color="#4CA7DA" offset="100%"></stop>
        </linearGradient>
        <linearGradient x1="89.7915645%" y1="384.94761%" x2="3.98520873%" y2="-307.725694%" id="linearGradient-6">
            <stop stop-color="#6462AA" offset="0%"></stop>
            <stop stop-color="#20B69E" offset="33.4517045%"></stop>
            <stop stop-color="#6462AA" offset="51.2019231%"></stop>
            <stop stop-color="#4CA7DA" offset="100%"></stop>
        </linearGradient>
        <linearGradient x1="408.124081%" y1="54.1351557%" x2="-364.133121%" y2="45.5836334%" id="linearGradient-7">
            <stop stop-color="#6462AA" offset="0%"></stop>
            <stop stop-color="#20B69E" offset="33.4517045%"></stop>
            <stop stop-color="#6462AA" offset="51.2019231%"></stop>
            <stop stop-color="#4CA7DA" offset="100%"></stop>
        </linearGradient>
    </defs>
    <g id="Page-1" stroke="none" stroke-width="1" fill="none" fill-rule="evenodd">
        <g id="Group-25" fill-rule="nonzero">
            <g id="Group-19">
                <path d="M0,1.35343489 C0.0581871775,1.34722332 0.0636636177,1.29546023 0.0787238284,1.25543011 C0.407994797,0.400303936 0.953585156,0.0172571016 1.86335879,0.00276343756 C1.89964021,0.00207326308 1.93592162,0.00276343756 1.97288759,0.00276343756 C9.98491966,0.00276343756 17.9976363,0.00483396099 26.0096683,1.36710241e-06 C26.7921147,-0.000687434826 27.4130061,0.258818168 27.7888269,0.983501369 C27.9264224,1.24852837 27.9743413,1.5370213 27.9743413,1.8344865 C27.9743413,9.2787084 27.9757104,16.7229303 27.9729722,24.1678424 C27.9722876,25.2141469 27.2938936,25.9284775 26.2567927,25.9905932 C25.9843398,26.0071574 25.7105178,25.9968047 25.4373803,25.9968047 C22.5786785,25.9968047 19.7192922,25.9974949 16.8605904,25.9961146 C16.7332631,25.9961146 16.6045668,25.9947342 16.4799778,25.9733388 C16.2362762,25.9312382 16.0651374,25.720735 16.0555537,25.4722721 C16.0452853,25.2100058 16.2068403,24.9815581 16.4601257,24.9284147 C16.5922448,24.9008077 16.7305249,24.8952863 16.8660668,24.8952863 C19.9068602,24.8932158 22.9483382,24.8939059 25.9891317,24.8939059 C26.6812168,24.8939059 26.8811069,24.6916848 26.8811069,23.9932282 C26.8811069,18.228891 26.8790532,12.4638636 26.8872679,6.69952638 C26.8879524,6.43933061 26.8345571,6.36962298 26.5668961,6.37031316 C18.181097,6.37859525 9.79529791,6.37859525 1.41018336,6.37031316 C1.14457601,6.37031316 1.08707339,6.43518956 1.08775794,6.69814603 C1.0959726,12.4721457 1.09391894,18.2454552 1.09391894,24.0194549 C1.09391894,24.6785715 1.30544644,24.8939059 1.95714283,24.8939059 C5.24369152,24.8945961 8.53092477,24.8939059 11.8174735,24.8952863 C11.9530154,24.8952863 12.09198,24.9014979 12.2234146,24.9311754 C12.4554788,24.9829384 12.6252484,25.2231192 12.6190874,25.4612294 C12.6129264,25.7007199 12.433573,25.9291676 12.2001397,25.9726486 C12.0762353,25.9954244 11.9468544,25.9968047 11.8195271,25.9974949 C8.55967608,25.9988753 5.30050959,25.9981851 2.04065854,25.9981851 C0.913880964,25.9981851 0.464812865,25.6903673 0.0410733017,24.6302593 C0.0355968615,24.6164558 0.0143756556,24.6088639 0.000684555029,24.5985113 C0,16.8499224 0,9.10202374 0,1.35343489 Z M13.9614998,5.27500626 C18.1769897,5.27500626 22.391795,5.27293574 26.6072849,5.28053544 C26.8359263,5.28121783 26.8893215,5.2253137 26.8866818,4.99755612 C26.8728922,3.99749331 26.8804223,2.99674032 26.8804223,1.99598733 C26.8804223,1.31961634 26.6709485,1.1070426 26.0028228,1.1070426 C24.1634234,1.10635243 22.3247086,1.1070426 20.4853092,1.1070426 C14.3215758,1.1070426 8.15784228,1.1070426 1.9941088,1.1070426 C1.29791634,1.1070426 1.09254983,1.31064407 1.09254983,2.00012837 C1.09254983,3.00088136 1.10144904,4.00094418 1.08626182,5.00169717 C1.08296606,5.23635649 1.14799878,5.28121783 1.36979461,5.28053544 C5.56748605,5.27293574 9.76449294,5.27500626 13.9614998,5.27500626 Z" id="Shape" fill="url(#linearGradient-1)"></path>
                <path d="M5.59588047,13.9877353 C5.59588047,13.0894055 5.59443533,12.1917721 5.59660304,11.2934423 C5.59732561,10.7377313 5.79892268,10.537174 6.37192081,10.5413523 C7.02440164,10.5462269 7.67905019,10.5037478 8.33008589,10.5657256 C9.13647417,10.6430237 9.70802715,11.0615479 10.0223452,11.7676769 C10.3388309,12.4793769 10.2333356,13.1674 9.73187196,13.7739467 C9.59169336,13.943167 9.58952565,14.0274289 9.73114939,14.1980419 C10.2333356,14.8045886 10.340276,15.4926117 10.0230677,16.2043117 C9.70369173,16.9208864 9.12202276,17.3394106 8.30262822,17.409745 C7.62196715,17.4675445 6.93913837,17.4334219 6.25775472,17.4292436 C5.80398067,17.4271544 5.59949332,17.2015274 5.59732561,16.7363458 C5.59299019,15.8206065 5.59588047,14.9041709 5.59588047,13.9877353 Z M6.75127013,12.5469257 C6.75127013,12.7871767 6.75560555,13.0267313 6.74982499,13.2669823 C6.74693471,13.3832777 6.78739864,13.4341134 6.91384841,13.4320243 C7.32571339,13.4264532 7.73830094,13.4417736 8.14872078,13.4215786 C8.67041643,13.3958125 9.03531435,13.0253385 9.03964977,12.5518004 C9.04470776,12.0664237 8.67475185,11.6882896 8.1386048,11.6625235 C7.73757837,11.6430249 7.33438423,11.659738 6.93263524,11.6527742 C6.79751462,11.6506851 6.744767,11.694557 6.74910242,11.8282619 C6.75705069,12.0671201 6.75127013,12.3066747 6.75127013,12.5469257 Z M7.54537472,14.5615521 C7.54537472,14.5552847 7.54537472,14.5497136 7.54537472,14.5434462 C7.34450022,14.5434462 7.14290315,14.5511064 6.94202865,14.5413571 C6.78812121,14.5336969 6.74621214,14.5935856 6.74837985,14.7349506 C6.75560555,15.2057033 6.75271527,15.676456 6.74982499,16.1465122 C6.74910242,16.2537547 6.76788924,16.324089 6.90300986,16.3213035 C7.35244849,16.3122506 7.80405483,16.3303565 8.25204831,16.2976266 C8.70943521,16.263504 9.04398519,15.8665676 9.03964977,15.4236701 C9.03531435,14.9919147 8.70509979,14.6137806 8.26288687,14.5664268 C8.02588386,14.5413571 7.78454543,14.5615521 7.54537472,14.5615521 Z" id="Shape" fill="url(#linearGradient-2)"></path>
                <path d="M13.9838372,21.7216497 C16.6223135,21.7216497 19.2607899,21.7208326 21.8992662,21.7232839 C22.0275833,21.7232839 22.1586748,21.7290035 22.2842174,21.7576014 C22.5339155,21.8147974 22.7149466,22.0966916 22.7088608,22.3924763 C22.7017681,22.6809072 22.527673,22.939923 22.2862982,22.997119 C22.1697725,23.0248999 22.0483915,23.0314365 21.9290913,23.0314365 C16.6341048,23.0330707 11.3384248,23.0289853 6.04343833,23.0379747 C5.42058035,23.0387903 5.2700679,22.698066 5.26582278,22.3622441 C5.26035742,21.9373601 5.53155727,21.7224668 6.04135751,21.7224668 C8.68815713,21.7216497 11.336344,21.7216497 13.9838372,21.7216497 Z" id="Path" fill="url(#linearGradient-3)"></path>
                <path d="M22.7070911,16.5501086 C22.6873032,16.9695254 22.7323376,17.4794047 22.6791152,17.989284 C22.576082,18.9740912 21.7572751,19.725889 20.7508251,19.7464487 C19.7682569,19.766323 18.9126038,19.0179518 18.7877357,18.029718 C18.782277,17.9844868 18.7720419,17.9399408 18.7672656,17.8947096 C18.7290546,17.5431396 18.9337563,17.266955 19.257185,17.2326889 C19.5512731,17.2011641 19.8010092,17.4122432 19.8371732,17.7501068 C19.8767488,18.1208658 20.0214047,18.4148687 20.3707623,18.575234 C20.8961633,18.8164672 21.503445,18.4957367 21.5887374,17.9180106 C21.6269484,17.658959 21.5976078,17.3903129 21.620125,17.1278347 C21.6378658,16.9167556 21.5532558,16.9332034 21.4058706,16.9907704 C20.8272471,17.2155559 20.2711408,17.1490797 19.7368693,16.8461675 C19.0060842,16.4329186 18.6116923,15.5173289 18.8109353,14.6942576 C19.0210957,13.8273257 19.7703039,13.2125922 20.6737208,13.1666756 C21.4761515,13.1255563 22.2956406,13.6875201 22.5719879,14.4557656 C22.6722918,14.7346916 22.7016324,15.0218413 22.7057264,15.3124177 C22.7118674,15.6955125 22.7070911,16.077922 22.7070911,16.5501086 Z M20.742637,16.0278935 C21.2270977,16.0210403 21.6228544,15.6146445 21.6133016,15.1335487 C21.6037489,14.650397 21.1950278,14.2515398 20.7180728,14.2590783 C20.2411178,14.2666169 19.8371732,14.6826071 19.8453612,15.157535 C19.8528669,15.6386308 20.2609057,16.0340614 20.742637,16.0278935 Z" id="Shape" fill="url(#linearGradient-4)"></path>
                <path d="M15.8573068,17.1111536 C14.7917703,17.1686417 13.8943684,16.3247988 13.826021,15.1996749 C13.7624579,14.1498331 14.6434564,13.2156518 15.7445336,13.1663763 C16.8005015,13.1191539 17.720458,13.9972159 17.7703516,15.1004396 C17.8168279,16.1489126 16.9577006,17.0516124 15.8573068,17.1111536 Z M15.7534187,16.0209332 C16.239369,16.0435178 16.6508206,15.6712141 16.6781596,15.1839341 C16.7048151,14.7103419 16.3172851,14.2846563 15.8361191,14.2586498 C15.3583706,14.2326433 14.9435016,14.6131596 14.9154792,15.1011239 C14.8881402,15.5877195 15.2613172,15.9976642 15.7534187,16.0209332 Z" id="Shape" fill="url(#linearGradient-5)"></path>
                <path d="M10.8632363,13.4286567 C10.8632363,12.6461158 10.8558468,11.8635749 10.8665952,11.0810341 C10.8712976,10.7552673 11.0782048,10.5471969 11.363038,10.5324849 C11.6519018,10.5177728 11.8581372,10.6971197 11.9132228,11.0200842 C11.9300172,11.1202662 11.9327043,11.2232506 11.9327043,11.3255343 C11.9340479,12.6762405 11.9481552,14.0276472 11.9259866,15.3783533 C11.9165817,15.9332077 12.1416268,16.2834946 12.6850939,16.3556537 C13.0055312,16.3983887 13.1943004,16.6583016 13.1607116,16.9476385 C13.1230921,17.2663996 12.8913292,17.4569556 12.5581282,17.4422436 C11.6478711,17.403712 10.9102607,16.6702113 10.8760001,15.7195328 C10.8484572,14.956608 10.8706259,14.192282 10.8706259,13.4279561 C10.8679388,13.4286567 10.8659234,13.4286567 10.8632363,13.4286567 Z" id="Path" fill="url(#linearGradient-6)"></path>
                <path d="M15.1390703,25.3315839 C15.1473657,25.6794927 14.8512223,25.9888381 14.4995003,25.9997364 C14.141142,26.0097965 13.8400215,25.7306311 13.8234308,25.3726623 C13.8068401,25.0079868 14.1121083,24.685228 14.4754438,24.6835443 C14.8246773,24.6818746 15.130775,24.9811601 15.1390703,25.3315839 Z" id="Path" fill="url(#linearGradient-5)"></path>
                <path d="M19.4289856,3.62004731 C17.6844357,3.62004731 15.9391874,3.62087074 14.1946374,3.61922388 C13.7637378,3.61840045 13.5458436,3.43642284 13.4997506,3.05188191 C13.4592447,2.71509981 13.6240621,2.41948912 13.9069054,2.34538059 C14.0228363,2.31491375 14.1457509,2.30503261 14.2651737,2.30503261 C17.6991016,2.30338575 21.1330296,2.30338575 24.5669575,2.30503261 C24.6863803,2.30503261 24.8085965,2.31491375 24.9252258,2.34538059 C25.1892129,2.41372512 25.34984,2.67145812 25.3414595,2.98930137 C25.3330789,3.28655892 25.1619762,3.5377045 24.912655,3.59205075 C24.7953273,3.61757702 24.6724127,3.61922388 24.5522916,3.61922388 C22.8440573,3.62087074 21.1365215,3.62004731 19.4289856,3.62004731 Z" id="Path" fill="url(#linearGradient-7)"></path>
                <path d="M9.87333025,2.9519121 C9.87911441,3.31437961 9.59734278,3.61086802 9.23789803,3.62005498 C8.87266911,3.62924195 8.55206092,3.31772033 8.55701878,2.95775835 C8.56197663,2.60781851 8.86605863,2.30548386 9.21724028,2.3038135 C9.57172718,2.30130797 9.86754608,2.5927853 9.87333025,2.9519121 Z" id="Path" fill="url(#linearGradient-5)"></path>
                <path d="M4.607579,2.95779995 C4.61005477,3.31778982 4.32369138,3.61346595 3.96553082,3.6201479 C3.59829246,3.62682985 3.28304515,3.31444885 3.2912977,2.95278849 C3.29955025,2.60115105 3.6048945,2.30213395 3.95480251,2.30379747 C4.30966204,2.30463968 4.60510324,2.60031581 4.607579,2.95779995 Z" id="Path" fill="url(#linearGradient-5)"></path>
                <path d="M5.92446252,2.93969321 C5.93605725,2.57587532 6.23172284,2.29402101 6.59115945,2.30405736 C6.9423141,2.31409372 7.24460525,2.62354801 7.24046428,2.97063864 C7.23632331,3.33194743 6.91167089,3.63554718 6.54478053,3.61965629 C6.18203115,3.60376539 5.9120396,3.30852927 5.92446252,2.93969321 Z" id="Path" fill="url(#linearGradient-5)"></path>
            </g>
        </g>
    </g>
</svg>