<?xml version="1.0" encoding="UTF-8"?>
<svg width="55px" height="55px" viewBox="0 0 55 55" version="1.1" xmlns="http://www.w3.org/2000/svg" xmlns:xlink="http://www.w3.org/1999/xlink">
    <title>donation</title>
    <defs>
        <linearGradient x1="408.124081%" y1="128.978952%" x2="-364.133121%" y2="-34.349909%" id="linearGradient-1">
            <stop stop-color="#6462AA" offset="0%"></stop>
            <stop stop-color="#20B69E" offset="33.4517045%"></stop>
            <stop stop-color="#6462AA" offset="51.2019231%"></stop>
            <stop stop-color="#4CA7DA" offset="100%"></stop>
        </linearGradient>
        <linearGradient x1="408.124081%" y1="261.326059%" x2="-364.133121%" y2="-175.69727%" id="linearGradient-2">
            <stop stop-color="#6462AA" offset="0%"></stop>
            <stop stop-color="#20B69E" offset="33.4517045%"></stop>
            <stop stop-color="#6462AA" offset="51.2019231%"></stop>
            <stop stop-color="#4CA7DA" offset="100%"></stop>
        </linearGradient>
    </defs>
    <g id="Page-1" stroke="none" stroke-width="1" fill="none" fill-rule="evenodd">
        <g id="Community_Dashboard" transform="translate(-41.000000, -531.000000)" fill-rule="nonzero">
            <g id="donation" transform="translate(41.000000, 531.000000)">
                <path d="M54.0833333,35.4831354 L49.8752604,35.4831354 C46.0670525,31.8726156 40.0996142,31.8726156 36.2914062,35.4831354 L27.5,35.4831354 C25.7098051,35.4853797 24.1820624,36.7780702 23.8835208,38.5431979 L15.8946562,35.8797083 C14.7606245,35.5017996 13.5140639,35.6920311 12.5443661,36.3909799 C11.5746683,37.0899287 10.9999609,38.2123869 10.9999609,39.4077292 L10.9999609,39.4678854 C10.9941503,40.7447391 11.6445239,41.9351002 12.7221875,42.6199583 L28.634375,52.7454583 C30.7363203,54.0799356 33.2987734,54.4795782 35.7072604,53.8485521 L49.6185937,50.1875 L54.0833333,50.1875 C54.5895944,50.1875 55,49.7770944 55,49.2708333 L55,36.3998021 C55,35.8935411 54.5895944,35.4831354 54.0833333,35.4831354 Z M53.1666667,48.3541667 L49.5,48.3541667 C49.4212591,48.3541795 49.3428485,48.3643467 49.2667083,48.3844167 L35.2401042,52.0757188 C33.3256215,52.5766057 31.2890719,52.2589513 29.6180729,51.1988125 L13.7064583,41.0733125 C13.1589318,40.7237118 12.8292342,40.1174924 12.8332956,39.4678854 L12.8332956,39.4077292 C12.8345764,38.3690502 13.6738368,37.526054 14.7125,37.5201979 C14.9172226,37.5204632 15.1205565,37.5538169 15.3146354,37.6189688 L24.1111979,40.5523021 C24.6776884,41.9239468 26.0159791,42.8181014 27.5,42.8164688 L36.6666667,42.8164688 C37.1729277,42.8164688 37.5833333,42.4060631 37.5833333,41.8998021 C37.5833333,41.3935411 37.1729277,40.9831354 36.6666667,40.9831354 L27.5,40.9831354 C26.6617678,40.984392 25.9297754,40.4161502 25.7231563,39.6037813 L25.7231563,39.6014896 C25.5842792,39.0531562 25.7061089,38.471418 26.0533344,38.0248861 C26.40056,37.5783541 26.9343534,37.3169609 27.5,37.3164688 L36.6666667,37.3164688 C36.9097852,37.3164776 37.1429494,37.2199063 37.3148646,37.048 L37.4076771,36.9551875 C40.5441837,33.8254839 45.6222538,33.8254839 48.7587604,36.9551875 L48.8515729,37.048 C49.0235442,37.2199625 49.2568021,37.3165384 49.5,37.3164688 L53.1666667,37.3164688 L53.1666667,48.3541667 Z" id="Shape" fill="url(#linearGradient-1)"></path>
                <path d="M15.3013437,24.19725 C15.3158958,24.2011458 15.3305625,24.2046979 15.3454583,24.2079063 C15.9487936,24.3376118 16.5641926,24.4029081 17.1813125,24.4026979 C17.2235937,24.4026979 17.265875,24.4014375 17.3080417,24.4008646 C17.942704,25.6620299 19.3264488,26.3609464 20.7181562,26.1232813 L21.8028021,25.9388021 C22.4376636,26.3844295 23.2228581,26.561228 23.9874479,26.4307083 L26.1803437,26.0577396 C26.3677128,26.3959314 26.6015178,26.7062187 26.8749479,26.9795625 L33.4978646,33.6024792 C33.6697743,33.7743977 33.9029392,33.8709813 34.1460625,33.8709813 C34.3891858,33.8709813 34.6223507,33.7743977 34.7942604,33.6024792 L41.4171771,26.9795625 C42.4593022,25.9374374 42.8662984,24.4185069 42.4848541,22.9949375 C42.1034099,21.5713682 40.9914756,20.4594339 39.5679062,20.0779896 C38.1443368,19.6965454 36.6254064,20.1035415 35.5832812,21.1456667 L34.1458333,22.5828854 L33.7581979,22.19525 C35.1080398,21.0181549 35.4543425,19.059097 34.5898437,17.4905729 C34.6134667,17.4357265 34.6316578,17.378697 34.6441562,17.3203021 L35.0249167,15.5519375 C35.3549288,14.0006044 34.9393482,12.3842504 33.902,11.1844792 L30.5076979,7.2771875 C29.5294245,6.1481751 28.0998329,5.51254451 26.60625,5.54251042 L12.753125,5.80605208 L1.32561458,0.109541667 C1.04145917,-0.0321041298 0.704240457,-0.0166205728 0.43426076,0.150468599 C0.164281063,0.317557771 0,0.612455848 0,0.929958333 L0,14.6799583 C0,15.040156 0.210982139,15.3669594 0.539229167,15.5152708 L7.67089583,18.7372396 L9.04807292,20.4265417 C10.6030924,22.3288188 12.7571434,23.6476585 15.1584583,24.1676875 C15.206125,24.1778854 15.2536771,24.1878542 15.3013437,24.19725 Z M19.4263437,24.112 C19.8092288,24.010909 20.1848165,23.8839649 20.5505208,23.7320417 C20.5645236,23.9160415 20.5956727,24.0983323 20.6435625,24.2765417 L20.4114167,24.3160729 C20.0688916,24.3746318 19.7168847,24.3017506 19.4257708,24.112 L19.4263437,24.112 Z M23.6807083,24.6235 C23.2418222,24.6982317 22.8006509,24.5040839 22.5592812,24.1299896 C22.3678008,23.8323589 22.3232943,23.4633856 22.4385104,23.1287604 C22.4983353,22.9419794 22.6111051,22.7765864 22.763125,22.6526667 L23.6423229,22.2140417 L25.9759271,22.4987813 C25.7721272,22.9949484 25.6670785,23.5261083 25.6666667,24.0625 C25.6666667,24.13675 25.6689583,24.2107708 25.6728542,24.2844479 L23.6807083,24.6235 Z M33.4982083,24.5274792 C33.670118,24.6993977 33.9032829,24.7959813 34.1464062,24.7959813 C34.3895296,24.7959813 34.6226945,24.6993977 34.7946042,24.5274792 L36.8800208,22.4420625 C37.7750587,21.5470247 39.2262017,21.5470247 40.1212396,22.4420625 C41.0162774,23.3371004 41.0162774,24.7882434 40.1212396,25.6832813 L34.1458333,31.6577708 L28.1713437,25.6833958 C27.3804849,24.8932595 27.2758582,23.6475235 27.9238437,22.7365417 L30.8127187,23.089 C31.2135527,23.1378954 31.6195929,23.1232006 32.0158437,23.0454583 L33.4982083,24.5274792 Z M10.4695937,19.2681042 L8.9560625,17.4118542 C8.86641222,17.3017943 8.75237127,17.2141157 8.62296875,17.1557604 L1.83333333,14.08825 L1.83333333,2.41117708 L12.1364375,7.547375 C12.2692729,7.61191669 12.4152368,7.64485856 12.5629167,7.643625 L26.640625,7.37561458 C26.66125,7.37561458 26.6816458,7.37492708 26.7021562,7.37492708 C27.6314797,7.3738741 28.5153556,7.77687905 29.1239896,8.47916667 L32.51875,12.3864583 C33.1788336,13.1499435 33.4432379,14.1785122 33.2331771,15.1656771 L33.0582083,15.9786458 C32.7471732,15.8135218 32.4147283,15.6923593 32.0703854,15.618625 L30.4001042,15.2589479 L30.5930625,14.3629062 C30.6996304,13.8679728 30.384798,13.3803597 29.8898646,13.2737917 C29.3949312,13.1672238 28.907318,13.4820562 28.80075,13.9769896 L28.6077917,14.8731458 L27.2952396,14.5904687 L26.2618125,11.9724687 C26.141561,11.6678384 25.8679257,11.4505018 25.5439823,11.4023275 C25.220039,11.3541532 24.8950023,11.48246 24.6913105,11.7389161 C24.4876186,11.9953721 24.4362172,12.3410155 24.5564688,12.6456458 L25.1408437,14.12675 L23.2158437,13.7123021 C22.8937684,13.6383657 22.5568273,13.7435032 22.3339531,13.9874832 C22.1110789,14.2314631 22.0367733,14.5765166 22.1394697,14.8906066 C22.2421662,15.2046966 22.505967,15.4392012 22.8299271,15.5043854 L31.6845833,17.4109375 C32.7084424,17.6309063 33.3779682,18.6175597 33.2041449,19.6502548 C33.0303216,20.6829499 32.074692,21.3960571 31.0352396,21.2687292 L23.5907604,20.3604271 C23.4123502,20.3387406 23.2314996,20.3699382 23.0706667,20.4501458 L22.3651771,20.8019167 C22.363,20.8027188 22.3607083,20.8031771 22.3585313,20.8039792 C22.1655478,20.8737461 21.9814754,20.9660515 21.8101354,21.0789792 L20.2790729,21.8426771 C18.8899446,22.5333181 17.3096514,22.7392346 15.7899271,22.427625 C15.7639167,22.4202917 15.7375625,22.4139896 15.7108646,22.4089479 C15.6548333,22.3982917 15.5988021,22.3868333 15.5439167,22.3745729 C13.5496336,21.9428482 11.7606301,20.8477551 10.4690208,19.2681042 L10.4695937,19.2681042 Z" id="Shape" fill="url(#linearGradient-2)"></path>
            </g>
        </g>
    </g>
</svg>