<svg xmlns="http://www.w3.org/2000/svg" width="50" height="51" viewBox="0 0 50 51">
    <defs>
        <linearGradient id="un53gr2g0a" x1="408.124%" x2="-364.133%" y1="384.948%" y2="-307.726%">
            <stop offset="0%" stop-color="#6462AA"/>
            <stop offset="33.452%" stop-color="#20B69E"/>
            <stop offset="51.202%" stop-color="#6462AA"/>
            <stop offset="100%" stop-color="#4CA7DA"/>
        </linearGradient>
        <linearGradient id="we0g13169b" x1="177.754%" x2="-97.734%" y1="384.948%" y2="-307.726%">
            <stop offset="0%" stop-color="#6462AA"/>
            <stop offset="33.452%" stop-color="#20B69E"/>
            <stop offset="51.202%" stop-color="#6462AA"/>
            <stop offset="100%" stop-color="#4CA7DA"/>
        </linearGradient>
        <linearGradient id="9orew2mjnc" x1="177.772%" x2="-97.756%" y1="384.948%" y2="-307.726%">
            <stop offset="0%" stop-color="#6462AA"/>
            <stop offset="33.452%" stop-color="#20B69E"/>
            <stop offset="51.202%" stop-color="#6462AA"/>
            <stop offset="100%" stop-color="#4CA7DA"/>
        </linearGradient>
        <linearGradient id="l3zgqdyaxd" x1="408.124%" x2="-364.133%" y1="322.649%" y2="-241.191%">
            <stop offset="0%" stop-color="#6462AA"/>
            <stop offset="33.452%" stop-color="#20B69E"/>
            <stop offset="51.202%" stop-color="#6462AA"/>
            <stop offset="100%" stop-color="#4CA7DA"/>
        </linearGradient>
    </defs>
    <g fill="none" fill-rule="evenodd">
        <g fill-rule="nonzero">
            <g>
                <path fill="url(#un53gr2g0a)" d="M30.02 9.1h-2.51V6.59c0-.462-.374-.837-.836-.837h-3.348c-.462 0-.836.375-.836.837V9.1h-2.51c-.463 0-.838.375-.838.837v3.348c0 .462.375.836.837.836h2.51v2.51c0 .463.375.838.837.838h3.348c.462 0 .836-.375.836-.837v-2.51h2.51c.463 0 .838-.375.838-.837V9.937c0-.462-.375-.837-.837-.837zm-.836 3.348h-2.51c-.463 0-.837.374-.837.837v2.51h-1.674v-2.51c0-.463-.374-.837-.837-.837h-2.51v-1.674h2.51c.463 0 .837-.375.837-.837v-2.51h1.674v2.51c0 .462.374.837.837.837h2.51v1.674z" transform="translate(-40.000000, -474.000000) translate(40.000000, 474.000000)"/>
                <path fill="url(#we0g13169b)" d="M48.205 13.586c.017-.147.025-.296.025-.444-.008-1.58-1.115-2.942-2.661-3.272-1.76-.335-3.48.752-3.933 2.486L37.954 22.95c-.055.021-.108.047-.159.075l-7.398 4.335c-2.303 1.353-3.719 3.822-3.723 6.494v7.882c-.463 0-.837.375-.837.837v6.695c0 .462.374.837.837.837h11.715c.462 0 .837-.375.837-.837v-6.695c0-.462-.375-.837-.837-.837v-1.84c.003-.715.307-1.396.837-1.875l5.657-5.03c.619-.54 1.062-1.255 1.272-2.05l3.632-13.581c.077-.284.117-.576.117-.87-.007-1.202-.655-2.31-1.699-2.904zm-4.97-.737c.212-.897 1.08-1.48 1.99-1.339.774.162 1.329.843 1.331 1.632v.017c-1.536.029-2.865 1.075-3.255 2.56l-2.334 7.206c-.354-.168-.733-.275-1.122-.318l3.39-9.758zm-5.683 35.582H27.51V43.41h10.042v5.021zm10.62-31.506l-3.64 13.59c-.127.472-.388.897-.754 1.221l-5.665 5.03c-.886.8-1.394 1.936-1.398 3.13v1.84h-8.368v-7.882c.009-2.077 1.108-3.997 2.896-5.055l7.389-4.326c.385-.224.843-.286 1.273-.171.43.114.797.396 1.02.782.217.386.277.842.167 1.272-.117.428-.4.792-.787 1.012l-4.795 2.77c-.378.24-.5.737-.275 1.125.224.388.715.53 1.112.323l4.795-2.77c.775-.44 1.339-1.173 1.565-2.034.228-.856.108-1.767-.335-2.535l-.05-.075 2.586-7.975c.213-.898 1.08-1.48 1.992-1.34.773.163 1.327.843 1.33 1.633.003.147-.017.293-.058.435z" transform="translate(-40.000000, -474.000000) translate(40.000000, 474.000000)"/>
                <path fill="url(#9orew2mjnc)" d="M23.326 41.736v-7.882c-.004-2.672-1.42-5.141-3.723-6.494l-7.398-4.343c-.05-.025-.109-.042-.159-.067L8.389 12.414c-.441-1.76-2.174-2.873-3.958-2.544-1.546.33-2.653 1.692-2.661 3.272 0 .148.008.297.025.444C.751 14.18.103 15.288.096 16.49c.002.293.038.585.109.87l3.64 13.573c.208.798.651 1.515 1.272 2.059l5.649 5.029c.535.476.842 1.158.845 1.874v1.841c-.462 0-.837.375-.837.837v6.695c0 .462.375.837.837.837h11.715c.463 0 .837-.375.837-.837v-6.695c0-.462-.374-.837-.837-.837zM3.444 13.142c.002-.787.552-1.466 1.322-1.632.936-.136 1.82.474 2.025 1.398l3.364 9.699c-.39.043-.768.15-1.122.318l-2.318-7.163c-.387-1.501-1.722-2.563-3.271-2.603v-.017zm8.435 23.624l-5.657-5.03c-.368-.326-.63-.754-.753-1.23L1.82 16.925c-.035-.143-.051-.289-.05-.435.002-.788.552-1.467 1.322-1.632.93-.14 1.81.463 2.017 1.38l2.569 7.934-.05.075c-.443.768-.563 1.68-.335 2.535.226.861.79 1.595 1.565 2.034l4.795 2.77c.397.208.888.065 1.112-.323.225-.388.103-.884-.275-1.125l-4.795-2.77c-.387-.22-.67-.584-.787-1.012-.11-.43-.05-.886.167-1.272.221-.385.586-.667 1.014-.783.429-.116.886-.057 1.27.163l7.398 4.335c1.788 1.058 2.887 2.978 2.896 5.055v7.882h-8.368v-1.84c-.003-1.196-.515-2.334-1.406-3.13zm10.61 11.665H12.449V43.41H22.49v5.021z" transform="translate(-40.000000, -474.000000) translate(40.000000, 474.000000)"/>
                <path fill="url(#l3zgqdyaxd)" d="M36.838 2.516C35.27.945 33.14.062 30.92.062 28.7.062 26.57.945 25 2.517 23.431.945 21.302.062 19.081.062c-2.22 0-4.35.883-5.919 2.455-3.26 3.268-3.26 8.56 0 11.828L24.41 25.592c.327.326.857.326 1.183 0L36.84 14.345c3.261-3.269 3.261-8.56 0-11.829zM25 23.816L14.345 13.163c-1.913-1.916-2.484-4.795-1.447-7.296 1.037-2.5 3.478-4.13 6.186-4.13 1.776-.006 3.48.702 4.73 1.964l.594.595c.327.326.857.326 1.184 0l.595-.596c1.255-1.257 2.958-1.964 4.734-1.964 1.776 0 3.48.707 4.734 1.964 2.61 2.613 2.61 6.847 0 9.46L25 23.818z" transform="translate(-40.000000, -474.000000) translate(40.000000, 474.000000)"/>
            </g>
        </g>
    </g>
</svg>
