<svg xmlns="http://www.w3.org/2000/svg" width="40" height="44" viewBox="0 0 40 44">
    <defs>
        <linearGradient id="0f405xpo7a" x1="357.69%" x2="-305.812%" y1="384.948%" y2="-307.726%">
            <stop offset="0%" stop-color="#6462AA"/>
            <stop offset="33.452%" stop-color="#20B69E"/>
            <stop offset="51.202%" stop-color="#6462AA"/>
            <stop offset="100%" stop-color="#4CA7DA"/>
        </linearGradient>
    </defs>
    <g fill="none" fill-rule="evenodd">
        <g fill="url(#0f405xpo7a)" fill-rule="nonzero" transform="translate(-38.000000, -831.000000)">
            <g>
                <g>
                    <path d="M19.462 0c.686 0 1.235.55 1.235 1.236 0 .686-.549 1.235-1.235 1.235H8.029c-3.048 0-5.538 2.48-5.538 5.538v27.112c0 3.048 2.481 5.538 5.538 5.538h11.25c.677 0 1.235.55 1.235 1.236 0 .686-.549 1.235-1.235 1.235H8.029C3.617 43.13.02 39.542.02 35.121V8.01C.02 3.597 3.608 0 8.03 0zm10.572 12.842c.485-.485 1.263-.485 1.748 0l7.854 7.854c.485.476.485 1.263-.01 1.757l-7.853 7.854c-.238.247-.558.366-.87.366-.31 0-.631-.128-.87-.366-.484-.485-.484-1.264 0-1.749l5.75-5.748H10.71c-.686 0-1.236-.55-1.236-1.236 0-.686.55-1.235 1.236-1.235h25.071l-5.748-5.749c-.485-.485-.485-1.263 0-1.748z" transform="translate(20.000000, 812.000000) translate(18.000000, 19.000000)"/>
                </g>
            </g>
        </g>
    </g>
</svg>
