<svg xmlns="http://www.w3.org/2000/svg" width="20" height="20" viewBox="0 0 20 20">
    <g fill="none" fill-rule="evenodd">
        <g fill="#333" fill-rule="nonzero">
            <g>
                <g>
                    <g>
                        <path d="M10 2C4.486 2 0 6.486 0 12c0 1.922.539 3.769 1.56 5.36L.045 21.142c-.092.233-.039.498.139.675.118.12.279.183.441.183.079 0 .156-.015.233-.045L4.64 20.44C6.231 21.461 8.078 22 10 22c5.514 0 10-4.486 10-10S15.514 2 10 2zm0 18.75c-1.783 0-3.489-.527-4.933-1.526-.104-.074-.23-.111-.354-.111-.08 0-.158.015-.233.044l-2.733 1.096 1.095-2.733c.078-.195.053-.416-.066-.587C1.778 15.489 1.25 13.783 1.25 12c0-4.825 3.925-8.75 8.75-8.75s8.75 3.925 8.75 8.75-3.925 8.75-8.75 8.75z" transform="translate(-61.000000, -744.000000) translate(20.000000, 730.000000) translate(28.000000, 12.000000) translate(13.000000, 0.000000)"/>
                    </g>
                </g>
            </g>
        </g>
    </g>
</svg>
