<?xml version="1.0" encoding="UTF-8"?>
<svg width="91px" height="43px" viewBox="0 0 91 43" version="1.1" xmlns="http://www.w3.org/2000/svg" xmlns:xlink="http://www.w3.org/1999/xlink">
    <title>Group 135</title>
    <defs>
        <polygon id="path-1" points="0 0 89.9999847 0 89.9999847 42.2313614 0 42.2313614"></polygon>
        <polygon id="path-3" points="0.000686308492 0.25 0.819616118 0.25 0.819616118 0.493825 0.000686308492 0.493825"></polygon>
    </defs>
    <g id="Page-1" stroke="none" stroke-width="1" fill="none" fill-rule="evenodd">
        <g id="Group-135">
            <g id="Group-3" transform="translate(0.000000, 0.038995)">
                <mask id="mask-2" fill="white">
                    <use xlink:href="#path-1"></use>
                </mask>
                <g id="Clip-2"></g>
            </g>
            <path d="M21.089714,4.45683276 C20.4633795,4.10275997 19.8314688,3.76034662 19.1609142,3.49432409 C17.2570321,2.7390338 15.2875997,2.44267331 13.2465338,2.64540728 C10.3849003,2.92967938 7.89083189,4.04040728 5.79369151,6.00777296 C3.7087565,7.96375217 2.39272097,10.3570191 1.95691508,13.1838302 C1.32402946,17.2893198 2.44512998,20.8860442 5.24819324,23.9556369 C5.36272097,24.0810832 5.50754766,24.1818458 5.61770797,24.375338 C4.05066291,23.4017938 2.48049827,21.6701906 1.51561092,19.8784575 C0.683110919,18.3324697 0.200823224,16.6829896 0.0433232236,14.9362175 C0.0396577123,14.8955069 0.0628206239,14.8419281 0.00319757366,14.8189211 L0.00319757366,12.8695321 C0.0939774697,12.652409 0.0756889081,12.4177773 0.107079723,12.1916464 C0.507205373,9.30907279 1.74185875,6.84042894 3.8122487,4.80209272 C5.64098787,3.00162478 7.82844021,1.85209705 10.3580329,1.40728336 C14.3210745,0.710446274 17.849831,1.68465338 20.9428206,4.2517201 C21.007435,4.30537695 21.0660052,4.36628683 21.127344,4.42380416 C21.1147877,4.43483969 21.1022314,4.44583622 21.089714,4.45683276" id="Fill-4" fill="#EC1D25"></path>
            <g id="Group-8" transform="translate(32.131716, 0.000000)">
                <mask id="mask-4" fill="white">
                    <use xlink:href="#path-3"></use>
                </mask>
                <g id="Clip-7"></g>
                <path d="M0.819577123,0.2732 C0.819616118,0.33695 0.819616118,0.4007 0.819616118,0.46445 L0.000686308492,0.46445 C0.000686308492,0.4007 0.000725303293,0.33695 0.000725303293,0.2732 L0.819577123,0.2732 Z" id="Fill-6" fill="#FDFDFD" mask="url(#mask-4)"></path>
            </g>
            <path d="M90.0564155,16.2614597 C90.0252327,16.2525299 89.9938544,16.2436001 89.9624761,16.2349042 C89.9604233,16.1528202 89.9583705,16.0705022 89.9564155,15.9881841 C89.9896511,15.9753159 90.0230822,15.9624476 90.0564155,15.9495403 L90.0564155,16.2614597 Z" id="Fill-9" fill="#8CC53F"></path>
            <path d="M12.8903319,11.573575 C15.1641187,11.9959666 17.2758042,12.8382933 19.2155225,14.1059363 C21.1627279,15.3785316 22.7337114,17.0045368 23.8601153,19.0918115 C23.9621646,18.8019632 24.0479532,18.5459233 24.1420477,18.292964 C24.7565667,16.6413393 25.5410251,15.0804554 26.6363501,13.6902907 C27.4082912,12.7105464 28.3075113,11.8767595 29.4442097,11.3286096 C30.1890104,10.9694285 30.9740537,10.7837353 31.842156,10.7819805 C31.4914757,11.100685 31.1992097,11.4278514 30.9299896,11.7746711 C29.9251326,13.0689866 29.2043137,14.5180334 28.6286724,16.042964 C27.9112461,17.9434146 27.4438934,19.9082847 27.1367314,21.9139822 C26.8742184,23.6284666 26.7263111,25.3521148 26.6640364,27.0852777 C26.6194263,28.3258193 26.6182955,29.565932 26.651948,30.8055767 C26.6945693,32.3752734 26.7998163,33.9423185 26.9556005,35.5049961 C27.1460901,37.4156244 27.387078,39.3200524 27.7115147,41.213211 C27.7191187,41.2574311 27.7164671,41.303406 27.7120217,41.3498098 C27.2934905,39.533432 26.8119437,37.7340949 26.2850069,35.9469242 C25.137273,32.0543072 23.7862201,28.2355074 22.1046473,24.5388003 C20.7308605,21.5187699 19.1610858,18.6095238 17.1574939,15.9521451 C15.9326282,14.3275048 14.5679662,12.8367335 12.9284688,11.6151044 C12.9136508,11.6040689 12.9029662,11.5875351 12.8903319,11.573575" id="Fill-11" fill="#FBB040"></path>
            <path d="M13.8912114,14.1489242 C14.5730745,14.772919 15.1783908,15.4674944 15.7573466,16.1853497 C17.3288761,18.1336859 18.62674,20.2580446 19.7844957,22.4713505 C21.7741274,26.2750204 23.3315017,30.2565845 24.6599376,34.3321261 C25.2206828,36.0524207 25.7349463,37.7862075 26.1836984,39.5391408 C26.194734,39.5821521 26.2010511,39.6263332 26.2135685,39.6905966 C26.1204879,39.6481313 26.097247,39.5717405 26.059812,39.5123124 C24.8168917,37.5415932 23.4331612,35.6774467 21.8500893,33.965302 C19.9912071,31.954886 17.9145,30.2130663 15.5206092,28.8663808 C13.4018267,27.6744658 11.1486291,26.8644658 8.73691768,26.5262249 C7.15318284,26.3040325 5.56781023,26.2811815 3.98879376,26.5879536 C3.95404939,26.5947387 3.91688735,26.5888115 3.84034055,26.5888115 C4.14851646,26.412789 4.4385208,26.2885516 4.72953899,26.1677457 C6.13397574,25.5847734 7.59815251,25.2314025 9.10218198,25.0276547 C10.3463111,24.8591581 11.5963674,24.7871347 12.8500893,24.8090888 C14.0636075,24.830302 15.274708,24.9057569 16.4752409,25.100419 C16.7336594,25.1423384 16.7286681,25.1432353 16.737013,24.8845828 C16.7986248,22.9730966 16.3984211,21.1333219 15.8615017,19.3171391 C15.3531265,17.5975464 14.6976239,15.9333263 13.9284125,14.3137552 C13.9062634,14.2671564 13.8896516,14.217984 13.8704662,14.1699814 C13.8774073,14.1630013 13.8843484,14.1559822 13.8912114,14.1489242" id="Fill-13" fill="#8CC53F"></path>
            <path d="M28.5981941,42.1587881 C28.3660191,40.3851486 28.2083241,38.6209068 28.0870503,36.8538185 C27.9977522,35.552484 27.938792,34.2493167 27.9030338,32.9449016 C27.864039,31.5229562 27.8594376,30.1012058 27.8902045,28.6795724 C27.9222582,27.2001486 28.0057071,25.7232985 28.1474532,24.249607 C28.3227348,22.4268731 28.5877435,20.6192301 29.011617,18.8365828 C29.176604,18.1425533 29.3676395,17.4556989 29.5940043,16.7789441 C29.6097972,16.7317214 29.6280078,16.6853176 29.6759714,16.6410195 C29.6759714,16.7772673 29.6783501,16.9135542 29.6756205,17.049724 C29.6450875,18.5637361 29.6877088,20.0748627 29.8734801,21.5790481 C30.0800355,23.2517691 30.4039653,24.8956339 31.1130078,26.4407249 C31.1211187,26.4584285 31.1276698,26.4768731 31.1364827,26.4941867 C31.2625139,26.7409458 31.2125225,26.725075 31.4451265,26.5830949 C33.6878735,25.2145334 36.0681161,24.1782855 38.6420459,23.6140308 C39.8776352,23.3431339 41.1277305,23.2232249 42.3927998,23.2907639 C42.4002868,23.3237535 42.384182,23.3398583 42.3560667,23.3461365 C40.4749575,23.7656815 38.7963094,24.6203696 37.2493076,25.7462665 C35.0599445,27.339633 33.3669073,29.3713401 32.0330121,31.7138748 C30.6769679,34.0954432 29.7830901,36.6517474 29.1702868,39.3134155 C28.9650572,40.2047587 28.7927002,41.102458 28.6581291,42.0072933 C28.6506811,42.0572457 28.6477565,42.1101226 28.5981941,42.1587881" id="Fill-15" fill="#26AAE0"></path>
            <path d="M32.1324216,0.0724484402 L32.9513514,0.0724484402 C34.7360264,0.144081889 36.4464944,0.535823657 38.0482838,1.32921187 C41.5101252,3.04381326 43.8175646,5.7645195 44.7844406,9.49823267 C45.9191893,13.8803124 44.9126166,17.8136789 41.9565767,21.2433886 C41.6429805,21.6072881 41.2997483,21.9436573 40.9290247,22.2506244 C40.9177942,22.2392379 40.9065637,22.2278514 40.8952942,22.2164649 C41.3082881,21.6667162 41.7137561,21.1122491 42.0529328,20.5120022 C43.08649,18.6828341 43.6546443,16.7224484 43.7191027,14.6199658 C43.9004285,8.7052734 39.9876902,3.42643024 34.2799432,1.97243111 C30.2904632,0.956148614 26.6313081,1.7392422 23.3264597,4.18932452 C23.2903895,4.21603596 23.2516287,4.23912088 23.2141157,4.26388258 C23.1975429,4.25510875 23.1809701,4.24633492 23.1643973,4.23760009 C23.9175819,3.36828899 24.7994493,2.64848397 25.769172,2.03829333 C27.7014034,0.822435442 29.8095403,0.163150347 32.0943627,0.0802084055 C32.1071529,0.0797404679 32.1197483,0.0751390815 32.1324216,0.0724484402" id="Fill-17" fill="#EC1D25"></path>
            <path d="M22.6223735,5.4877188 C24.8958484,5.48783579 26.7150338,7.3072552 26.7054788,9.58899697 C26.6955364,11.9502881 24.7297695,13.6964753 22.5452808,13.6623549 C20.368825,13.6283514 18.4691542,11.8061244 18.5214073,9.4724805 C18.5717886,7.22513215 20.4534047,5.44084705 22.6223735,5.4877188" id="Fill-19" fill="#FBB040"></path>
            <path d="M30.7528264,19.6364909 C30.7506837,17.5495672 32.4269142,15.8672145 34.5097825,15.8657707 C36.6030624,15.8643289 38.2925511,17.5369328 38.2931752,19.6113003 C38.293799,21.7176824 36.6256404,23.4003471 34.5352851,23.4019861 C32.4329974,23.4036616 30.7549731,21.7331633 30.7528264,19.6364909" id="Fill-21" fill="#25AAE0"></path>
            <path d="M10.3678011,23.7227756 C8.28345104,23.7226976 6.59797877,22.0403839 6.59840763,19.9605572 C6.59887565,17.8795217 8.30762782,16.174396 10.3831261,16.1837551 C12.4631867,16.1932695 14.1518566,17.8838891 14.1516616,19.9566967 C14.1514276,22.047325 12.4680221,23.7227756 10.3678011,23.7227756" id="Fill-23" fill="#8CC53F"></path>
            <path d="M50.419669,7.99020234 C49.9063804,7.99020234 49.3930529,7.9890325 48.8797643,7.9912552 C48.7864497,7.99168414 48.7063544,7.98981239 48.7204705,7.86292331 C48.732052,7.7587292 48.6680615,7.63238605 48.8631525,7.60859922 C49.3380312,7.55073094 49.5732088,7.29203943 49.5985555,6.80815295 C49.6145433,6.50356456 49.6062374,6.19768934 49.6064324,5.89236005 C49.6070953,4.85283666 49.6067054,3.81331326 49.6065494,2.77382886 C49.6065494,2.70886352 49.6069393,2.64382019 49.6037418,2.57901083 C49.5785511,2.06845191 49.3640407,1.80656282 48.8648683,1.73586525 C48.6681005,1.70798397 48.7327539,1.59049263 48.7202366,1.48781932 C48.7034688,1.3507136 48.7975633,1.36779333 48.8826499,1.36783232 C49.9027539,1.36826127 50.9228969,1.36736438 51.9430399,1.36997704 C52.002312,1.37013302 52.1086508,1.32610789 52.0986291,1.44894151 C52.0899333,1.55524133 52.1775936,1.70431846 51.9857392,1.74744671 C51.5856525,1.83732972 51.416961,2.12865988 51.4029229,2.50016334 C51.3800329,3.1035299 51.3926282,3.70822227 51.3877539,4.31232972 C51.387091,4.39546664 51.4174289,4.42662348 51.5009558,4.42631153 C52.0792877,4.4242448 52.6575806,4.42475173 53.2358735,4.42584359 C53.3043484,4.42599957 53.3462288,4.41036265 53.34424,4.32944844 C53.3285251,3.68704809 53.381831,3.04320494 53.3155399,2.4022864 C53.2801716,2.06080893 53.1015364,1.82095191 52.7492964,1.74518501 C52.5658258,1.70572227 52.6502106,1.56495104 52.6383951,1.46446144 C52.6224853,1.32950043 52.7322946,1.36962608 52.7993657,1.3694701 C53.8195477,1.36752036 54.8396906,1.36853423 55.8597946,1.36736438 C55.9492877,1.3672474 56.0382348,1.35987738 56.0174116,1.4917188 C56.0026716,1.5847214 56.0781655,1.70299263 55.8890017,1.73305763 C55.3651066,1.81635052 55.1441231,2.06529333 55.1397556,2.60498137 C55.1286031,3.97568761 55.1306308,5.34651083 55.1376889,6.71725607 C55.1403016,7.22648917 55.3752842,7.58348657 55.9033518,7.61643718 C56.089864,7.62805763 56.0009168,7.77892851 56.0160078,7.87236005 C56.0345303,7.98692678 55.9556828,7.9912552 55.8690754,7.99113821 C54.8424593,7.98965641 53.8158042,7.99055329 52.789188,7.98938345 C52.7238328,7.98934445 52.6219783,8.01504203 52.6405009,7.8997344 C52.6564497,7.80033666 52.549526,7.65047964 52.7327626,7.6080143 C53.172117,7.50627686 53.3234168,7.18090425 53.3356612,6.78424913 C53.3549246,6.16115121 53.3407305,5.53703943 53.3458388,4.91339558 C53.3466967,4.81282799 53.3046603,4.79742504 53.2184818,4.79781499 C52.6531742,4.80058362 52.0878666,4.80112955 51.5225979,4.79742504 C51.4253449,4.79676213 51.3852972,4.81832626 51.3864281,4.92571794 C51.3929012,5.54281066 51.3919263,6.15998137 51.3949289,6.77715208 C51.3955139,6.90154549 51.4255789,7.0214935 51.4663674,7.13843891 C51.544279,7.36172314 51.6950719,7.51025433 51.9212808,7.58313562 C52.084279,7.63566161 52.1498293,7.76894584 52.1015147,7.92796664 C52.0724246,8.02373787 51.9968527,7.9882136 51.9401153,7.98856456 C51.4332998,7.99141118 50.9264844,7.99020234 50.419669,7.99020234" id="Fill-25" fill="#15A89E"></path>
            <path d="M51.3892084,28.1007062 L51.3884675,28.1007062 C51.3884675,28.4190598 51.392211,28.7374913 51.3864008,29.0557279 C51.384412,29.1641334 51.414867,29.2062088 51.5286148,29.2014515 C51.729516,29.1929896 51.9304172,29.2011785 52.1311235,29.1727513 C52.555036,29.1128163 52.7631122,28.9183882 52.8383722,28.492721 C52.8964744,28.1638778 52.8906642,27.8347617 52.8451183,27.5043588 C52.8136495,27.2761222 52.7546114,27.0586092 52.6273323,26.8654679 C52.450101,26.5965598 52.1161495,26.4789125 51.8038011,26.5682496 C51.5447587,26.6423397 51.3984112,26.8595797 51.3906122,27.2041768 C51.3838271,27.5028769 51.3892084,27.8018501 51.3892084,28.1007062 M52.8490958,29.5657019 C53.0107292,29.6313302 53.1489268,29.68526 53.2853696,29.7432452 C53.9398583,30.0213951 54.2711192,30.532188 54.361977,31.2235269 C54.3931729,31.4608882 54.3952396,31.7029289 54.4657422,31.935026 C54.512068,32.0875347 54.5817907,32.2137218 54.7635845,32.2211698 C54.9524363,32.2288908 55.0404866,32.1065641 55.0998367,31.9509749 C55.1113791,31.9206759 55.1229216,31.89026 55.1320074,31.8591811 C55.1868731,31.67263 55.3320897,31.5947964 55.5139224,31.6586698 C55.6153089,31.6943111 55.5656685,31.7796317 55.5575966,31.8387088 C55.464438,32.519831 55.0284762,32.9128986 54.3375273,32.9414428 C54.1217691,32.9503726 53.9091304,32.9227253 53.7059675,32.8479333 C53.2191174,32.6686742 53.0537405,32.2657799 52.9952093,31.7980373 C52.9484545,31.42474 52.9201053,31.0491421 52.8747933,30.6756499 C52.8569337,30.5283276 52.8272197,30.3800303 52.7821417,30.2388692 C52.63712,29.7850867 52.3495334,29.5907756 51.8039571,29.5628163 C51.3885455,29.5415641 51.3878046,29.5415641 51.3887405,29.9567808 C51.3899493,30.4959619 51.3821503,31.0354159 51.3977483,31.5741681 C51.4095247,31.9820147 51.5603566,32.3068024 52.0068471,32.4121274 C52.1858722,32.4543588 52.0836278,32.6058146 52.0982899,32.7066161 C52.1160325,32.8288648 52.0090698,32.7906889 51.9481599,32.7908059 C50.9215828,32.7928726 49.8950446,32.7920147 48.8684285,32.7928726 C48.7862275,32.7929506 48.7004389,32.7988778 48.722003,32.6782279 C48.7384978,32.5857712 48.6476399,32.4368111 48.8357119,32.4247617 C49.4004736,32.3885355 49.6078479,31.9701213 49.607224,31.4665035 C49.6055472,30.134714 49.6078089,28.8029246 49.6060932,27.4710962 C49.6053912,26.9129246 49.3578912,26.5780763 48.8546244,26.5383795 C48.6616391,26.5231326 48.7328436,26.3811915 48.7207942,26.2787132 C48.7041824,26.1368891 48.8078696,26.1645754 48.8878089,26.1646534 C50.154711,26.1660572 51.4216911,26.160325 52.6884762,26.1738951 C53.2177136,26.1795884 53.7130256,26.3240641 54.1383419,26.6603553 C55.0054302,27.3458839 54.9344207,28.5925477 53.9951529,29.1778986 C53.7155992,29.3521274 53.409568,29.452461 53.0895767,29.5171924 C53.0166174,29.5319714 52.9436192,29.5466334 52.8490958,29.5657019" id="Fill-27" fill="#15A89E"></path>
            <path d="M51.6988817,16.2556729 C50.7698306,16.2556729 49.8407405,16.2557119 48.9116503,16.2555949 C48.816971,16.2555559 48.7082535,16.2831642 48.7183531,16.1212968 C48.7260351,15.999672 48.6941373,15.8899016 48.8895403,15.8713791 C49.3308445,15.8294597 49.5675429,15.5586798 49.5984268,15.0890654 C49.6137517,14.8561105 49.6062257,14.6215958 49.6063427,14.3877829 C49.6069276,13.2574016 49.6059528,12.1270594 49.6073176,10.9967171 C49.6075126,10.83988 49.5994796,10.6843687 49.5529588,10.5343947 C49.4504805,10.2039528 49.2109744,10.0329216 48.8782318,10.007146 C48.6788904,9.99170407 48.726581,9.86559489 48.719289,9.74981932 C48.7092283,9.59001863 48.8253938,9.63470667 48.9053722,9.63466768 C50.7635524,9.63306889 52.6216937,9.63490165 54.4797959,9.63045624 C54.6189294,9.63010529 54.6705195,9.65498397 54.6679458,9.80881846 C54.6580412,10.3933505 54.6629545,10.9781166 54.6649432,11.5627656 C54.6652162,11.6554952 54.6640074,11.739607 54.5372743,11.7215524 C54.4368627,11.7072023 54.2874346,11.7887015 54.276594,11.5876833 C54.2720706,11.5044684 54.2485568,11.4215264 54.2274216,11.3400663 C53.9800776,10.3863315 53.4534918,10.0003609 52.341516,10.0093297 C52.2637604,10.0099926 52.1856928,10.0165828 52.1084831,10.0261365 C51.6785654,10.0793254 51.4184311,10.3201573 51.4021313,10.7458635 C51.3787734,11.3556252 51.3931235,11.9667907 51.3873523,12.5773323 C51.3863384,12.6797717 51.4383185,12.6881555 51.5200906,12.692172 C52.0607145,12.7189224 52.4495316,12.4706815 52.6372526,11.965036 C52.6844363,11.8379519 52.7362214,11.7045117 52.7420316,11.5720854 C52.7502595,11.3847153 52.8486044,11.379451 52.9933531,11.3771503 C53.1272223,11.3750056 53.1524129,11.4233982 53.151633,11.54475 C53.1467197,12.272315 53.1491763,12.999919 53.1491763,13.727523 C53.1491763,13.9029216 53.1454718,14.0784372 53.1506581,14.2536798 C53.1534268,14.3460975 53.1375169,14.4141044 53.0271616,14.3884458 C52.9321703,14.3662968 52.7774389,14.4745464 52.7598133,14.2698627 C52.746984,14.1206685 52.709315,13.9761928 52.6547223,13.8365134 C52.4582275,13.3338705 52.0398133,13.0560715 51.5046096,13.0704996 C51.4413211,13.0722153 51.3875862,13.0730732 51.3887951,13.1590958 C51.3985828,13.8278176 51.3453159,14.4991911 51.4146096,15.1646373 C51.46425,15.6411538 51.7376425,15.849503 52.2182145,15.8712231 C53.2094233,15.9159502 53.916555,15.4365481 54.2749172,14.4748583 C54.3155888,14.3656339 54.3506062,14.2541477 54.3838297,14.1423886 C54.4372136,13.9625836 54.5235871,13.9157899 54.7060048,13.9536538 C54.7857101,13.9702266 54.771984,14.0189311 54.7701122,14.0681036 C54.7443367,14.7554259 54.7159484,15.4427093 54.6928245,16.1301096 C54.6881062,16.2712708 54.5980282,16.2561798 54.5056105,16.2561018 C53.5700082,16.2553999 52.634445,16.2556729 51.6988817,16.2556729" id="Fill-29" fill="#15A89E"></path>
            <path d="M51.8020776,34.4355715 C52.7313237,34.4355715 53.6605698,34.4380672 54.5898159,34.4328975 C54.7299632,34.4321399 54.7895862,34.4510134 54.7931737,34.6173653 C54.8082647,35.3180238 54.8398115,36.0183705 54.8728401,36.7184831 C54.8793133,36.8557838 54.8483124,36.9130672 54.6992353,36.9196963 C54.5601408,36.9258964 54.5110464,36.8963384 54.4979051,36.7483921 C54.4587933,36.306776 54.3687153,35.8748306 54.1517873,35.4809051 C53.9951841,35.196594 53.8007951,34.9479632 53.4723029,34.8471226 C53.111094,34.7362604 52.8606304,34.8724302 52.7554614,35.2355498 C52.698958,35.4306798 52.6887803,35.6323609 52.6884294,35.8333791 C52.6864016,37.0744276 52.6866746,38.3154762 52.6885464,39.5564857 C52.6887413,39.6793583 52.7017266,39.8024649 52.7144389,39.9249086 C52.7618956,40.3806408 52.9597162,40.6166763 53.4097552,40.6800429 C53.6165836,40.709133 53.5734554,40.8254155 53.5784077,40.9468063 C53.5857777,41.1284831 53.4477361,41.054315 53.3716573,41.0546269 C52.3059684,41.0590724 51.2402795,41.0584484 50.1745516,41.0560308 C50.0975758,41.0558358 49.9749372,41.107075 49.9905351,40.9438037 C50.0009857,40.8345403 49.9371902,40.7088211 50.1386373,40.679224 C50.6127361,40.6096183 50.8231521,40.3799779 50.8502145,39.9025256 C50.8726365,39.5074692 50.8637847,39.1105022 50.8643696,38.714393 C50.8658514,37.7072353 50.8648375,36.7001166 50.8649155,35.6929978 C50.8649545,35.5301555 50.8556347,35.3684831 50.8059554,35.21188 C50.7010984,34.8808141 50.4633471,34.7492067 50.125964,34.837023 C49.8446166,34.9102552 49.6533081,35.1002769 49.4997465,35.3335438 C49.2168003,35.7632665 49.1035984,36.2499996 49.068854,36.7518627 C49.0547769,36.9554935 48.9419649,36.9097916 48.8257214,36.9207101 C48.6558211,36.936659 48.6952838,36.8195576 48.6985984,36.7301815 C48.7251538,36.0168107 48.7570906,35.3036737 48.7793566,34.5901859 C48.783529,34.4571746 48.835977,34.4326859 48.9558471,34.4331928 C49.9045906,34.4374822 50.8533341,34.4355715 51.8020776,34.4355715" id="Fill-31" fill="#15A89E"></path>
            <path d="M51.2644523,19.0774263 C51.2405095,19.0977426 51.2256525,19.1040598 51.222026,19.1143154 C50.9170867,19.9807409 50.6137461,20.8477123 50.3080269,21.7138648 C50.2644697,21.8372054 50.3205052,21.854909 50.4262201,21.8542851 C50.9320217,21.8512825 51.4379012,21.8493718 51.9436638,21.8554159 C52.0819003,21.8570537 52.1049463,21.8237522 52.0631828,21.690039 C51.7936508,20.8255243 51.5326976,19.9583579 51.2644523,19.0774263 M53.5972383,24.5210225 C53.1360468,24.5210225 52.6748553,24.5222704 52.2136638,24.5195407 C52.152013,24.5191898 52.0447773,24.5559229 52.061818,24.4358969 C52.0760901,24.3353293 51.979422,24.2061785 52.1486205,24.1359489 C52.4954402,23.9920581 52.6277106,23.7391378 52.5386464,23.3705589 C52.4550026,23.0245191 52.3441014,22.6851083 52.2477062,22.3420711 C52.2250113,22.2612738 52.1828969,22.2305069 52.0957435,22.2310529 C51.4786508,22.2346014 50.8615191,22.2342114 50.2444653,22.2314818 C50.1602366,22.2311308 50.1159385,22.2573354 50.089851,22.3403553 C49.9946256,22.6431889 49.8781092,22.9400173 49.796766,23.2463215 C49.6627409,23.7511872 49.8499939,24.0313258 50.3613328,24.1270581 C50.4185381,24.1377816 50.4774203,24.1394974 50.5356005,24.1450737 C50.7106482,24.1618804 50.802208,24.3235919 50.7265191,24.4781672 C50.6945433,24.5434055 50.6374159,24.5196967 50.5907392,24.5198137 C49.9151542,24.5215685 49.2395693,24.5211005 48.5640234,24.5208276 C48.5005399,24.5207886 48.4165451,24.5340468 48.4338977,24.4318414 C48.4505095,24.3342764 48.3553232,24.1811828 48.5089237,24.1470624 C49.0435035,24.0282452 49.249513,23.6195407 49.4074419,23.1656802 C50.0059341,21.4460095 50.6057522,19.7267678 51.1925849,18.0031196 C51.2630485,17.7962522 51.3486421,17.7165468 51.5697816,17.73737 C51.8209081,17.7610789 52.0764801,17.752851 52.3290884,17.7391638 C52.4828059,17.7308189 52.5522166,17.775234 52.6010381,17.9286005 C53.1533605,19.6636742 53.7141837,21.3960572 54.2727842,23.1291811 C54.4145693,23.5690425 54.6264281,23.9493977 55.0839931,24.1399263 C55.2306525,24.2009922 55.1546516,24.3474177 55.152039,24.4526256 C55.1494263,24.5601343 55.0433995,24.5188388 54.9808518,24.5192678 C54.5196993,24.5225433 54.0584298,24.5210225 53.5972383,24.5210225" id="Fill-33" fill="#15A89E"></path>
            <path d="M65.9704055,37.085159 C66.9060468,36.1335689 68.3703795,36.1133306 68.8303232,37.1713765 C68.9706655,37.0446434 69.0921343,36.905315 69.2397686,36.7948427 C69.7305182,36.4277457 70.2753536,36.3014805 70.8749376,36.4205706 C71.3888891,36.52262 71.7588328,36.9257483 71.8275026,37.4474597 C71.8862678,37.8939892 71.8526542,38.3427413 71.8576456,38.7904406 C71.8631438,39.2842318 71.8577626,39.778101 71.8592834,40.2718921 C71.8604532,40.6561079 71.9750199,40.775159 72.356818,40.775588 C72.4727106,40.7757439 72.5269913,40.7895091 72.5278574,40.9299294 C72.5288241,41.082984 72.4419827,41.0576763 72.3537374,41.0576763 C71.6779185,41.0577153 71.0020997,41.0559216 70.3263198,41.0595871 C70.2206828,41.060172 70.1622686,41.0544008 70.1629705,40.9188938 C70.1636334,40.7857656 70.2179532,40.7653713 70.3260858,40.7770308 C70.3775199,40.782568 70.4300849,40.7801503 70.481948,40.7774987 C70.7584991,40.7636945 70.8807088,40.66301 70.8914324,40.3875507 C70.909136,39.9336512 70.9079272,39.4788549 70.9083951,39.0244094 C70.9089411,38.5505056 70.9072643,38.0764458 70.8971256,37.602659 C70.8812158,36.8571954 70.3131005,36.7171261 69.8095607,36.867763 C69.439266,36.9785082 69.1711768,37.2288938 68.9489064,37.534886 C68.9078059,37.5914675 68.9078839,37.6547171 68.9079229,37.7202673 C68.9087028,38.5584216 68.9065971,39.3966148 68.9091707,40.2348081 C68.9104965,40.6621131 69.0297816,40.7813982 69.4557998,40.775354 C69.5931005,40.7733653 69.6728059,40.7879493 69.6539324,40.9573037 C69.6436768,41.0492925 69.6104922,41.0590412 69.5349203,41.0588462 C68.8266187,41.0569354 68.1183172,41.0552587 67.4100156,41.0602597 C67.3011031,41.0610689 67.294435,41.0099857 67.3030529,40.9307093 C67.3104619,40.8627023 67.2650719,40.759912 67.4040104,40.7775377 C67.429552,40.7807743 67.4559125,40.7783176 67.481922,40.7779666 C67.8340451,40.7732483 67.9589844,40.6507656 67.9649116,40.2933003 C67.969357,40.0269658 67.9658475,39.7605143 67.9658475,39.4941018 C67.9658475,38.9028237 67.9669783,38.3115455 67.9647166,37.7203063 C67.9643267,37.6235992 67.9574636,37.5252543 67.9388241,37.430575 C67.8532695,36.995549 67.5739107,36.777685 67.13713,36.8165238 C66.6320693,36.8614458 66.2816231,37.1553107 65.9989497,37.5506789 C65.9605789,37.6043358 65.9718094,37.662594 65.9717314,37.7195264 C65.9708735,38.5446954 65.9709905,39.3699034 65.9714584,40.1950724 C65.9714974,40.2599597 65.9731352,40.325159 65.9792574,40.3897344 C66.0026542,40.6382483 66.1111768,40.7502413 66.3590667,40.775315 C66.4427106,40.7837769 66.5282262,40.782685 66.612221,40.7768358 C66.7291274,40.7686469 66.7129055,40.8468315 66.7118917,40.917412 C66.7109168,40.985536 66.7340797,41.060016 66.6149506,41.0594311 C65.8741664,41.0558826 65.1333432,41.0556096 64.3925979,41.0596261 C64.2661378,41.0602597 64.3040017,40.9783219 64.3016231,40.9155793 C64.2990884,40.8485082 64.2769393,40.7616278 64.3976282,40.7779276 C64.4040234,40.7787855 64.4106525,40.7783176 64.4171256,40.7779666 C64.9712028,40.7502023 65.0215841,40.6975984 65.0215841,40.1462899 L65.0215841,37.4563115 C65.0215841,37.4173167 65.022364,37.3783219 65.0214281,37.3393661 C65.0123033,36.9745698 64.9203925,36.8742361 64.5576629,36.8706096 C64.4290191,36.8693228 64.384721,36.8353583 64.3946256,36.7060906 C64.4009038,36.6247474 64.4333085,36.6109432 64.5028752,36.6119571 C64.9123596,36.6180793 65.3202452,36.5916408 65.7261421,36.5387249 C65.8175459,36.5268315 65.8510815,36.5549467 65.8664844,36.6461945 C65.8908951,36.7906313 65.9331655,36.9320654 65.9704055,37.085159" id="Fill-35" fill="#020202"></path>
            <path d="M62.4253843,4.00294497 C63.7579926,3.00775867 64.5515758,3.03610789 65.2968834,4.09836525 C65.6314198,3.71828293 66.027919,3.4372864 66.5339155,3.3419831 C66.830588,3.28610355 67.1297171,3.28758536 67.4217491,3.36931846 C67.9828843,3.52631153 68.307789,3.99924047 68.3100897,4.65934445 C68.3128583,5.45834792 68.3107526,6.25735139 68.3107526,7.05639385 C68.3107526,7.10833492 68.3095438,7.16035399 68.3111036,7.21229506 C68.3219441,7.58602123 68.4294918,7.70320061 68.8067275,7.69793631 C68.9734692,7.69563562 68.9820481,7.76902383 68.9758869,7.89478206 C68.9719874,7.97538432 68.9361512,7.99082626 68.8669744,7.99070927 C68.1588289,7.98942244 67.4506833,7.98790165 66.7425767,7.99207409 C66.635224,7.99269801 66.6269181,7.93931412 66.6333912,7.85980373 C66.6391625,7.78863821 66.6027413,7.69009835 66.7364545,7.70308362 C66.7428886,7.70370754 66.7494398,7.70277166 66.7559129,7.70312262 C67.2722431,7.72940511 67.3654406,7.58442244 67.3622431,7.06887218 C67.3572907,6.26990771 67.3612292,5.47086525 67.3608393,4.67186179 C67.3604493,3.85195711 66.785393,3.50244671 66.0530316,3.87878553 C65.787945,4.01503336 65.5818575,4.2194831 65.4068098,4.45809229 C65.3607179,4.52091291 65.3597431,4.58934879 65.3598211,4.66145017 C65.360562,5.46696577 65.360094,6.27248137 65.3607569,7.07795797 C65.3607959,7.12974307 65.3662552,7.18160615 65.3713245,7.23319627 C65.4088765,7.61620321 65.5015282,7.69622054 65.8869918,7.70663215 C65.9593661,7.70862088 66.0823167,7.63343891 66.1000594,7.78785832 C66.1144094,7.91275867 66.1107439,7.99913215 65.9275464,7.99538865 C65.2586295,7.98166248 64.5892838,7.98833059 63.920172,7.99164515 C63.814886,7.99215208 63.7542101,7.98493804 63.7557309,7.84974307 C63.7571347,7.72382886 63.8007699,7.70203076 63.9141278,7.700276 C64.310549,7.69407582 64.415133,7.59873354 64.4181746,7.20430113 C64.4249207,6.30800563 64.4284302,5.41147617 64.4139242,4.51533666 C64.4046044,3.93934445 64.0054926,3.64395884 63.4426027,3.76492071 C63.0181053,3.85616854 62.7169874,4.12043631 62.4671088,4.45856023 C62.4189112,4.52375953 62.4298687,4.59348224 62.4297907,4.66316594 C62.4290498,5.48813995 62.4290888,6.31315295 62.4294008,7.13812695 C62.4295178,7.59537998 62.5334389,7.69824827 62.9881573,7.7047214 C63.0647431,7.70581326 63.1754883,7.65246837 63.1745134,7.81749437 C63.1737335,7.94578726 63.1520914,7.99531066 63.0077327,7.99363388 C62.3061382,7.98548397 61.6044268,7.98719974 60.9028323,7.99265901 C60.7862379,7.99355589 60.7487639,7.96840425 60.746961,7.84467374 C60.7451373,7.71306629 60.7978583,7.6920091 60.9072387,7.70144584 C60.9778193,7.70752903 61.0498427,7.69992504 61.1210472,7.69559662 C61.3261989,7.68319627 61.4425984,7.57560962 61.4647084,7.36987305 C61.4730143,7.29258536 61.4854536,7.21514168 61.4855706,7.13769801 C61.4870524,6.20880286 61.4865455,5.27986872 61.4863505,4.35097357 C61.4863115,4.31205676 61.4860776,4.27290598 61.4821391,4.23426213 C61.4465758,3.88705243 61.3709649,3.81198744 61.0209476,3.79054029 C60.9253713,3.78469107 60.8519831,3.79354289 60.8572864,3.6510169 C60.8629406,3.49909315 60.9591018,3.55025433 61.0307743,3.54573094 C61.3671824,3.52443977 61.7066321,3.53695711 62.0394138,3.47791898 C62.2344658,3.44333059 62.3438852,3.48216941 62.3547257,3.70135919 C62.3596001,3.80063995 62.3997257,3.89816594 62.4253843,4.00294497" id="Fill-37" fill="#030303"></path>
            <path d="M28.1088718,3.09513432 C31.9614411,1.99310225 35.4424289,2.7922227 38.472325,5.34103986 C41.5626629,7.94070624 42.9453016,11.2829506 42.3875199,15.3418804 C42.3472773,11.5720191 40.8458215,8.47009965 37.9976412,6.04002166 C35.1491101,3.60963172 31.842273,2.60641248 28.1088718,3.09513432" id="Fill-39" fill="#EC1F27"></path>
            <path d="M15.8962461,3.99721274 C12.1067704,3.897776 8.95060919,5.31028466 6.4290104,8.09404549 C3.91162305,10.873049 2.80721231,14.1530186 3.23377643,17.9627327 C3.09694367,17.600471 3.02484229,17.2711599 2.96833882,16.940367 C2.4202279,13.7312119 3.22180503,10.8524597 5.16437002,8.28445711 C6.76210399,6.17230373 8.84797487,4.74942244 11.427169,4.08592591 C12.9079575,3.7050247 14.3993917,3.6704753 15.8962461,3.99721274" id="Fill-41" fill="#EC1F27"></path>
            <path d="M64.0601555,22.1601291 C64.0601555,21.7777071 64.0374216,21.4639939 64.0667847,21.1552331 C64.094081,20.8686603 63.9832968,20.6723215 63.7784961,20.5007444 C63.6790594,20.4174125 63.5829372,20.331 63.4695403,20.2658397 C63.0182535,20.0065243 62.5313644,20.1169965 62.2423349,20.5466412 C62.151555,20.6815243 62.0816373,20.8267409 62.0344146,20.9827591 C61.8383878,21.6300728 61.8431451,22.2869402 61.9474562,22.9468492 C62.0069233,23.3228371 62.1274562,23.676325 62.3818973,23.9709307 C62.8053419,24.4611733 63.5580195,24.3899298 63.8803895,23.8298475 C63.9655932,23.6818232 64.0134788,23.5226075 64.034068,23.353409 C64.0852682,22.9327721 64.0465074,22.5105364 64.0601555,22.1601291 M64.0470923,20.3444922 C64.0470923,19.6873908 64.0586347,19.0574688 64.0427249,18.4282487 C64.0332881,18.0546785 63.9359571,17.9826161 63.5621529,17.9771568 C63.4971876,17.97626 63.4319883,17.9736083 63.3672569,17.9778977 C63.2795966,17.983669 63.2230932,17.9768839 63.2237561,17.8591586 C63.22438,17.7422522 63.2684051,17.7201031 63.3733791,17.720961 C63.8277855,17.7247045 64.2813731,17.7032574 64.7344146,17.6659003 C64.9831625,17.6453891 64.9835914,17.6501854 64.9835914,17.908682 C64.9835914,19.2341932 64.9822266,20.5597045 64.9841373,21.8852158 C64.9850342,22.5216889 64.9850342,23.158357 64.9987604,23.7946352 C65.0071053,24.1816976 65.1024866,24.2603891 65.4986347,24.2737253 C65.5731538,24.27626 65.6716157,24.2335217 65.6696188,24.3828328 C65.6680672,24.4939679 65.6383141,24.53074 65.5271399,24.5218882 C65.1311867,24.4903414 64.7357795,24.5105797 64.3433358,24.5655624 C64.2086477,24.5844359 64.1594363,24.5406837 64.1410698,24.4140286 C64.1255498,24.3071438 64.0882708,24.2034177 64.056919,24.0844055 C63.9356451,24.1905104 63.8307491,24.2948605 63.7135698,24.3827548 C63.126503,24.82324 62.2220966,24.7438466 61.6584268,24.2095009 C61.0238254,23.6079671 60.846906,22.8443319 60.8850819,22.0093752 C60.9126512,21.4071005 61.109068,20.8661256 61.529198,20.4215849 C62.1990897,19.7126205 63.1676815,19.6469922 63.9270663,20.2545702 C63.9611867,20.2818666 63.997023,20.3070572 64.0470923,20.3444922" id="Fill-43" fill="#020202"></path>
            <path d="M58.4971534,13.8409276 C58.4971534,13.5553687 58.4642808,13.2650914 58.5044454,12.9853037 C58.5737392,12.5023921 58.3022184,12.2382413 57.9512262,12.015386 C57.4930373,11.7244068 56.9803726,11.8442769 56.6827643,12.2984883 C56.5862132,12.4458497 56.5144237,12.6047145 56.4668891,12.773601 C56.3079853,13.3379727 56.3048657,13.9124051 56.3710789,14.4887873 C56.4211092,14.9247491 56.5289298,15.3443722 56.8229506,15.6877214 C57.0832409,15.9916859 57.4149697,16.0942032 57.8030459,15.9893462 C58.2051213,15.8807067 58.4845581,15.473094 58.4953596,14.9701001 C58.5034315,14.5938782 58.4969584,14.2173055 58.4971534,13.8409276 M58.4917721,12.0762179 C58.4917721,11.3806677 58.4976603,10.7204857 58.4885355,10.0604597 C58.4854159,9.83300303 58.3942461,9.75049003 58.1667504,9.72112695 C58.0514428,9.70623094 57.9336005,9.7050221 57.8170841,9.70704983 C57.7268111,9.70860962 57.6733882,9.69874393 57.6742851,9.58406023 C57.675143,9.47612262 57.7163995,9.45685919 57.8120927,9.45561135 C58.3179333,9.44894324 58.8244367,9.44282106 59.3270407,9.37976646 C59.4500693,9.36436352 59.4333016,9.43061568 59.4333795,9.50076733 C59.4337305,9.78648224 59.4335355,10.0721971 59.4335355,10.357912 L59.4335355,15.2671625 C59.4335355,15.3125914 59.4325607,15.3580984 59.4336915,15.4035273 C59.4457799,15.9048055 59.5061049,15.9735923 60.0025867,16.0039692 C60.1153986,16.0108713 60.1233146,16.057977 60.1248822,16.1477821 C60.1267071,16.2574354 60.0723873,16.2498315 59.9895624,16.2475698 C59.6003943,16.2368462 59.2105243,16.2337266 58.8245537,16.2949094 C58.6864341,16.3167855 58.6042721,16.2952214 58.5910139,16.1338999 C58.582786,16.0335273 58.5421144,15.9357673 58.5161049,15.8371885 C58.44763,15.8296625 58.4230243,15.8848011 58.3906586,15.9198575 C57.6806412,16.6896538 56.602786,16.4231633 56.100065,15.9327257 C55.4296664,15.278588 55.2680329,14.4615689 55.3540555,13.5735793 C55.4208536,12.8844242 55.7083232,12.2997361 56.2840815,11.8925524 C56.9384922,11.4297621 57.7298137,11.4677431 58.3563432,11.9687093 C58.3913605,11.9967075 58.4265728,12.0244718 58.4917721,12.0762179" id="Fill-45" fill="#030303"></path>
            <path d="M57.1303544,20.5538592 C57.4193839,20.2882266 57.711182,20.0648644 58.0685693,19.9440195 C58.408721,19.8289848 58.7541369,19.8105793 59.1041542,19.8859562 C59.7104064,20.0164328 60.066039,20.4924814 60.0697825,21.1895914 C60.0739939,21.9754536 60.0707574,22.7612769 60.0707574,23.5471391 C60.0707574,23.592607 60.0701334,23.638075 60.0708354,23.6835039 C60.0783224,24.1345568 60.185675,24.2426893 60.6405494,24.2456529 C60.7473562,24.2463549 60.8287773,24.2421434 60.816026,24.3941062 C60.8073692,24.4975204 60.7755494,24.5231399 60.6770875,24.522633 C59.9626248,24.5190455 59.248162,24.5183436 58.5336603,24.5231789 C58.4218622,24.5239198 58.3915633,24.4900334 58.3889116,24.3806919 C58.386026,24.2612899 58.4357834,24.2352803 58.5381447,24.2462379 C58.5829887,24.2510342 58.6291586,24.2484216 58.6743536,24.2448731 C59.0058484,24.2189805 59.1174125,24.1118618 59.1190893,23.7823947 C59.1237296,22.8797041 59.128292,21.9768575 59.1176464,21.0742058 C59.1105104,20.4721651 58.7178718,20.1773254 58.130844,20.3065932 C57.7059567,20.4001417 57.4091672,20.6684649 57.1619792,21.0077197 C57.118695,21.0670698 57.1268059,21.1302803 57.1267669,21.1940368 C57.12626,22.0058306 57.1263769,22.8176633 57.1264549,23.6294961 C57.1264549,23.6554666 57.126338,23.6814762 57.1273518,23.7074077 C57.1436906,24.1335819 57.2563076,24.2446781 57.6850945,24.2456529 C57.7945529,24.2458869 57.8859567,24.2314978 57.8723085,24.3969528 C57.8636127,24.5032136 57.831013,24.5231399 57.7343059,24.522633 C57.0198432,24.5190455 56.3053414,24.5181876 55.5908787,24.5232302 C55.4737383,24.5240758 55.453344,24.4800117 55.4521041,24.3758176 C55.4509263,24.2715845 55.4847738,24.2334866 55.5854194,24.2465108 C55.6173562,24.2506443 55.6503068,24.2478367 55.6827504,24.2469788 C56.0577244,24.237464 56.1794272,24.1340108 56.1826248,23.758023 C56.1910087,22.7710646 56.1903458,21.7838722 56.1814939,20.7969138 C56.1782574,20.4326633 56.0756231,20.3412205 55.7125425,20.3253497 C55.618565,20.3212552 55.5615936,20.3239848 55.5609697,20.1970958 C55.5603458,20.0621347 55.6309653,20.0735992 55.7186646,20.0748081 C56.0954714,20.0799554 56.4711083,20.0560906 56.8440936,20.0055923 C56.9670052,19.9889805 57.0178934,20.0242708 57.0369619,20.1443358 C57.0579021,20.2761772 57.095649,20.405367 57.1303544,20.5538592" id="Fill-47" fill="#030303"></path>
            <path d="M89.956396,15.9881724 C89.9572149,16.0704905 89.9579948,16.1528475 89.9588137,16.2349315 C89.918844,16.2660104 89.8716603,16.2547409 89.8272062,16.2547799 C89.1254558,16.2554038 88.4236664,16.253961 87.7219159,16.2566127 C87.6208804,16.2570026 87.5554861,16.2582114 87.5533414,16.119117 C87.5510797,15.9729645 87.6177998,15.9672322 87.729208,15.9667643 C88.1929731,15.9647366 88.2805165,15.8726308 88.2805555,15.4036404 C88.2805945,14.558974 88.2814133,13.7143466 88.2803215,12.8697192 C88.2794246,12.1977608 87.8652218,11.8771456 87.2179081,12.0545329 C86.8306898,12.1606378 86.5529688,12.4185104 86.3232504,12.7369419 C86.2794593,12.7976568 86.2932244,12.8609844 86.2931075,12.923649 C86.2917426,13.7682764 86.2912747,14.6129038 86.2926005,15.4575312 C86.2932634,15.8500139 86.4132114,15.961773 86.8053821,15.9734324 C86.8796672,15.9756161 87.0131075,15.8851482 87.0327608,16.0569983 C87.0476568,16.1869679 87.0340477,16.2636707 86.8573232,16.2604341 C86.1622799,16.2477218 85.4668856,16.2534541 84.7716083,16.2571196 C84.6653085,16.2576655 84.6070113,16.2503345 84.6100139,16.1154515 C84.6126655,15.9933977 84.646513,15.9503865 84.7648622,15.9675052 C84.8094333,15.9739783 84.8557201,15.9694939 84.901188,15.9684021 C85.2010971,15.9610711 85.2937487,15.8805468 85.3346932,15.5852392 C85.3453778,15.5084584 85.3489263,15.4300789 85.3490043,15.3524402 C85.3499792,14.4623449 85.3497452,13.5722106 85.3493553,12.6821153 C85.3493163,12.62374 85.3487314,12.5650919 85.3428432,12.5071066 C85.306734,12.1480815 85.2267556,12.0684541 84.8690173,12.0602262 C84.7674749,12.0578865 84.7205251,12.046188 84.7211101,11.926318 C84.721656,11.8071109 84.7796412,11.8090607 84.8650399,11.8090217 C85.2482808,11.8089047 85.6306638,11.7877305 86.0107461,11.7381681 C86.1193856,11.724013 86.1759281,11.7445633 86.1919939,11.866695 C86.2094636,11.9996672 86.2524359,12.129286 86.2868293,12.2709541 C86.454039,12.1424662 86.6020243,12.0175269 86.7610451,11.9086534 C87.1630035,11.6334281 87.6115607,11.5357851 88.0933804,11.5860104 C88.7693943,11.656474 89.2174445,12.1525659 89.2219289,12.8471412 C89.2271932,13.6657591 89.2227868,14.4844159 89.2237617,15.3030728 C89.2238787,15.3872626 89.2274662,15.4719983 89.2374879,15.5555251 C89.2763267,15.8780121 89.3755685,15.9624749 89.7070243,15.9695329 C89.7901222,15.9713267 89.8758328,15.9492946 89.956396,15.9881724" id="Fill-49" fill="#020202"></path>
            <path d="M63.513659,15.5853912 C63.153503,15.9464831 62.7887457,16.2419077 62.3082517,16.3539788 C62.00651,16.4243644 61.7039883,16.4358679 61.4014276,16.3693427 C61.0059814,16.2824233 60.7724805,16.0291131 60.6762803,15.6420507 C60.6148635,15.3949016 60.596146,15.1431122 60.596302,14.8891781 C60.5966919,14.1291304 60.5966919,13.3690828 60.596341,12.6089961 C60.596107,12.1807942 60.5520429,12.122341 60.1243089,12.0615481 C60.0060377,12.0447413 60.0379744,11.9775143 60.0303705,11.912549 C60.0193349,11.8183375 60.0734987,11.8123713 60.1484467,11.8086278 C60.5564883,11.7881945 60.9648808,11.769516 61.3718306,11.7348886 C61.5150585,11.7226833 61.5428618,11.7631989 61.5420039,11.8987448 C61.5361547,12.8471763 61.5375975,13.7956859 61.5398202,14.7441174 C61.5403661,14.9970377 61.5518696,15.249997 61.6073982,15.4983938 C61.6930698,15.8815958 61.9748072,16.0657292 62.358906,15.9731945 C62.8452491,15.8560152 63.1830221,15.527289 63.4851148,15.1526659 C63.5269952,15.1007249 63.513659,15.0418817 63.513698,14.9851833 C63.5145169,14.1861408 63.5157647,13.3870984 63.51362,12.5880559 C63.5125672,12.1880082 63.4506434,12.1115784 63.0576538,12.061977 C62.9470256,12.0480169 62.9579051,11.9943601 62.9538107,11.9215178 C62.9490533,11.8381859 62.9781824,11.8119034 63.063854,11.8079649 C63.4653445,11.7894034 63.8670299,11.769399 64.2674285,11.7354346 C64.4181824,11.7226443 64.4617006,11.7559848 64.4606867,11.9144597 C64.4533557,13.0707725 64.4567093,14.2271244 64.4569042,15.3834762 C64.4569042,15.4484025 64.4559294,15.5135628 64.4611157,15.5781772 C64.4859164,15.887445 64.5530654,15.9630949 64.8599935,15.9965914 C64.968555,16.0084458 65.0268133,16.029386 65.005951,16.1565481 C64.9943696,16.2271287 64.9876625,16.2525923 64.9037067,16.2486538 C64.5401581,16.2316131 64.1764536,16.2432335 63.8164536,16.299737 C63.6828575,16.3206772 63.6362587,16.2784458 63.6206607,16.1462925 C63.5995256,15.9666044 63.5539406,15.789802 63.513659,15.5853912" id="Fill-51" fill="#010101"></path>
            <path d="M72.6733232,32.117662 C72.3234229,32.478013 71.9634619,32.7676664 71.4921317,32.8847288 C71.2564471,32.943299 71.0184229,32.9631083 70.777669,32.9411542 C70.2044454,32.8889402 69.8889385,32.5878614 69.8010442,32.0121031 C69.772578,31.8259419 69.7579939,31.6387669 69.7585789,31.4497981 C69.7608406,30.6964575 69.7594757,29.943117 69.7594757,29.1897764 C69.7594757,29.1443085 69.7608795,29.0988016 69.7591638,29.0534116 C69.7468804,28.7316655 69.6713475,28.645487 69.3487825,28.6040745 C69.2489558,28.5912062 69.1839905,28.5791568 69.1893328,28.4477444 C69.1954159,28.2989402 69.292513,28.3464749 69.3658622,28.3418345 C69.7477383,28.3177357 70.1301993,28.3020208 70.5115295,28.2710589 C70.6549133,28.2594775 70.7079073,28.2818995 70.7063865,28.4457946 C70.6974957,29.4198458 70.7006542,30.3940919 70.7030329,31.368221 C70.7035009,31.5886196 70.7183579,31.8088232 70.7672184,32.0250494 C70.8579203,32.4266958 71.1272964,32.6064229 71.5284359,32.507883 C72.0130243,32.3888709 72.3506023,32.0585069 72.6504723,31.6822461 C72.6918068,31.630383 72.6766378,31.570604 72.6767158,31.5138666 C72.6776516,30.7280433 72.6775737,29.9422591 72.6767938,29.1564359 C72.6767548,29.0982946 72.6724263,29.0396854 72.6641984,28.9821291 C72.622786,28.6932556 72.5731456,28.6413536 72.2900823,28.6048544 C72.1904116,28.5919861 72.1018934,28.5982253 72.1137088,28.4455217 C72.1265771,28.2801837 72.2385312,28.3486196 72.3118414,28.3431993 C72.6739081,28.3165269 73.0373007,28.3062712 73.3984315,28.2716049 C73.567669,28.255344 73.6266291,28.2809636 73.6249133,28.4723891 C73.6146577,29.628273 73.619766,30.7843128 73.619961,31.9403137 C73.619961,32.005201 73.6181282,32.0704783 73.6240555,32.1349367 C73.649987,32.4190529 73.7236092,32.5019168 74.0017981,32.5342045 C74.1102036,32.5467218 74.1842548,32.5545208 74.1690858,32.6977097 C74.152747,32.8524411 74.0439905,32.7817435 73.9804289,32.7822504 C73.6361438,32.785136 73.2917808,32.7827964 72.9506542,32.8350884 C72.8449783,32.8513102 72.8042678,32.8273674 72.7893718,32.7151794 C72.7638302,32.5234419 72.7167244,32.3345511 72.6733232,32.117662" id="Fill-53" fill="#010101"></path>
            <path d="M62.383305,39.3224116 C62.383305,39.1407348 62.3799905,38.9589801 62.3846698,38.7774203 C62.3872045,38.6811811 62.3704367,38.6334905 62.2552071,38.6548596 C62.083513,38.6866404 61.9062036,38.6898769 61.7356404,38.7259081 C61.3587946,38.8054575 60.9949731,38.9230659 60.7161993,39.2089757 C60.2653414,39.6713761 60.440662,40.4407045 61.0358787,40.6103319 C61.378292,40.7079359 61.6764073,40.5934861 61.9388423,40.3798726 C62.180805,40.1829489 62.4637513,40.0047816 62.3860737,39.6138198 C62.3675121,39.5201542 62.383344,39.4197036 62.383305,39.3224116 M59.8415459,37.4709775 C59.8479411,37.2084255 59.9644575,37.0210555 60.148396,36.8714324 C60.6111083,36.4948986 61.1655754,36.4112158 61.7352114,36.386766 C62.061091,36.3727669 62.3823692,36.4062244 62.6895312,36.5306958 C63.0526508,36.6778622 63.2696958,36.9317574 63.2939506,37.3331308 C63.3479584,38.2282565 63.3071698,39.124279 63.3197262,40.0197556 C63.3219489,40.182052 63.3157877,40.3446603 63.3243276,40.5065667 C63.3419142,40.841649 63.4763683,40.9204185 63.7763163,40.7789064 C63.7987383,40.7682998 63.8212773,40.7579662 63.8472088,40.7459948 C63.9145139,40.939136 63.8246308,41.0353752 63.6664289,41.1127799 C63.0703154,41.404461 62.4799731,41.127325 62.376247,40.4831308 C62.2529454,40.5882218 62.1407964,40.6914021 62.0209263,40.7846776 C61.5322045,41.16476 60.9908787,41.3356352 60.3825988,41.1387894 C59.4322175,40.8311984 59.3846828,39.8257175 59.8618232,39.2721083 C60.2257227,38.8498726 60.7200208,38.659344 61.2410303,38.5255139 C61.5745529,38.4398813 61.9158744,38.397182 62.2590676,38.3731222 C62.3389289,38.3675459 62.3897002,38.3583042 62.3856447,38.2541101 C62.3719575,37.9042877 62.4019055,37.5533345 62.3573735,37.2039801 C62.3106967,36.8374679 62.1795962,36.7060945 61.8090286,36.6736118 C61.5941672,36.6548163 61.3821915,36.6756395 61.1822262,36.7638847 C60.9180364,36.8804792 60.7436906,37.0685901 60.7514116,37.3723986 C60.7541023,37.4764367 60.7080104,37.4720303 60.6379757,37.4716014 C60.3786993,37.4700806 60.1194229,37.4709775 59.8415459,37.4709775" id="Fill-55" fill="#040404"></path>
            <path d="M72.3262539,14.4757708 C72.2992695,14.2975646 72.3679393,14.0712387 72.2970468,13.8510351 C72.0499367,13.8532188 71.8075061,13.8910438 71.567727,13.9478202 C71.2294861,14.0279155 70.9115225,14.1510221 70.660747,14.4029675 C70.397805,14.6671573 70.3323718,15.0620186 70.4902617,15.3886781 C70.6426924,15.704068 70.9578094,15.8790767 71.3234246,15.8307621 C71.7152444,15.778977 71.9761196,15.5103808 72.2400364,15.2492717 C72.3957426,15.0952422 72.3004393,14.9057665 72.3246161,14.7335654 C72.3344428,14.6635698 72.3262539,14.5910784 72.3262539,14.4757708 M73.7935893,15.9477075 C73.8509506,16.1345316 73.7706993,16.229094 73.6146421,16.3057188 C73.0220381,16.596815 72.4653484,16.3401512 72.3066395,15.6797743 C72.0475191,15.9250906 71.785513,16.1576945 71.4531993,16.2841157 C70.9463839,16.476828 70.4461586,16.4825602 69.9848891,16.1660394 C69.3651057,15.7408011 69.3520815,14.8323003 69.9484289,14.3158921 C70.4002227,13.9246963 70.9464229,13.7522613 71.5205823,13.6525516 C71.7437496,13.6137907 71.9704653,13.5943713 72.1961672,13.5720663 C72.2750927,13.5642673 72.3316742,13.5582231 72.3278527,13.4537561 C72.3145555,13.0909484 72.3484809,12.726971 72.2970468,12.3650212 C72.2525537,12.051815 72.1280043,11.9128375 71.8164359,11.8725949 C71.5417565,11.8371096 71.2721854,11.8677985 71.0261282,12.0103635 C70.8212886,12.1290247 70.6915529,12.3028635 70.6947504,12.5443583 C70.6962322,12.6563514 70.6588362,12.6726902 70.56326,12.6703115 C70.3425884,12.6647743 70.1215269,12.6637604 69.9008943,12.6707015 C69.8012626,12.6738211 69.7768518,12.6409484 69.7936586,12.5475949 C69.8327704,12.3301989 69.9567738,12.1695403 70.1251144,12.0387127 C70.5262929,11.7268713 71.0001577,11.6274346 71.4902834,11.5914424 C71.8799584,11.5628202 72.2681127,11.5738167 72.6385633,11.7281971 C72.9997331,11.8786781 73.2139315,12.1315984 73.2388882,12.5344926 C73.2883726,13.3325212 73.2505087,14.1310958 73.2622851,14.9293193 C73.2656386,15.156542 73.2600624,15.3839597 73.2633769,15.6111824 C73.2696941,16.0458964 73.3886672,16.1233401 73.7935893,15.9477075" id="Fill-57" fill="#040404"></path>
            <path d="M83.5052717,14.1076053 C83.5376763,13.9846937 83.5062855,13.861899 83.5017621,13.7395724 C83.4851893,13.2896893 83.4207699,12.8489311 83.2045048,12.444789 C82.9032699,11.881899 82.2436339,11.6865351 81.7540542,12.0177959 C81.5087769,12.1837188 81.3598947,12.4255256 81.2630706,12.699776 C81.0671997,13.254516 81.0448947,13.8280906 81.0886079,14.4074753 C81.1200377,14.8239008 81.1949467,15.2294077 81.4172171,15.5929562 C81.8444441,16.2916651 82.7467448,16.2878046 83.1689415,15.5857032 C83.2558609,15.4411495 83.3208653,15.287042 83.3690628,15.1249796 C83.4678756,14.7927829 83.4995784,14.4520074 83.5052717,14.1076053 M84.5188635,13.9341954 C84.515159,14.7010282 84.3330923,15.3512665 83.7882959,15.8481382 C83.1291278,16.4493211 82.3431096,16.5326529 81.5311209,16.2816434 C80.7536815,16.0412795 80.3057483,15.4546027 80.1371737,14.672523 C79.9735516,13.9136451 80.030055,13.1712231 80.4706963,12.5036321 C80.9729883,11.7426096 81.8573124,11.4232032 82.835614,11.627107 C83.6507613,11.7970074 84.2961252,12.4827309 84.4596304,13.3479476 C84.4995221,13.5592994 84.5100897,13.772406 84.5188635,13.9341954" id="Fill-59" fill="#030303"></path>
            <path d="M67.9982132,30.5477821 C67.9982132,30.4635533 68.0025806,30.3790906 67.9974723,30.2951347 C67.9666274,29.7877734 67.9080572,29.2861833 67.6118917,28.8507283 C67.2035771,28.2504034 66.3991534,28.2392899 65.9692747,28.8242509 C65.8686291,28.9612006 65.794266,29.1114086 65.7408432,29.2719112 C65.5660685,29.7968202 65.5419307,30.3367422 65.5760901,30.8837613 C65.6017487,31.2950004 65.6676499,31.6962959 65.8666794,32.0619502 C66.214552,32.701036 66.9808778,32.8451607 67.4686248,32.3679814 C67.6289714,32.2110663 67.7331655,32.018159 67.8100243,31.8092249 C67.9599203,31.4017682 67.9931828,30.9765299 67.9982132,30.5477821 M64.5531395,30.5262179 C64.5579359,29.6983193 64.8014974,28.9747318 65.5075373,28.4811746 C66.8847946,27.518315 68.7979185,28.3974138 68.9813891,30.0651824 C69.0390624,30.5895845 69.0152366,31.1024051 68.8194827,31.5956114 C68.4581179,32.5061789 67.5610425,33.0168549 66.5845347,32.9387093 C65.4214757,32.8456287 64.5427279,31.9292509 64.5531395,30.5262179" id="Fill-61" fill="#030303"></path>
            <path d="M57.1057916,5.71926993 C57.1137855,6.23946057 57.1508696,6.76187392 57.402581,7.24147097 C57.739925,7.88422227 58.5066018,8.04507582 58.9989112,7.5765143 C59.1660039,7.41745451 59.2831053,7.2224805 59.3518531,7.0034857 C59.6236079,6.13745017 59.6260256,5.26767114 59.3411685,4.40682192 C59.2217275,4.04576906 59.000042,3.74745884 58.6092751,3.63304809 C58.0918141,3.48159229 57.6210299,3.72476386 57.364951,4.2704961 C57.1506746,4.7272422 57.1130836,5.2170169 57.1057916,5.71926993 M56.1057699,5.7142396 C56.0966841,5.02621534 56.270562,4.40362435 56.7758956,3.90905329 C57.4228973,3.27581672 58.2098124,3.17754983 59.0342015,3.40999783 C59.8339458,3.63554376 60.2917838,4.22358536 60.477555,5.01962522 C60.5956703,5.5260117 60.5863505,6.03649263 60.4458912,6.54061742 C60.1537032,7.58969454 59.2444614,8.20479853 58.1594311,8.13371101 C56.9140152,8.05213388 56.1491711,7.07383232 56.1061209,5.92847704 C56.1034692,5.85715555 56.1057699,5.78563908 56.1057699,5.7142396" id="Fill-63" fill="#030303"></path>
            <path d="M56.9515243,38.2692829 C57.2695659,38.2692829 57.5876075,38.2669042 57.905649,38.2708427 C57.9924515,38.2718956 58.0311733,38.2562197 58.0318752,38.1552231 C58.0341759,37.8196339 57.9896828,37.4945732 57.8289853,37.196263 C57.4771352,36.5433341 56.6496655,36.4786417 56.2059437,37.068399 C55.9625381,37.3919779 55.8901248,37.7718263 55.8597088,38.1642699 C55.851091,38.2751321 55.9225295,38.2699458 55.9973995,38.2697119 C56.3154411,38.268698 56.6334827,38.2692829 56.9515243,38.2692829 M59.0873865,40.113386 C59.1009567,40.1413843 59.1046612,40.1462977 59.105792,40.1517179 C59.1713813,40.4567353 59.0407097,40.6292873 58.7658744,40.7710334 C58.1076421,41.1105611 57.4285087,41.306003 56.6885043,41.1596166 C55.7229931,40.968698 54.9967929,40.1671209 54.8632357,39.176185 C54.7593925,38.4057257 54.8567236,37.6820212 55.3971525,37.0826711 C55.9825035,36.4334857 56.7345572,36.2500152 57.5594532,36.4433904 C58.3586127,36.6306824 58.7598692,37.2285117 58.9540633,37.9861417 C59.0006231,38.1678185 59.0995529,38.4019432 59.0129064,38.5294952 C58.9302374,38.651198 58.6752504,38.5661503 58.4967322,38.5671642 C57.6591629,38.5718826 56.8215546,38.5711417 55.9839853,38.5669692 C55.8755407,38.5663843 55.8124081,38.583698 55.8092886,38.7074285 C55.7973172,39.1787587 55.8377548,39.641432 56.0542149,40.0696339 C56.3886733,40.7312197 57.0466716,40.9867916 57.8224731,40.7627665 C58.2186993,40.6483557 58.5709783,40.444062 58.9145225,40.2225325 C58.9678674,40.1881001 59.0219142,40.1546815 59.0873865,40.113386" id="Fill-65" fill="#040404"></path>
            <path d="M78.7460771,5.18883925 C79.0700459,5.18883925 79.3940537,5.18595364 79.7179835,5.19071101 C79.8075156,5.19203683 79.8436248,5.17316334 79.8405442,5.07427253 C79.8304055,4.74815901 79.7921906,4.43007842 79.6374983,4.13562868 C79.279838,3.45489645 78.4308042,3.39882192 77.9868094,4.02854896 C77.7709341,4.33469714 77.6953622,4.68506542 77.66674,5.05149957 C77.6585121,5.15717548 77.6787504,5.19461049 77.7936291,5.19164688 C78.1109298,5.18349697 78.4285425,5.18883925 78.7460771,5.18883925 M80.8811984,7.04830633 C81.011714,7.40152123 80.8285945,7.55578466 80.5600763,7.69889558 C79.9230572,8.03826733 79.2580399,8.2237266 78.5389757,8.09391291 C77.5342747,7.9125091 76.7867834,7.09112262 76.6609471,6.07230546 C76.5736378,5.36517374 76.661688,4.69937652 77.1076716,4.11605329 C77.8145693,3.19156456 79.2692704,3.0164779 80.1083215,3.76315035 C80.591701,4.19337998 80.7741577,4.76753943 80.8347556,5.39254809 C80.8495737,5.5455247 80.7440147,5.49970581 80.6724203,5.49986179 C79.7237548,5.50169454 78.7750113,5.50754376 77.8265017,5.49549437 C77.6420563,5.49311568 77.6132782,5.55757409 77.614331,5.71394324 C77.6163588,6.02683752 77.6322296,6.3367292 77.7167704,6.63964081 C77.9659861,7.53273873 78.6973336,7.94366594 79.594409,7.69714081 C80.0062721,7.5839779 80.3697426,7.37321101 80.7250243,7.14505243 C80.7773553,7.11143891 80.8307392,7.07950217 80.8811984,7.04830633" id="Fill-67" fill="#030303"></path>
            <path d="M57.934201,29.9912288 C58.2518527,29.9912288 58.5696213,29.9875633 58.887195,29.9933735 C58.9878016,29.9952452 59.022078,29.967286 59.0187244,29.8636768 C59.0092487,29.5704359 58.977078,29.2832392 58.8543614,29.0123033 C58.6926109,28.6553839 58.4348163,28.4150589 58.0303622,28.3977062 C57.6365537,28.3807435 57.3318873,28.5589887 57.1238501,28.8952019 C56.9420563,29.1889107 56.8752972,29.5158821 56.8457002,29.854786 C56.8360685,29.9654922 56.8709298,29.9963371 56.9812851,29.9938024 C57.2987418,29.9865494 57.6165494,29.9912288 57.934201,29.9912288 M60.0637851,31.8470693 C60.1720737,32.1855442 60.0280269,32.3572773 59.7473033,32.5029229 C59.0891101,32.8445173 58.4083388,33.0394133 57.6684125,32.8914281 C56.6926846,32.6962591 55.9576326,31.8661378 55.8388544,30.8654142 C55.7574723,30.1798076 55.8363977,29.5304272 56.2593354,28.9592314 C56.7731698,28.2652409 57.7041317,27.9375676 58.5515277,28.1727062 C59.4107002,28.4111205 59.8110988,29.0545347 59.9691057,29.8799376 C60.049747,30.3013154 60.0363718,30.3038891 59.6055962,30.3038891 C58.7285641,30.3038891 57.8514931,30.3039671 56.974461,30.3038111 C56.892182,30.3037721 56.8052236,30.2814281 56.7996863,30.4155702 C56.779214,30.9144307 56.8184818,31.4034255 57.0629012,31.8505009 C57.402,32.4705182 58.0476369,32.7099073 58.7864714,32.5003102 C59.1901066,32.3858215 59.5494827,32.1801629 59.8984471,31.9539151 C59.9514801,31.9195217 60.004669,31.8852452 60.0637851,31.8470693" id="Fill-69" fill="#040404"></path>
            <path d="M71.3333332,5.18883925 C71.657458,5.18883925 71.9815438,5.18677253 72.3055906,5.19024307 C72.3890004,5.19113995 72.4362621,5.18150823 72.4319337,5.07813302 C72.4187925,4.76574567 72.3888445,4.45694584 72.2484632,4.1722448 C72.0869467,3.84468847 71.8429172,3.61742678 71.4599103,3.59555069 C71.0634502,3.57293371 70.7579649,3.74197617 70.5443904,4.07331499 C70.3687578,4.34581066 70.3005169,4.65254376 70.2608202,4.97070234 C70.239919,5.13841898 70.2685412,5.20580199 70.4586408,5.1937136 C70.7491521,5.17519107 71.0416911,5.18883925 71.3333332,5.18883925 M73.4662318,7.05290771 C73.5983072,7.41169887 73.4043471,7.56397357 73.1394164,7.70458882 C72.4643384,8.06291205 71.7615351,8.23593198 71.0019944,8.07047704 C70.0925186,7.87242244 69.3756382,7.04799437 69.2522197,6.0787786 C69.1621807,5.37219281 69.2473453,4.70499177 69.692393,4.12135659 C70.4095854,3.18084099 71.8720854,3.015776 72.7205732,3.78662522 C73.1942431,4.21689385 73.36738,4.78937652 73.4247803,5.40658622 C73.4380776,5.54942418 73.3293601,5.49904289 73.2661885,5.49923787 C72.3434155,5.50192851 71.4206036,5.50107062 70.4978306,5.50107062 C70.1956599,5.50107062 70.1881339,5.50130459 70.1973756,5.80608795 C70.2068124,6.11711049 70.2348497,6.42641724 70.3355342,6.72574133 C70.6157509,7.55874827 71.3087275,7.93317634 72.159711,7.70564168 C72.5527396,7.60055069 72.9036928,7.40666854 73.2438445,7.19013042 C73.3181685,7.14279073 73.3937795,7.09755676 73.4662318,7.05290771" id="Fill-71" fill="#030303"></path>
            <path d="M85.0451841,29.9912288 C85.3698938,29.9912288 85.6946036,29.9908388 86.0192743,29.9915407 C86.0857604,29.9916967 86.1470212,30.0012894 86.1438237,29.8976802 C86.134114,29.584591 86.1018263,29.2773899 85.9649155,28.9896863 C85.7993046,28.6415797 85.541315,28.4097946 85.143568,28.3975113 C84.7402838,28.3850329 84.4356174,28.5728709 84.2295299,28.9204705 C84.0529614,29.2183128 83.9987197,29.5491057 83.9599588,29.8855919 C83.9465056,30.0023813 84.0173982,29.9916187 84.0905914,29.9914627 C84.408789,29.9909168 84.7269866,29.9912288 85.0451841,29.9912288 M87.1856088,31.8487851 C87.27401,32.1608215 87.176406,32.3420303 86.9006737,32.4863111 C86.2516053,32.8259948 85.5803488,33.034656 84.8459207,32.9015277 C83.9551235,32.7400113 83.3605308,32.1986464 83.0860854,31.3520693 C82.7951841,30.454604 82.8457994,29.5745693 83.4958037,28.8266101 C84.0804138,28.1538718 84.8503271,27.9767574 85.6891833,28.1841707 C86.4956737,28.3836291 86.8897942,28.9957695 87.0685074,29.7632652 C87.1938367,30.3016274 87.1842049,30.3038891 86.6350412,30.3038891 C85.7908037,30.3038891 84.9465663,30.3077496 84.1023289,30.3002236 C83.9549675,30.2988977 83.9117223,30.3442877 83.9115663,30.4852149 C83.9111373,30.8242357 83.9329354,31.159357 84.0327621,31.4853146 C84.3020992,32.3648813 85.0308731,32.7539714 85.9190186,32.4966447 C86.3791963,32.3633215 86.7780351,32.1106742 87.1856088,31.8487851" id="Fill-73" fill="#040404"></path>
            <path d="M75.5112595,4.24329333 L75.5112595,7.05006109 C75.5112595,7.0890169 75.5104796,7.1280117 75.5114155,7.1670065 C75.5217491,7.60413821 75.6190412,7.70065035 76.0583956,7.70236612 C76.1598211,7.70275607 76.2451417,7.68801603 76.2381226,7.84551603 C76.2325464,7.96979246 76.1960862,7.99330633 76.0808566,7.99243371 C75.3986425,7.98710615 74.7163505,7.98878293 74.0340975,7.99084965 C73.9292405,7.99120061 73.8545654,7.99755676 73.8535816,7.84508709 C73.8525767,7.6860273 73.9376633,7.70334099 74.037607,7.70260009 C74.4948211,7.69928553 74.5941408,7.59860095 74.5942968,7.1377604 C74.5947647,5.42904723 74.5944918,3.72029506 74.5944528,2.01158189 C74.5944528,1.97262608 74.5951157,1.93359229 74.5932829,1.89467548 C74.577451,1.55639558 74.4780533,1.45364428 74.1454276,1.44155589 C74.0461469,1.43792938 73.9606703,1.45816768 73.9646867,1.29941984 C73.9686252,1.14032106 74.0649424,1.17908189 74.1464025,1.18068068 C74.5432136,1.18851863 74.9394788,1.17093198 75.3322734,1.12109662 C75.484899,1.1017162 75.51551,1.13185919 75.5145741,1.28066334 C75.5081789,2.26816768 75.5112595,3.25575 75.5112595,4.24329333" id="Fill-75" fill="#010101"></path>
            <path d="M85.7071053,7.23107886 C85.7003982,7.11456239 85.6875689,6.99792894 85.6895186,6.88156846 C85.6905325,6.81808492 85.6307145,6.71665945 85.7712907,6.71014731 C85.8695576,6.70558492 85.949497,6.68285095 85.9884528,6.82451906 C86.0826642,7.16708839 86.2768193,7.4512825 86.586984,7.63444107 C87.0100776,7.88424177 87.4610524,7.92608319 87.9106625,7.72210139 C88.4087431,7.49608752 88.4782708,6.88749567 88.0536954,6.54114385 C87.7699302,6.30967071 87.4325472,6.16843154 87.1051079,6.01249133 C86.8238774,5.87862218 86.5528635,5.72732236 86.2871919,5.56467504 C85.4446313,5.04892981 85.6665117,3.88466205 86.3922049,3.50883016 C86.8096443,3.29260399 87.2486867,3.26873917 87.6997006,3.32454073 C88.0215247,3.36435442 88.3411651,3.42421144 88.6666157,3.42635615 C88.7413687,3.42682409 88.7676122,3.45244367 88.7717847,3.5265338 C88.7894883,3.84395147 88.8114814,4.16109619 88.8335524,4.4782409 C88.8379588,4.54188042 88.8189294,4.57748267 88.7495186,4.57494801 C88.6902855,4.57280329 88.6167023,4.62349653 88.582114,4.53337955 C88.5659701,4.49149913 88.5611347,4.44532929 88.5504112,4.40130416 C88.371932,3.66948873 87.3856755,3.31151646 86.774198,3.75648614 C86.4694536,3.97824957 86.4313947,4.35786395 86.6913341,4.635 C86.894536,4.85165511 87.1512777,4.99141248 87.4162084,5.11689775 C87.7555412,5.27759532 88.0997873,5.42893414 88.416425,5.63338388 C89.0026729,6.0120234 89.2199519,6.43094454 89.1024216,7.00958839 C88.9768973,7.62765598 88.5327465,7.92588821 87.9638124,8.07313258 C87.4836694,8.19737002 87.0105845,8.11844454 86.5430758,7.98855286 C86.3120706,7.92436742 86.0827422,7.85094021 85.8416373,7.8360052 C85.746529,7.83011698 85.7250429,7.78363518 85.724107,7.6979636 C85.7223912,7.54233536 85.7100299,7.38686308 85.702075,7.23131282 C85.7037517,7.23123484 85.7054285,7.23115685 85.7071053,7.23107886" id="Fill-77" fill="#030303"></path>
            <path d="M81.6090715,7.20907019 C81.6036122,7.09902686 81.597841,6.98898354 81.5927717,6.87890121 C81.5895351,6.80800867 81.5406746,6.71761872 81.6753237,6.70954679 C81.7734736,6.70365858 81.8459259,6.68763172 81.8918228,6.82360659 C82.1583912,7.61348527 82.8257873,7.9882643 83.6123514,7.79898354 C83.915107,7.72614125 84.1547301,7.56489775 84.214938,7.23699047 C84.275107,6.90943414 84.1417058,6.65799567 83.8677283,6.47195147 C83.5228973,6.2377487 83.135172,6.08687782 82.7698297,5.8927617 C82.5813289,5.79258406 82.3957916,5.68616724 82.2132959,5.57530503 C81.8113765,5.33104159 81.6131659,4.9770078 81.6555533,4.50158319 C81.6984086,4.02069931 81.9454796,3.67879289 82.3764502,3.46962478 C82.7777847,3.27476776 83.2038029,3.27246707 83.6333696,3.32834662 C83.9418575,3.36847227 84.2488245,3.42341594 84.5607829,3.42583362 C84.6471174,3.42649653 84.6716062,3.45952513 84.6760906,3.53942548 C84.6935212,3.85009705 84.7139935,4.16065165 84.7381313,4.47085529 C84.7441365,4.54822097 84.7166451,4.57688215 84.6433739,4.57688215 C84.582698,4.57688215 84.5107136,4.61731976 84.4794398,4.52579896 C84.4731616,4.5074714 84.4708609,4.48785702 84.4658696,4.46902253 C84.2671521,3.71342028 83.5191928,3.35880156 82.8062509,3.68163951 C82.3842881,3.87267504 82.2922994,4.36560832 82.625042,4.66812998 C82.8493401,4.87207279 83.105458,5.01959012 83.3760819,5.14530936 C83.6933826,5.29267071 84.0102933,5.44026603 84.3081746,5.62471144 C84.8957873,5.98857192 85.1097127,6.41466811 85.0086382,7.01409619 C84.9251893,7.50878423 84.4662595,7.93827296 83.885393,8.07311698 C83.4029883,8.18507106 82.9320091,8.12303033 82.4641495,7.99341161 C82.2269831,7.92770537 81.9913375,7.85435615 81.7443055,7.83548267 C81.6638982,7.82932149 81.6311425,7.79582496 81.6292708,7.7145208 C81.6252153,7.54602426 81.6136729,7.37768371 81.605211,7.20926516 C81.6065368,7.20918718 81.6078237,7.20914818 81.6090715,7.20907019" id="Fill-79" fill="#030303"></path>
            <path d="M60.6687894,32.0582964 C60.6687894,31.9351508 60.6691404,31.8119662 60.6686334,31.6887816 C60.6683215,31.6062686 60.6454315,31.5214549 60.7784038,31.5076118 C60.8881742,31.4961863 60.934851,31.5228198 60.9690104,31.6323172 C61.1345043,32.1631534 61.4792184,32.5144575 62.0358692,32.6184957 C62.3321516,32.6738683 62.6308128,32.6631837 62.9100546,32.5212816 C63.3760815,32.2844662 63.4488847,31.6945529 63.0489541,31.3575988 C62.7988024,31.1468319 62.4984255,31.0193969 62.2081092,30.8765589 C61.9176759,30.733682 61.6293873,30.5880364 61.3506525,30.4219965 C60.9144957,30.1622132 60.6824766,29.8020962 60.7369133,29.2819055 C60.7929489,28.7472868 61.0955875,28.4108007 61.5830615,28.220818 C62.0246386,28.048734 62.4762764,28.1005581 62.9276023,28.1622088 C63.1589194,28.1937946 63.3895737,28.2372738 63.6236594,28.2279541 C63.7312071,28.2237036 63.7517964,28.2674168 63.7563588,28.3620182 C63.7707088,28.6598605 63.7911811,28.9574298 63.8154749,29.2546482 C63.8225719,29.3412556 63.8109905,29.3853198 63.709799,29.3878934 C63.6280659,29.3899601 63.5767487,29.4055971 63.5463718,29.2924341 C63.341649,28.5300858 62.6906308,28.1940676 61.9552279,28.4604411 C61.4454879,28.6450815 61.3441014,29.1465156 61.744266,29.510805 C61.9972253,29.7411083 62.3037244,29.8822305 62.6101846,30.0230797 C62.9458518,30.1773432 63.2765277,30.3410433 63.5748769,30.5619879 C64.301857,31.1003501 64.2982305,32.0815373 63.5582262,32.6034047 C63.0085945,32.991013 62.3961031,33.0002548 61.7676239,32.8545312 C61.4464237,32.7800511 61.1341534,32.6653674 60.8030875,32.6367452 C60.7239671,32.6298821 60.7089151,32.5901464 60.7063024,32.5240893 C60.7001023,32.368734 60.6901976,32.2135347 60.6818137,32.0582964 L60.6687894,32.0582964 Z" id="Fill-81" fill="#030303"></path>
            <path d="M76.9121399,15.4889337 C77.0110308,15.7731278 76.8631235,15.9283661 76.6653419,16.0696443 C76.2758228,16.3479112 75.8460221,16.4474259 75.3759008,16.379302 C75.0189034,16.3275949 74.8022093,16.1128895 74.7167717,15.7330412 C74.6782058,15.5613471 74.6651036,15.3871573 74.6653375,15.2110958 C74.6665464,14.2368886 74.6624519,13.2626036 74.6696269,12.2884354 C74.6707188,12.1394753 74.6291503,12.0960351 74.4845186,12.1067977 C74.316568,12.119237 74.1462777,12.1002075 73.9782881,12.1123349 C73.8097136,12.1245013 73.8451209,12.0123133 73.8488254,11.9224302 C73.8522959,11.8394493 73.7945836,11.7181365 73.9710741,11.729562 C74.1586781,11.7416893 74.3478419,11.7270273 74.5359138,11.7343193 C74.639523,11.7383358 74.6698609,11.7027725 74.6679502,11.6011521 C74.6622569,11.2960178 74.6709528,10.9905715 74.6631928,10.6854762 C74.6604632,10.5776555 74.6864727,10.5223219 74.7975689,10.4965464 C75.0247136,10.4438644 75.2514684,10.386386 75.4731148,10.3145966 C75.6003938,10.2733401 75.6112734,10.319549 75.6100646,10.4263167 C75.6058141,10.8094796 75.614198,11.1928375 75.6051902,11.5758445 C75.6021096,11.7063601 75.6424692,11.7382578 75.7679155,11.7351772 C76.1119666,11.7267543 76.4567977,11.7423912 76.8004588,11.7279632 C76.9693843,11.7209051 76.9348349,11.8208878 76.9331581,11.9116677 C76.9314814,12.0054502 76.9799909,12.1206408 76.7963644,12.1135828 C76.4461131,12.1001295 76.0948869,12.1145966 75.7442847,12.1068756 C75.6306148,12.10438 75.6056971,12.1404892 75.6061261,12.2483098 C75.6099866,13.2614727 75.6077249,14.2746746 75.6098696,15.2879155 C75.6100256,15.3714034 75.6248436,15.4558271 75.6409484,15.5382621 C75.7168323,15.9259874 75.9560264,16.0549432 76.3226945,15.9040724 C76.5467977,15.8118497 76.7268367,15.6534138 76.9121399,15.4889337" id="Fill-83" fill="#010101"></path>
            <path d="M76.3134723,28.8603406 C76.5525494,28.6289064 76.7716612,28.4081179 77.0447808,28.2524896 C77.3198891,28.0957695 77.6080997,28.0440234 77.9026274,28.1710685 C78.2471854,28.3197166 78.3865919,28.6263328 78.4496075,28.9710468 C78.5196031,29.3538588 78.5134419,29.3550286 78.122714,29.3550286 C78.1097288,29.3550286 78.0967435,29.3551066 78.0837192,29.3550286 C77.9603397,29.3542877 77.8150061,29.3938674 77.7195078,29.3418873 C77.6171075,29.2862028 77.6614055,29.1204749 77.6312236,29.0050113 C77.5372851,28.6455572 77.2666612,28.5373466 76.9496334,28.7378189 C76.7160156,28.8856092 76.5374974,29.0915797 76.3566785,29.2957955 C76.3071941,29.351714 76.3101967,29.4128579 76.3101967,29.4773163 C76.3102747,30.2959341 76.3097288,31.114591 76.3110936,31.9332478 C76.3112106,32.0107305 76.3168648,32.089344 76.330552,32.1655009 C76.3714185,32.3919827 76.4595858,32.4754705 76.6899671,32.5052626 C76.7668258,32.5152062 76.8466482,32.5199636 76.923078,32.5105659 C77.0482903,32.4952799 77.0555433,32.5610251 77.0535546,32.6583562 C77.0517218,32.7471473 77.0474714,32.7963977 76.9314619,32.7953992 C76.210292,32.7892227 75.4889272,32.7905095 74.7677184,32.794331 C74.6663709,32.794838 74.6330693,32.7661768 74.6367738,32.6632695 C74.6402054,32.5683562 74.6400884,32.5044827 74.7672894,32.5104879 C75.2913406,32.5352886 75.3720208,32.3859385 75.3731516,31.8924593 C75.3751794,30.956974 75.3752184,30.0213718 75.3657036,29.0859645 C75.3618042,28.69937 75.2812019,28.6224333 74.8974541,28.5933042 C74.792675,28.5853492 74.7344558,28.5814107 74.7389012,28.4478146 C74.7435026,28.3095 74.8297201,28.3502886 74.8973761,28.3484948 C75.2737149,28.3384341 75.6508336,28.3328189 76.022961,28.2725719 C76.1630693,28.2499159 76.2012842,28.309227 76.2214445,28.4262114 C76.2452704,28.5650719 76.2793908,28.7020997 76.3134723,28.8603406" id="Fill-85" fill="#010101"></path>
            <path d="M82.4073224,32.1699853 C82.4167201,32.1881179 82.4216724,32.1931872 82.4216724,32.1982565 C82.4198787,32.6341014 82.5059792,32.5265927 82.102851,32.6999246 C81.487396,32.9645433 80.8469844,33.0428449 80.2063778,32.8129315 C79.3569151,32.5081482 78.907383,31.8466014 78.7392374,30.9959688 C78.5836092,30.2084688 78.7078076,29.4622643 79.2845407,28.8578839 C80.1347834,27.9669307 81.3185095,27.9215797 82.3043761,28.4486724 C82.3627123,28.4799073 82.3885269,28.5199939 82.3928943,28.5853882 C82.4158622,28.9283475 82.4420667,29.2711118 82.4667894,29.6139541 C82.4717808,29.6830919 82.4958795,29.7698943 82.3751127,29.7502019 C82.290026,29.7363198 82.1629809,29.8185988 82.1535442,29.629435 C82.1412998,29.3834948 82.0870581,29.1413371 81.9933925,28.9114237 C81.8577296,28.5784081 81.6111655,28.4003969 81.2487088,28.3830442 C80.6466681,28.354188 80.1587652,28.6484818 79.9152036,29.2605052 C79.5967721,30.0605225 79.5780936,30.8834298 79.897461,31.6893744 C80.1729593,32.3847296 80.8182452,32.6853795 81.5444844,32.5003102 C81.8454073,32.4236464 82.124727,32.2900893 82.4073224,32.1699853" id="Fill-87" fill="#030303"></path>
            <path d="M68.8899151,15.6377145 C68.9238016,16.0282474 68.9242305,16.0293003 68.583065,16.1673419 C67.922883,16.4345732 67.2497548,16.5119779 66.5788492,16.2304354 C65.7858899,15.8976928 65.3852184,15.2474155 65.2175017,14.4347639 C65.0042002,13.4013627 65.41037,12.4293003 66.2718042,11.9172985 C67.1012236,11.4243263 67.9391828,11.4873029 68.7760893,11.9045082 C68.8293172,11.9310247 68.867922,11.9600368 68.8722114,12.0331131 C68.8934636,12.3954918 68.9187322,12.7577925 68.9512149,13.1193133 C68.9593648,13.2097812 68.9195121,13.2245602 68.8538449,13.2126668 C68.777727,13.1988237 68.6605087,13.2747075 68.6415962,13.1216919 C68.6264662,12.9995602 68.6137929,12.8764926 68.5879003,12.7564666 C68.508351,12.3872639 68.4059896,12.0172032 67.9892522,11.8976841 C67.5351577,11.7674415 67.1118302,11.8605221 66.7621248,12.1899112 C66.4580043,12.476328 66.3118518,12.8472075 66.2381906,13.2514276 C66.1356343,13.8143956 66.1284983,14.3768566 66.2951231,14.9270342 C66.4786326,15.5329354 66.8499801,15.9459294 67.5195598,16.0135074 C67.8193128,16.0437673 68.0975797,15.9556781 68.3716742,15.8536677 C68.5459419,15.7887803 68.7153744,15.7109467 68.8899151,15.6377145" id="Fill-89" fill="#030303"></path>
            <path d="M79.152516,13.7019892 C79.152516,14.2865602 79.1461989,14.8712483 79.1546607,15.4557023 C79.1606269,15.8700221 79.2700074,15.9632197 79.6839762,15.9714086 C79.7610689,15.9729294 79.8896737,15.900945 79.8945091,16.0802041 C79.8979796,16.208302 79.8732959,16.260594 79.7279623,16.2589935 C79.0264848,16.2510793 78.3247734,16.2518202 77.6232569,16.2586833 C77.495471,16.2599701 77.4770654,16.215711 77.4754666,16.103133 C77.4737899,15.9861096 77.5169571,15.9552647 77.6219311,15.9672751 C77.6732093,15.9731633 77.7258133,15.9696928 77.7777153,15.968016 C78.0611295,15.9588523 78.1667665,15.8679944 78.1957396,15.5892595 C78.2348514,15.2138176 78.2115715,14.8366209 78.2127413,14.4602821 C78.2147691,13.8303601 78.2234259,13.1999311 78.2024857,12.570594 C78.1876677,12.1261313 78.1053497,12.0654944 77.6563245,12.0600351 C77.5559129,12.0588263 77.5019831,12.0494285 77.5081833,11.9273748 C77.5129016,11.8344892 77.5375464,11.8091036 77.630276,11.8076997 C78.0843705,11.8009146 78.5386989,11.7867985 78.9903367,11.7362613 C79.1221001,11.7215212 79.1548557,11.7602041 79.1534519,11.8897448 C79.1469008,12.4937743 79.1505273,13.0978817 79.1505273,13.7019892 L79.152516,13.7019892 Z" id="Fill-91" fill="#040404"></path>
            <path d="M78.6530823,10.2900572 C78.1881083,10.2900572 78.1880693,10.2900572 78.1880693,9.83186828 C78.1880693,9.36697227 78.1881083,9.36432062 78.6463752,9.36837608 C78.8069948,9.36981889 79.0130823,9.29908232 79.1162236,9.39688128 C79.2211196,9.49631802 79.1464445,9.70419931 79.1484723,9.86415598 C79.1538536,10.2900182 79.150305,10.2900572 78.7309939,10.2900572 L78.6530823,10.2900572 Z" id="Fill-93" fill="#010101"></path>
            <path d="M40.9390084,22.2562825 C40.9136708,22.286612 40.8825293,22.3425421 40.8472731,22.3025271 C40.8180374,22.2692873 40.873607,22.2402764 40.9015433,22.2164493 C40.9140173,22.229727 40.9264912,22.2430047 40.9390084,22.2562825" id="Fill-95" fill="#EC1D25"></path>
            <path d="M23.1984475,4.31104006 C23.1755145,4.35018889 23.1335614,4.37632214 23.1051397,4.33528477 C23.0780766,4.29623803 23.1401369,4.28010892 23.1660588,4.25601733 C23.1768731,4.27434123 23.1876332,4.29271617 23.1984475,4.31104006" id="Fill-97" fill="#EC1D25"></path>
            <path d="M21.1644002,4.52380026 C21.1394835,4.50435991 21.1146085,4.48487046 21.0897335,4.46538102 C21.1031085,4.45153713 21.1164835,4.43769324 21.1299002,4.42380026 C21.1498585,4.44731523 21.1698169,4.47078111 21.1897335,4.494247 C21.1812335,4.50406536 21.1727752,4.51388372 21.1644002,4.52380026" id="Fill-99" fill="#EC1D25"></path>
            <path d="M23.1469744,4.26806534 C23.155511,4.25768494 23.1642218,4.24756244 23.1730488,4.23756889 C23.1976132,4.25207566 23.2222938,4.26658243 23.2469744,4.2810892 C23.2251974,4.29991576 23.2033624,4.31874233 23.1815854,4.33756889 C23.170029,4.31442253 23.1585308,4.2912117 23.1469744,4.26806534" id="Fill-101" fill="#EC1D25"></path>
            <path d="M21.2098457,4.48018803 C21.2499547,4.49798803 21.2768319,4.52948803 21.2468121,4.57728803 C21.2411059,4.58628803 21.1899152,4.55348803 21.1596473,4.54018803 C21.1761871,4.52018803 21.192975,4.50008803 21.2098457,4.48018803" id="Fill-103" fill="#EC1D25"></path>
            <path d="M13.895124,14.2270481 C13.883824,14.1937148 13.872524,14.1604723 13.861224,14.1270481 C13.890224,14.1440327 13.919224,14.161108 13.948224,14.1780018 C13.930624,14.1944414 13.912924,14.2107901 13.895124,14.2270481" id="Fill-105" fill="#8CC53F"></path>
            <path d="M51.3892084,28.1007062 C51.3892084,27.8018501 51.3838271,27.5028769 51.3906122,27.2041768 C51.3984112,26.8595797 51.5447587,26.6423397 51.8038011,26.5682496 C52.1161495,26.4789125 52.450101,26.5965598 52.6273323,26.8654679 C52.7546114,27.0586092 52.8136495,27.2761222 52.8451183,27.5043588 C52.8906642,27.8347617 52.8964744,28.1638778 52.8383722,28.492721 C52.7631122,28.9183882 52.555036,29.1128163 52.1311235,29.1727513 C51.9304172,29.2011785 51.729516,29.1929896 51.5286148,29.2014515 C51.414867,29.2062088 51.384412,29.1641334 51.3864008,29.0557279 C51.392211,28.7374913 51.3884675,28.4190598 51.3884675,28.1007062 L51.3892084,28.1007062 Z" id="Fill-107" fill="#FDFDFD"></path>
            <path d="M51.2644523,19.0774263 C51.5326976,19.9583579 51.7936508,20.8255243 52.0631828,21.690039 C52.1049463,21.8237522 52.0819003,21.8570537 51.9436638,21.8554159 C51.4379012,21.8493718 50.9320217,21.8512825 50.4262201,21.8542851 C50.3205052,21.854909 50.2644697,21.8372054 50.3080269,21.7138648 C50.6137461,20.8477123 50.9170867,19.9807409 51.222026,19.1143154 C51.2256525,19.1040598 51.2405095,19.0977426 51.2644523,19.0774263" id="Fill-109" fill="#FDFDFD"></path>
            <path d="M64.0601555,22.1601291 C64.0465074,22.5105364 64.0852682,22.9327721 64.034068,23.353409 C64.0134788,23.5226075 63.9655932,23.6818232 63.8803895,23.8298475 C63.5580195,24.3899298 62.8053419,24.4611733 62.3818973,23.9709307 C62.1274562,23.676325 62.0069233,23.3228371 61.9474562,22.9468492 C61.8431451,22.2869402 61.8383878,21.6300728 62.0344146,20.9827591 C62.0816373,20.8267409 62.151555,20.6815243 62.2423349,20.5466412 C62.5313644,20.1169965 63.0182535,20.0065243 63.4695403,20.2658397 C63.5829372,20.331 63.6790594,20.4174125 63.7784961,20.5007444 C63.9832968,20.6723215 64.094081,20.8686603 64.0667847,21.1552331 C64.0374216,21.4639939 64.0601555,21.7777071 64.0601555,22.1601291" id="Fill-111" fill="#FDFDFD"></path>
            <path d="M58.4970364,13.8409276 C58.4969584,14.2173055 58.5034315,14.5938782 58.4953596,14.9701001 C58.4845581,15.473094 58.2051213,15.8807067 57.8030459,15.9893462 C57.4149697,16.0942032 57.0832409,15.9916859 56.8229506,15.6877214 C56.5289298,15.3443722 56.4211092,14.9247491 56.3710399,14.4887873 C56.3048657,13.9124051 56.3079853,13.3379727 56.4668501,12.773601 C56.5144237,12.6047145 56.5862132,12.4458497 56.6827643,12.2984883 C56.9803336,11.8442769 57.4930373,11.7244068 57.9512262,12.015386 C58.3022184,12.2382413 58.5737392,12.5023921 58.5044064,12.9853037 C58.4642808,13.2650914 58.4971534,13.5553687 58.4970364,13.8409276" id="Fill-113" fill="#FDFDFD"></path>
            <path d="M62.3833401,39.3224116 C62.3833401,39.4197036 62.3675082,39.5201542 62.3860698,39.6138198 C62.4637864,40.0047816 62.1808011,40.1829489 61.9388384,40.3798726 C61.6764034,40.5934861 61.3782881,40.7079359 61.0358748,40.6103319 C60.4406581,40.4407045 60.2653375,39.6713761 60.7161954,39.2089757 C60.9949692,38.9230659 61.3587907,38.8054575 61.7356365,38.7259081 C61.9061997,38.6898769 62.0835091,38.6866404 62.2552032,38.6548596 C62.3704328,38.6334905 62.3872006,38.6811811 62.3846659,38.7774203 C62.3799866,38.9589801 62.3833011,39.1407348 62.3833401,39.3224116" id="Fill-115" fill="#FDFDFD"></path>
            <path d="M72.3262539,14.4757708 C72.3262539,14.5910784 72.3344428,14.6635698 72.3246161,14.7335654 C72.3004393,14.9057665 72.3957426,15.0952422 72.2400364,15.2492717 C71.9761196,15.5103808 71.7152444,15.778977 71.3234246,15.8307621 C70.9578094,15.8790767 70.6426924,15.704068 70.4902617,15.3886781 C70.3323718,15.0620186 70.397805,14.6671573 70.660747,14.4029675 C70.9115225,14.1510221 71.2294861,14.0279155 71.567727,13.9478202 C71.8075061,13.8910438 72.0499367,13.8532188 72.2970468,13.8510351 C72.3679393,14.0712387 72.2992695,14.2975646 72.3262539,14.4757708" id="Fill-117" fill="#FDFDFD"></path>
            <path d="M83.5053847,14.1075702 C83.4995745,14.4520113 83.4678718,14.7927868 83.3690589,15.1249835 C83.3209003,15.2870459 83.255896,15.4411534 83.1689376,15.5857071 C82.7467409,16.2878085 81.8444402,16.291669 81.4172132,15.5929601 C81.1949428,15.2294116 81.1200338,14.8239047 81.088604,14.4074792 C81.0448908,13.8280945 81.0671958,13.2545199 81.2630667,12.6997799 C81.3598908,12.4255295 81.508773,12.1837227 81.7540503,12.0177998 C82.24363,11.686539 82.903266,11.8819029 83.2045009,12.4447929 C83.420766,12.848935 83.4851854,13.2896932 83.5017582,13.7395763 C83.5062816,13.8619029 83.5376724,13.9846976 83.5053847,14.1075702" id="Fill-119" fill="#FDFDFD"></path>
            <path d="M67.9982132,30.5477821 C67.9931828,30.9765299 67.9599203,31.4017682 67.8100243,31.8092249 C67.7331655,32.018159 67.6289714,32.2110663 67.4686248,32.3679814 C66.9808778,32.8451607 66.214552,32.701036 65.8666794,32.0619502 C65.6676499,31.6962959 65.6017487,31.2950004 65.5760901,30.8837613 C65.5419307,30.3367422 65.5660685,29.7968202 65.7408432,29.2719112 C65.794266,29.1114086 65.8686291,28.9612006 65.9692747,28.8242509 C66.3991534,28.2392899 67.2035771,28.2504034 67.6118917,28.8507283 C67.9080572,29.2861833 67.9666274,29.7877734 67.9974723,30.2951347 C68.0025806,30.3790906 67.9982132,30.4635533 67.9982132,30.5477821" id="Fill-121" fill="#FDFDFD"></path>
            <path d="M57.1057916,5.71926993 C57.1130836,5.2170169 57.1506746,4.7272422 57.364951,4.2704961 C57.6210299,3.72476386 58.0918141,3.48159229 58.6092751,3.63304809 C59.000042,3.74745884 59.2217275,4.04576906 59.3411685,4.40682192 C59.6260256,5.26767114 59.6236079,6.13745017 59.3518531,7.0034857 C59.2831053,7.2224805 59.1660039,7.41745451 58.9989112,7.5765143 C58.5066018,8.04507582 57.739925,7.88422227 57.402581,7.24147097 C57.1508696,6.76187392 57.1137855,6.23946057 57.1057916,5.71926993" id="Fill-123" fill="#FDFDFD"></path>
            <path d="M56.9515243,38.2692829 C56.6334827,38.2692829 56.3154411,38.268698 55.9973995,38.2697119 C55.9225295,38.2699458 55.851091,38.2751321 55.8597088,38.1642699 C55.8901248,37.7718263 55.9625381,37.3919779 56.2059437,37.068399 C56.6496655,36.4786417 57.4771352,36.5433341 57.8289853,37.196263 C57.9896828,37.4945732 58.0341759,37.8196339 58.0318752,38.1552231 C58.0311733,38.2562197 57.9924515,38.2718956 57.905649,38.2708427 C57.5876075,38.2669042 57.2695659,38.2692829 56.9515243,38.2692829" id="Fill-125" fill="#FDFDFD"></path>
            <path d="M78.7460771,5.18883925 C78.4285425,5.18883925 78.1109298,5.18349697 77.7936291,5.19164688 C77.6787504,5.19461049 77.6585121,5.15717548 77.66674,5.05149957 C77.6953622,4.68506542 77.7709341,4.33469714 77.9868094,4.02854896 C78.4308042,3.39882192 79.279838,3.45489645 79.6374983,4.13562868 C79.7921906,4.43007842 79.8304055,4.74815901 79.8405442,5.07427253 C79.8436248,5.17316334 79.8075156,5.19203683 79.7179835,5.19071101 C79.3940537,5.18595364 79.0700459,5.18883925 78.7460771,5.18883925" id="Fill-127" fill="#FDFDFD"></path>
            <path d="M57.934201,29.9912288 C57.6165494,29.9912288 57.2987418,29.9865494 56.9812851,29.9938024 C56.8709298,29.9963371 56.8360685,29.9654922 56.8457002,29.854786 C56.8752972,29.5158821 56.9420563,29.1889107 57.1238501,28.8952019 C57.3318873,28.5589887 57.6365537,28.3807435 58.0303622,28.3977062 C58.4348163,28.4150589 58.6926109,28.6553839 58.8543614,29.0123033 C58.977078,29.2832392 59.0092487,29.5704359 59.0187244,29.8636768 C59.022078,29.967286 58.9878016,29.9952452 58.887195,29.9933735 C58.5696213,29.9875633 58.2518527,29.9912288 57.934201,29.9912288" id="Fill-129" fill="#FDFDFD"></path>
            <path d="M71.3333332,5.18883925 C71.0416911,5.18883925 70.7491521,5.17519107 70.4586408,5.1937136 C70.2685412,5.20580199 70.239919,5.13841898 70.2608202,4.97070234 C70.3005169,4.65254376 70.3687578,4.34581066 70.5443904,4.07331499 C70.7579649,3.74197617 71.0634502,3.57293371 71.4599103,3.59555069 C71.8429172,3.61742678 72.0869467,3.84468847 72.2484632,4.1722448 C72.3888445,4.45694584 72.4187925,4.76574567 72.4319337,5.07813302 C72.4362621,5.18150823 72.3890004,5.19113995 72.3055906,5.19024307 C71.9815438,5.18677253 71.657458,5.18883925 71.3333332,5.18883925" id="Fill-131" fill="#FDFDFD"></path>
            <path d="M85.0451841,29.9912288 C84.7269866,29.9912288 84.408789,29.9909168 84.0905914,29.9914627 C84.0173982,29.9916187 83.9465056,30.0023813 83.9599588,29.8855919 C83.9987197,29.5491057 84.0529614,29.2183128 84.2295299,28.9204705 C84.4356174,28.5728709 84.7402838,28.3850329 85.143568,28.3975113 C85.541315,28.4097946 85.7993046,28.6415797 85.9649155,28.9896863 C86.1018263,29.2773899 86.134114,29.584591 86.1438237,29.8976802 C86.1470212,30.0012894 86.0857604,29.9916967 86.0192743,29.9915407 C85.6946036,29.9908388 85.3698938,29.9912288 85.0451841,29.9912288" id="Fill-133" fill="#FDFDFD"></path>
        </g>
    </g>
</svg>