<svg xmlns="http://www.w3.org/2000/svg" width="55" height="55" viewBox="0 0 55 55">
    <defs>
        <linearGradient id="1c2ixwt66a" x1="408.124%" x2="-364.133%" y1="384.948%" y2="-307.726%">
            <stop offset="0%" stop-color="#6462AA"/>
            <stop offset="33.452%" stop-color="#20B69E"/>
            <stop offset="51.202%" stop-color="#6462AA"/>
            <stop offset="100%" stop-color="#4CA7DA"/>
        </linearGradient>
    </defs>
    <g fill="none" fill-rule="evenodd">
        <g fill="url(#1c2ixwt66a)" fill-rule="nonzero" transform="translate(-237.000000, -519.000000)">
            <g>
                <g>
                    <path d="M50.416 31.167c.506 0 .917.41.917.916V49.5h2.75c.507 0 .917.41.917.917 0 .506-.41.916-.917.916h-2.75v2.75c0 .507-.41.917-.916.917-.507 0-.917-.41-.917-.917v-2.75H37.583c-.187 0-.37-.058-.524-.165-.415-.29-.517-.862-.226-1.277l12.833-18.333c.171-.245.451-.39.75-.39zM25.211 34.22c2.363-3.29 6.946-4.04 10.235-1.676 2.705 2.044 3.337 5.847 1.439 8.657-.02.03-.041.057-.064.085l-10.09 11.88h10.852c.507 0 .917.411.917.917 0 .507-.41.917-.917.917H24.75c-.217 0-.427-.077-.593-.218-.386-.327-.433-.906-.105-1.292l11.331-13.348c1.328-1.984.887-4.658-1.008-6.11C33.44 33.36 32.317 33 31.166 33c-3.037 0-5.5 2.463-5.5 5.501 0 .506-.41.917-.916.917s-.917-.41-.917-.917c0-1.536.482-3.033 1.378-4.28zm24.289.771L39.343 49.5H49.5V34.991zM24.75 0c.023 0 .042.012.065.013 13.156.02 23.99 10.342 24.645 23.481l3.664-3.661c.355-.343.918-.343 1.273 0 .364.352.374.932.023 1.296l-5.187 5.185c-.094.092-.207.163-.33.207-.037.01-.075.017-.112.021-.067.022-.136.035-.206.04h-.052c-.066-.008-.132-.024-.194-.046-.037-.007-.074-.016-.11-.027-.14-.056-.264-.146-.36-.263l-5.117-5.117c-.344-.355-.344-.918 0-1.274.351-.364.932-.374 1.296-.022l3.575 3.575C46.943 11.645 37.44 2.322 25.667 1.866v2.717c0 .507-.41.917-.917.917-.506 0-.917-.41-.917-.917V1.866c-11.937.459-21.509 10.03-21.968 21.967H5.5c.506 0 .917.41.917.917 0 .506-.41.917-.917.917H1.865c.466 11.958 10.064 21.54 22.023 21.983l.107.01c.454.07.793.471.775.94-.019.493-.423.883-.916.883h-.034C10.548 48.989.037 38.097.014 24.815.012 24.792 0 24.773 0 24.75l.013-.065C.032 11.067 11.067.032 24.685.013zm11.02 12.435c.357-.358.937-.358 1.295 0 .358.358.358.938 0 1.296l-9.84 9.841c.51 1.047.296 2.303-.53 3.123-.823.823-2.076 1.038-3.126.537-1.368-.654-1.948-2.293-1.294-3.66l-4.655-4.656c-.343-.355-.343-.918 0-1.273.352-.364.932-.374 1.296-.023l4.664 4.664c.744-.332 1.595-.332 2.339 0zM25.397 24.1c-.358-.357-.938-.357-1.296 0-.358.359-.358.94 0 1.297.362.347.934.347 1.296 0l.082-.094c.274-.36.246-.874-.082-1.203z" transform="translate(217.000000, 510.000000) translate(20.000000, 9.000000)"/>
                </g>
            </g>
        </g>
    </g>
</svg>
