<?xml version="1.0" encoding="UTF-8"?>
<svg width="23px" height="26px" viewBox="0 0 23 26" version="1.1" xmlns="http://www.w3.org/2000/svg" xmlns:xlink="http://www.w3.org/1999/xlink">
    <title>Stories</title>
    <defs>
        <linearGradient x1="320.793256%" y1="384.94761%" x2="-263.144137%" y2="-307.725694%" id="linearGradient-1">
            <stop stop-color="#6462AA" offset="0%"></stop>
            <stop stop-color="#20B69E" offset="33.4517045%"></stop>
            <stop stop-color="#6462AA" offset="51.2019231%"></stop>
            <stop stop-color="#4CA7DA" offset="100%"></stop>
        </linearGradient>
        <linearGradient x1="408.124081%" y1="51.6303561%" x2="-364.133121%" y2="48.2587716%" id="linearGradient-2">
            <stop stop-color="#6462AA" offset="0%"></stop>
            <stop stop-color="#20B69E" offset="33.4517045%"></stop>
            <stop stop-color="#6462AA" offset="51.2019231%"></stop>
            <stop stop-color="#4CA7DA" offset="100%"></stop>
        </linearGradient>
        <linearGradient x1="408.124081%" y1="65.3802474%" x2="-364.133121%" y2="33.5738202%" id="linearGradient-3">
            <stop stop-color="#6462AA" offset="0%"></stop>
            <stop stop-color="#20B69E" offset="33.4517045%"></stop>
            <stop stop-color="#6462AA" offset="51.2019231%"></stop>
            <stop stop-color="#4CA7DA" offset="100%"></stop>
        </linearGradient>
    </defs>
    <g id="Page-1" stroke="none" stroke-width="1" fill="none" fill-rule="evenodd">
        <g id="Stories" fill-rule="nonzero">
            <g id="story">
                <path d="M21.6497894,21.3497189 L19.0839731,18.7933285 L19.0839731,0.431899644 C19.0839731,0.193384739 18.8898113,0 18.6503379,0 L5.64128099,0 C5.63302327,0 5.62518906,0.00421776996 5.61693134,0.00485043816 C5.57712498,0.00674843194 5.53774207,0.0147622219 5.50026482,0.0280481568 C5.48756066,0.0318441767 5.4748565,0.0362728217 5.46257584,0.0415450207 C5.41430005,0.0622121205 5.37025897,0.0915255812 5.33256994,0.127798457 L0.128947181,5.31059419 C0.0925285976,5.34728876 0.0630972867,5.39009914 0.042135468,5.43712729 C0.0359950848,5.45062415 0.0326073095,5.46391009 0.0277374233,5.47782875 C0.0152449886,5.51367977 0.00783421668,5.55100702 0.00571688426,5.58875608 C0.00571688426,5.59824605 0,5.60647071 0,5.61596073 L0,22.0268819 C0,22.2653968 0.194161855,22.4587815 0.43363523,22.4587815 L15.4035788,22.4587815 L17.9698185,25.0134847 C18.4557525,25.502957 19.1186978,25.7775338 19.809804,25.7758544 C20.8631903,25.7766902 21.8130378,25.1448683 22.2159713,24.1754139 C22.6186931,23.2061703 22.3950999,22.0905702 21.6493659,21.3497189 L21.6497894,21.3497189 Z M17.9738415,23.7977126 L11.2243346,17.0773288 L13.6808951,14.6301787 L20.4282847,21.3530931 L17.9738415,23.7977126 Z M10.8573962,16.2209106 L10.2694054,13.6799151 L12.8210354,14.2651307 L10.8573962,16.2209106 Z M5.20764576,1.47453238 L5.20764576,5.18279573 L1.48448077,5.18279573 L5.20764576,1.47453238 Z M0.871293457,21.5949822 L0.871293457,6.04659502 L5.64128099,6.04659502 C5.88075436,6.04659502 6.07491622,5.85321028 6.07491622,5.61469538 L6.07491622,0.863799289 L18.2167027,0.863799289 L18.2167027,17.9291074 L13.9879122,13.7140791 L13.9830423,13.7111266 C13.9472589,13.6771736 13.9059704,13.6495472 13.8608707,13.6295127 C13.8485899,13.6242405 13.8369445,13.6204445 13.8248755,13.6160159 C13.8096305,13.6092674 13.7941738,13.6033626 13.7782936,13.5983012 L9.78897654,12.6828343 C9.64309049,12.6490921 9.4902171,12.6927461 9.38434912,12.7979794 C9.27848115,12.9034236 9.23486357,13.055896 9.2685296,13.2009873 L10.1878871,17.1745484 C10.1929687,17.190365 10.1988973,17.2059708 10.2056729,17.2211548 C10.2101193,17.2327536 10.2135071,17.2443525 10.219224,17.2561622 C10.2391272,17.3017141 10.2672881,17.3434701 10.3020128,17.3791102 L10.3041301,17.3826953 L14.5358849,21.5949822 L0.871293457,21.5949822 Z M21.0353317,24.4044388 C20.7109522,24.7285744 20.2703297,24.9107821 19.8108626,24.9107821 C19.3513956,24.9107821 18.9107731,24.7285744 18.5866054,24.4044388 L18.7907188,24.2007205 L21.0391429,21.9617173 C21.3645811,22.2852203 21.5473092,22.7247119 21.5464652,23.1827617 C21.5458271,23.6408115 21.3618285,24.0796705 21.0353317,24.4023299 L21.0353317,24.4044388 Z" id="Shape" fill="url(#linearGradient-1)"></path>
                <path d="M3.79233374,8.68534483 L14.979218,8.68534483 C15.21683,8.68534483 15.4094828,8.4971724 15.4094828,8.26508621 C15.4094828,8.03300001 15.21683,7.84482759 14.979218,7.84482759 L3.79233374,7.84482759 C3.55472169,7.84482759 3.36206897,8.03300001 3.36206897,8.26508621 C3.36206897,8.4971724 3.55472169,8.68534483 3.79233374,8.68534483 Z" id="Path" fill="url(#linearGradient-2)"></path>
                <path d="M3.79233374,11.2068966 L14.979218,11.2068966 C15.21683,11.2068966 15.4094828,11.0187241 15.4094828,10.7866379 C15.4094828,10.5545517 15.21683,10.3663793 14.979218,10.3663793 L3.79233374,10.3663793 C3.55472169,10.3663793 3.36206897,10.5545517 3.36206897,10.7866379 C3.36206897,11.0187241 3.55472169,11.2068966 3.79233374,11.2068966 Z" id="Path" fill="url(#linearGradient-2)"></path>
                <path d="M6.848659,12.887931 L3.79789272,12.887931 C3.55721074,12.887931 3.36206897,13.0761035 3.36206897,13.3081897 C3.36206897,13.5402758 3.55721074,13.7284483 3.79789272,13.7284483 L6.848659,13.7284483 C7.08934098,13.7284483 7.28448276,13.5402758 7.28448276,13.3081897 C7.28448276,13.0761035 7.08934098,12.887931 6.848659,12.887931 Z" id="Path" fill="url(#linearGradient-3)"></path>
            </g>
        </g>
    </g>
</svg>