<?xml version="1.0" encoding="UTF-8"?>
<svg width="50px" height="50px" viewBox="0 0 50 50" version="1.1" xmlns="http://www.w3.org/2000/svg" xmlns:xlink="http://www.w3.org/1999/xlink">
    <title>advisor</title>
    <defs>
        <linearGradient x1="-49.1750359%" y1="-46.4006696%" x2="108.468176%" y2="135.008022%" id="linearGradient-1">
            <stop stop-color="#6462AA" offset="0%"></stop>
            <stop stop-color="#20B69E" offset="30.8784965%"></stop>
            <stop stop-color="#6462AA" offset="48.2872596%"></stop>
            <stop stop-color="#4CA6D9" offset="100%"></stop>
            <stop stop-color="#4CA7DA" offset="100%"></stop>
        </linearGradient>
        <linearGradient x1="-65.0179459%" y1="-1.8421379%" x2="117.808289%" y2="95.715425%" id="linearGradient-2">
            <stop stop-color="#6462AA" offset="0%"></stop>
            <stop stop-color="#20B69E" offset="30.8784965%"></stop>
            <stop stop-color="#6462AA" offset="48.2872596%"></stop>
            <stop stop-color="#4CA6D9" offset="100%"></stop>
            <stop stop-color="#4CA7DA" offset="100%"></stop>
        </linearGradient>
        <linearGradient x1="-65.0179459%" y1="-46.4006696%" x2="117.808289%" y2="135.008022%" id="linearGradient-3">
            <stop stop-color="#6462AA" offset="0%"></stop>
            <stop stop-color="#20B69E" offset="30.8784965%"></stop>
            <stop stop-color="#6462AA" offset="48.2872596%"></stop>
            <stop stop-color="#4CA6D9" offset="100%"></stop>
            <stop stop-color="#4CA7DA" offset="100%"></stop>
        </linearGradient>
        <linearGradient x1="-65.0179459%" y1="48.8098683%" x2="117.808289%" y2="51.0494818%" id="linearGradient-4">
            <stop stop-color="#6462AA" offset="0%"></stop>
            <stop stop-color="#20B69E" offset="30.8784965%"></stop>
            <stop stop-color="#6462AA" offset="48.2872596%"></stop>
            <stop stop-color="#4CA6D9" offset="100%"></stop>
            <stop stop-color="#4CA7DA" offset="100%"></stop>
        </linearGradient>
        <linearGradient x1="-65.0179459%" y1="49.2033003%" x2="117.808289%" y2="50.7025456%" id="linearGradient-5">
            <stop stop-color="#6462AA" offset="0%"></stop>
            <stop stop-color="#20B69E" offset="30.8784965%"></stop>
            <stop stop-color="#6462AA" offset="48.2872596%"></stop>
            <stop stop-color="#4CA6D9" offset="100%"></stop>
            <stop stop-color="#4CA7DA" offset="100%"></stop>
        </linearGradient>
        <linearGradient x1="31.5971287%" y1="-46.4006696%" x2="60.8493262%" y2="135.008022%" id="linearGradient-6">
            <stop stop-color="#6462AA" offset="0%"></stop>
            <stop stop-color="#20B69E" offset="30.8784965%"></stop>
            <stop stop-color="#6462AA" offset="48.2872596%"></stop>
            <stop stop-color="#4CA6D9" offset="100%"></stop>
            <stop stop-color="#4CA7DA" offset="100%"></stop>
        </linearGradient>
        <linearGradient x1="-65.0179459%" y1="25.8998326%" x2="117.808289%" y2="71.2520054%" id="linearGradient-7">
            <stop stop-color="#6462AA" offset="0%"></stop>
            <stop stop-color="#20B69E" offset="30.8784965%"></stop>
            <stop stop-color="#6462AA" offset="48.2872596%"></stop>
            <stop stop-color="#4CA6D9" offset="100%"></stop>
            <stop stop-color="#4CA7DA" offset="100%"></stop>
        </linearGradient>
    </defs>
    <g id="Page-1" stroke="none" stroke-width="1" fill="none" fill-rule="evenodd">
        <g id="advisor" fill-rule="nonzero">
            <path d="M43.5416667,22.525 L41.1,21.7083333 C40.9289484,21.6526131 40.744197,21.6555457 40.575,21.7166667 L40.3083333,20.1083333 C41.9079762,19.2235539 43.0023209,17.6421488 43.2666667,15.8333333 L44.1666667,15.8333333 C45.0860016,15.8305877 45.8305877,15.0860016 45.8333333,14.1666667 L45.8333333,13.3333333 C45.8319107,12.5360765 45.2660689,11.8514778 44.4833333,11.7 L45.5916667,10.5916667 C45.7451631,10.4327637 45.8316881,10.2209267 45.8333333,10 L45.8333333,9.16666667 C45.8296595,5.94652862 43.220138,3.3370072 40,3.33333333 L35,3.33333333 C31.779862,3.3370072 29.1703405,5.94652862 29.1666667,9.16666667 L29.1666667,10 C29.1683119,10.2209267 29.2548369,10.4327637 29.4083333,10.5916667 L30.5166667,11.7 C29.7339311,11.8514778 29.1680893,12.5360765 29.1666667,13.3333333 L29.1666667,14.1666667 C29.1694123,15.0860016 29.9139984,15.8305877 30.8333333,15.8333333 L31.7333333,15.8333333 C31.9976791,17.6421488 33.0920238,19.2235539 34.6916667,20.1083333 L34.425,21.7166667 C34.255803,21.6555457 34.0710516,21.6526131 33.9,21.7083333 L31.4583333,22.525 C27.7368983,23.0468471 24.9761156,26.2422303 25,30 L25,30.125 L19.9666667,23.8333333 C19.7974031,21.6741313 17.9991502,20.0063967 15.8333333,20 L7.5,20 C7.03976271,20 6.66666667,20.373096 6.66666667,20.8333333 C6.66666667,23.1345198 8.53214688,25 10.8333333,25 L13.7166667,25 L25,41.9166667 L25,47.5 C25.0041185,48.8790023 26.1209977,49.9958815 27.5,50 L49.1666667,50 C49.626904,50 50.0001538,49.626904 50.0001538,49.1666667 L50.0001538,30 C50.0238844,26.2422303 47.2631017,23.0468471 43.5416667,22.525 Z M44.1666667,14.1666667 L43.3333333,14.1666667 L43.3333333,13.3333333 L44.1666667,13.3333333 L44.1666667,14.1666667 Z M31.6666667,14.1666667 L30.8333333,14.1666667 L30.8333333,13.3333333 L31.6666667,13.3333333 L31.6666667,14.1666667 Z M31.6666667,10 L31.6666667,10.4916667 L30.8333333,9.65833333 L30.8333333,9.16666667 C30.8333333,6.86548021 32.6988135,5 35,5 L40,5 C42.3011865,5 44.1666667,6.86548021 44.1666667,9.16666667 L44.1666667,9.65833333 L43.3333333,10.4916667 L43.3333333,10 C43.3369519,9.68491389 43.1584286,9.39603071 42.875,9.25833333 L39.5416667,7.59166667 C39.3646144,7.49983467 39.1600339,7.47611519 38.9666667,7.525 L32.3,9.19166667 C31.9282313,9.28357731 31.6669627,9.61703863 31.6666667,10 L31.6666667,10 Z M33.3333333,15 L33.3333333,10.65 L39.0666667,9.21666667 L41.6666667,10.5166667 L41.6666667,15 C41.6666667,17.3011865 39.8011865,19.1666667 37.5,19.1666667 C35.1988135,19.1666667 33.3333333,17.3011865 33.3333333,15 Z M39.1083333,23.05 L37.5,24.6583333 L35.8916667,23.05 L36.2833333,20.7 C37.0847025,20.8777845 37.9152975,20.8777845 38.7166667,20.7 L39.1083333,23.05 Z M33.9416667,23.45 L36.9083333,26.425 C37.23584,26.7499816 37.76416,26.7499816 38.0916667,26.425 L41.0583333,23.45 L42,23.7666667 L38.7416667,28.3333333 L36.2583333,28.3333333 L33,23.7666667 L33.9416667,23.45 Z M39.0166667,33.3333333 L39.9416667,38.8833333 L37.5,41.325 L35.0583333,38.8833333 L35.9833333,33.3333333 L39.0166667,33.3333333 Z M36.2583333,31.6666667 L36.5416667,30 L38.4583333,30 L38.7416667,31.6666667 L36.2583333,31.6666667 Z M10.8333333,23.3333333 C9.77450135,23.3304128 8.83122016,22.663783 8.475,21.6666667 L15.8333333,21.6666667 C16.8921653,21.6695872 17.8354465,22.336217 18.1916667,23.3333333 L10.8333333,23.3333333 Z M48.3333333,48.3333333 L45,48.3333333 L45,40 L48.3333333,40 L48.3333333,48.3333333 Z M48.3334815,38.3333333 L44.1666667,38.3333333 C43.7064294,38.3333333 43.3333333,38.7064294 43.3333333,39.1666667 L43.3333333,48.3333333 L27.5,48.3333333 C27.0397627,48.3333333 26.6666667,47.9602373 26.6666667,47.5 L26.6666667,41.6666667 C26.6670698,41.5030496 26.6176575,41.3431862 26.525,41.2083333 L15.725,25 L18.7666667,25 L25.1833333,33.0166667 C25.4014015,33.2964646 25.7747851,33.4041067 26.1083333,33.2833333 C26.4415759,33.1668404 26.6652603,32.8530145 26.6666667,32.5 L26.6666667,30 C26.6470388,27.2264071 28.5791482,24.8208439 31.2916667,24.2416667 L34.9583333,29.3666667 L33.3416667,39.0333333 C33.2995374,39.2983695 33.3861932,39.5676214 33.575,39.7583333 L36.9083333,43.0916667 C37.2369468,43.4139503 37.7630532,43.4139503 38.0916667,43.0916667 L41.425,39.7583333 C41.6138068,39.5676214 41.7004626,39.2983695 41.6583333,39.0333333 L40.0416667,29.3666667 L43.7083333,24.2416667 C46.4208518,24.8208439 48.3529612,27.2264071 48.3334815,30 L48.3334815,38.3333333 Z" id="Shape" fill="url(#linearGradient-1)"></path>
            <path d="M2.5,18.3333333 L22.5,18.3333333 C23.8807119,18.3333333 25,17.2140452 25,15.8333333 L25,2.5 C25,1.11928813 23.8807119,0 22.5,0 L2.5,0 C1.11928813,0 0,1.11928813 0,2.5 L0,15.8333333 C0,17.2140452 1.11928813,18.3333333 2.5,18.3333333 Z M1.66666667,2.5 C1.66666667,2.03976271 2.03976271,1.66666667 2.5,1.66666667 L22.5,1.66666667 C22.9602373,1.66666667 23.3333333,2.03976271 23.3333333,2.5 L23.3333333,15.8333333 C23.3333333,16.2935706 22.9602373,16.6666667 22.5,16.6666667 L2.5,16.6666667 C2.03976271,16.6666667 1.66666667,16.2935706 1.66666667,15.8333333 L1.66666667,2.5 Z" id="Shape" fill="url(#linearGradient-2)"></path>
            <polygon id="Path" fill="url(#linearGradient-3)" points="3.33333333 3.33333333 5 3.33333333 5 5 3.33333333 5"></polygon>
            <polygon id="Path" fill="url(#linearGradient-4)" points="6.66666667 3.33333333 21.6666667 3.33333333 21.6666667 5 6.66666667 5"></polygon>
            <polygon id="Path" fill="url(#linearGradient-5)" points="3.33333333 10 21.6666667 10 21.6666667 11.6666667 3.33333333 11.6666667"></polygon>
            <polygon id="Path" fill="url(#linearGradient-5)" points="3.33333333 6.66666667 21.6666667 6.66666667 21.6666667 8.33333333 3.33333333 8.33333333"></polygon>
            <polygon id="Path" fill="url(#linearGradient-5)" points="3.33333333 13.3333333 21.6666667 13.3333333 21.6666667 15 3.33333333 15"></polygon>
            <path d="M7.5,39.1666667 C5.65905083,39.1666667 4.16666667,40.6590508 4.16666667,42.5 C4.16666667,44.3409492 5.65905083,45.8333333 7.5,45.8333333 C9.34094917,45.8333333 10.8333333,44.3409492 10.8333333,42.5 C10.8333333,40.6590508 9.34094917,39.1666667 7.5,39.1666667 Z M7.5,44.1666667 C6.57952542,44.1666667 5.83333333,43.4204746 5.83333333,42.5 C5.83333333,41.5795254 6.57952542,40.8333333 7.5,40.8333333 C8.42047458,40.8333333 9.16666667,41.5795254 9.16666667,42.5 C9.16666667,43.4204746 8.42047458,44.1666667 7.5,44.1666667 Z" id="Shape" fill="url(#linearGradient-3)"></path>
            <path d="M14.3691667,40.025 L13.8116667,39.8858333 L14.1075,39.3933333 C14.3042815,39.0652471 14.2523916,38.6453174 13.9816667,38.375 L11.625,36.0183333 C11.3546826,35.7476084 10.9347529,35.6957185 10.6066667,35.8925 L10.1141667,36.1883333 L9.975,35.6308333 C9.88211742,35.2600574 9.54889949,35 9.16666667,35 L5.83333333,35 C5.45110051,35 5.11788258,35.2600574 5.025,35.6308333 L4.88583333,36.1883333 L4.39333333,35.8925 C4.06524713,35.6957185 3.6453174,35.7476084 3.375,36.0183333 L1.01833333,38.375 C0.747608364,38.6453174 0.69571852,39.0652471 0.8925,39.3933333 L1.18833333,39.8858333 L0.630833333,40.025 C0.260057448,40.1178826 0,40.4511005 0,40.8333333 L0,44.1666667 C0,44.5488995 0.260057448,44.8821174 0.630833333,44.975 L1.18833333,45.1141667 L0.8925,45.6066667 C0.69571852,45.9347529 0.747608364,46.3546826 1.01833333,46.625 L3.375,48.9816667 C3.6453174,49.2523916 4.06524713,49.3042815 4.39333333,49.1075 L4.88583333,48.8116667 L5.025,49.3691667 C5.11788258,49.7399426 5.45110051,50 5.83333333,50 L9.16666667,50 C9.54889949,50 9.88211742,49.7399426 9.975,49.3691667 L10.1141667,48.8116667 L10.6066667,49.1075 C10.9347529,49.3042815 11.3546826,49.2523916 11.625,48.9816667 L13.9816667,46.625 C14.2523916,46.3546826 14.3042815,45.9347529 14.1075,45.6066667 L13.8116667,45.1141667 L14.3691667,44.975 C14.7399426,44.8821174 15,44.5488995 15,44.1666667 L15,40.8333333 C15,40.4511005 14.7399426,40.1178826 14.3691667,40.025 L14.3691667,40.025 Z M13.3333333,43.5158333 L12.3158333,43.7658333 C12.0597599,43.8300322 11.8492526,44.0117716 11.7483801,44.2557385 C11.6475076,44.4997053 11.6682027,44.7770396 11.8041667,45.0033333 L12.3433333,45.9025 L10.9066667,47.3391667 L10.0075,46.8 C9.78120624,46.664036 9.50387196,46.6433409 9.25990513,46.7442134 C9.01593829,46.8450859 8.83419883,47.0555933 8.77,47.3116667 L8.51583333,48.3333333 L6.48416667,48.3333333 L6.23416667,47.3158333 C6.16996783,47.0597599 5.98822838,46.8492526 5.74426154,46.7483801 C5.5002947,46.6475076 5.22296043,46.6682027 4.99666667,46.8041667 L4.0975,47.3433333 L2.65666667,45.9066667 L3.19583333,45.0075 C3.33179733,44.7812062 3.35249242,44.503872 3.25161993,44.2599051 C3.15074745,44.0159383 2.94024006,43.8341988 2.68416667,43.77 L1.66666667,43.5158333 L1.66666667,41.4841667 L2.68416667,41.2341667 C2.94024006,41.1699678 3.15074745,40.9882284 3.25161993,40.7442615 C3.35249242,40.5002947 3.33179733,40.2229604 3.19583333,39.9966667 L2.65666667,39.0975 L4.09333333,37.6608333 L4.9925,38.2 C5.21890906,38.3359551 5.49636043,38.3565433 5.74035631,38.2554945 C5.9843522,38.1544457 6.16600783,37.9437223 6.23,37.6875 L6.48,36.6708333 L8.51166667,36.6708333 L8.76166667,37.6875 C8.82565884,37.9437223 9.00731447,38.1544457 9.25131035,38.2554945 C9.49530624,38.3565433 9.7727576,38.3359551 9.99916667,38.2 L10.8983333,37.6608333 L12.335,39.0975 L11.7958333,39.9966667 C11.6598693,40.2229604 11.6391743,40.5002947 11.7400467,40.7442615 C11.8409192,40.9882284 12.0514266,41.1699678 12.3075,41.2341667 L13.325,41.4841667 L13.3333333,43.5158333 Z" id="Shape" fill="url(#linearGradient-3)"></path>
            <polygon id="Path" fill="url(#linearGradient-3)" points="6.66666667 31.6666667 8.33333333 31.6666667 8.33333333 33.3333333 6.66666667 33.3333333"></polygon>
            <polygon id="Path" fill="url(#linearGradient-6)" points="6.66666667 25.8333333 8.33333333 25.8333333 8.33333333 30 6.66666667 30"></polygon>
            <polygon id="Path" fill="url(#linearGradient-3)" points="16.6666667 41.6666667 18.3333333 41.6666667 18.3333333 43.3333333 16.6666667 43.3333333"></polygon>
            <polygon id="Path" fill="url(#linearGradient-7)" points="20 41.6666667 23.3333333 41.6666667 23.3333333 43.3333333 20 43.3333333"></polygon>
        </g>
    </g>
</svg>