<svg xmlns="http://www.w3.org/2000/svg" width="58" height="58" viewBox="0 0 58 58">
    <defs>
        <linearGradient id="0g2yfs9sea" x1="408.124%" x2="-364.133%" y1="54.617%" y2="45.069%">
            <stop offset="0%" stop-color="#6462AA"/>
            <stop offset="33.452%" stop-color="#20B69E"/>
            <stop offset="51.202%" stop-color="#6462AA"/>
            <stop offset="100%" stop-color="#4CA7DA"/>
        </linearGradient>
        <linearGradient id="fjlb57xdvb" x1="285.589%" x2="-222.434%" y1="384.948%" y2="-307.726%">
            <stop offset="0%" stop-color="#6462AA"/>
            <stop offset="33.452%" stop-color="#20B69E"/>
            <stop offset="51.202%" stop-color="#6462AA"/>
            <stop offset="100%" stop-color="#4CA7DA"/>
        </linearGradient>
        <linearGradient id="hdo96kfmcc" x1="408.124%" x2="-364.133%" y1="377.52%" y2="-299.793%">
            <stop offset="0%" stop-color="#6462AA"/>
            <stop offset="33.452%" stop-color="#20B69E"/>
            <stop offset="51.202%" stop-color="#6462AA"/>
            <stop offset="100%" stop-color="#4CA7DA"/>
        </linearGradient>
    </defs>
    <g fill="none" fill-rule="evenodd">
        <g fill-rule="nonzero">
            <g>
                <path fill="url(#0g2yfs9sea)" d="M51.828 5.484H39.054c-.47 0-.85.38-.85.85s.38.85.85.85h12.774c.47 0 .85-.38.85-.85s-.38-.85-.85-.85zM51.828 10.743H39.054c-.47 0-.85.38-.85.85 0 .469.38.849.85.849h12.774c.47 0 .85-.38.85-.85 0-.469-.38-.85-.85-.85z" transform="translate(-237.000000, -464.000000) translate(237.000000, 464.000000)"/>
                <path fill="url(#fjlb57xdvb)" d="M32.98 39.87l-3.866-1.05-1.16-1.735c-.698-1.042-2.134-1.346-3.204-.593v-2.05c2.228-1.496 3.776-3.93 4.071-6.734h.667c1.198 0 2.173-.975 2.173-2.173v-1.521c0-.79-.425-1.481-1.058-1.861v-4.434c0-4.433-3.606-8.04-8.04-8.04h-5.95c-4.433 0-8.04 3.607-8.04 8.04v4.434c-.632.38-1.057 1.07-1.057 1.86v1.522c0 1.198.975 2.173 2.173 2.173h.666c.296 2.803 1.843 5.238 4.072 6.734v2.05c-1.069-.753-2.506-.45-3.204.593l-1.16 1.735-3.867 1.05C2.548 40.861 0 44.194 0 47.974v.835c0 .469.38.85.85.85.469 0 .85-.381.85-.85v-.835c0-3.015 2.032-5.673 4.941-6.464l3.734-1.014 4.14 3.625c.983.861 2.47.866 3.46.01l1.613-1.395 1.614 1.396c.99.857 2.478.849 3.46-.011l4.14-3.625 3.733 1.014c2.91.79 4.942 3.448 4.942 6.464v5.634c0 1.474-1.2 2.674-2.673 2.674h-1.859v-4.076c0-.47-.38-.85-.85-.85-.469 0-.849.38-.849.85v4.076H7.93v-4.076c0-.47-.38-.85-.85-.85-.469 0-.85.38-.85.85v4.076H4.374c-1.474 0-2.674-1.2-2.674-2.674v-.828c0-.469-.38-.85-.85-.85-.469 0-.849.381-.849.85v.828c0 2.411 1.962 4.373 4.373 4.373h30.43c2.412 0 4.374-1.962 4.374-4.373v-5.634c0-3.78-2.549-7.113-6.197-8.104zm-3.018-15.856v1.521c0 .261-.213.474-.474.474h-.615V23.54h.615c.261 0 .474.213.474.474zm-19.659 1.995H9.69c-.262 0-.474-.213-.474-.474v-1.521c0-.261.212-.474.474-.474h.614v2.469zm.85-4.168h-.88V17.72c0-3.496 2.844-6.34 6.34-6.34h5.95c3.496 0 6.341 2.844 6.341 6.34v4.122h-.88c-.493 0-.893-.4-.893-.893v-1.792c0-1.41-1.147-2.556-2.557-2.556-.363 0-.715.075-1.046.224-2.504 1.124-5.376 1.123-7.879 0-.331-.149-.683-.224-1.047-.224-1.41 0-2.556 1.147-2.556 2.556v1.792c0 .493-.4.893-.893.893zm.85 4.888v-3.332c1.013-.352 1.742-1.317 1.742-2.449v-1.792c0-.473.385-.857.857-.857.122 0 .24.025.351.075 2.946 1.322 6.325 1.322 9.27 0 .112-.05.23-.075.351-.075.473 0 .857.385.857.857v1.792c0 1.132.73 2.097 1.743 2.45v3.33c0 4.173-3.396 7.586-7.586 7.586-4.188 0-7.585-3.412-7.585-7.585zm4.86 16.117c-.351.304-.88.303-1.229-.003l-3.92-3.434.921-1.38c.189-.281.575-.34.838-.133l4.78 3.749-1.39 1.201zm2.725-2.313l-3.462-2.716v-2.476c1.07.433 2.239.673 3.462.673 1.224 0 2.392-.24 3.463-.673v2.476l-3.463 2.716zm3.954 2.31c-.349.306-.877.307-1.229.003l-1.389-1.201 4.779-3.749c.263-.206.65-.149.838.134l.922 1.379-3.92 3.434z" transform="translate(-237.000000, -464.000000) translate(237.000000, 464.000000)"/>
                <path fill="url(#hdo96kfmcc)" d="M57.15 5.198c.47 0 .85-.38.85-.85v-.664c0-2.02-1.644-3.665-3.665-3.665H36.48c-2.02 0-3.665 1.644-3.665 3.665v10.989c0 2.02 1.644 3.665 3.665 3.665h.793l-1.11 5.17c-.109.51.126 1.022.585 1.271.458.25 1.015.17 1.385-.2l6.027-6.036c.13-.13.31-.205.495-.205h9.68c2.021 0 3.665-1.644 3.665-3.665V8.32c0-.47-.38-.85-.85-.85-.469 0-.85.38-.85.85v6.353c0 1.084-.88 1.966-1.965 1.966h-9.68c-.641 0-1.244.25-1.697.703l-4.755 4.763.82-3.827c.181-.844-.463-1.64-1.325-1.64H36.48c-1.084 0-1.966-.881-1.966-1.965V3.683c0-1.083.882-1.965 1.966-1.965h17.855c1.084 0 1.966.882 1.966 1.966v.664c0 .47.38.85.85.85z" transform="translate(-237.000000, -464.000000) translate(237.000000, 464.000000)"/>
            </g>
        </g>
    </g>
</svg>
