<svg xmlns="http://www.w3.org/2000/svg" width="56" height="50" viewBox="0 0 56 50">
    <defs>
        <linearGradient id="xtn3d31toa" x1="408.124%" x2="-364.133%" y1="319.166%" y2="-237.471%">
            <stop offset="0%" stop-color="#6462AA"/>
            <stop offset="33.452%" stop-color="#20B69E"/>
            <stop offset="51.202%" stop-color="#6462AA"/>
            <stop offset="100%" stop-color="#4CA7DA"/>
        </linearGradient>
    </defs>
    <g fill="none" fill-rule="evenodd">
        <g fill="url(#xtn3d31toa)" fill-rule="nonzero" transform="translate(-40.000000, -528.000000)">
            <g>
                <g>
                    <path d="M38.03 0c2.119 0 3.843 1.727 3.843 3.85v6.12h8.52c2.9 0 5.26 2.36 5.26 5.26v29.395c0 2.903-2.358 5.264-5.256 5.264H5.256C2.358 49.889 0 47.528 0 44.625V15.23c0-2.9 2.36-5.26 5.26-5.26h8.519V3.85c0-2.123 1.724-3.85 3.844-3.85zm15.448 30.888c-1.51 1.646-3.678 2.679-6.082 2.679h-1.169v3.523c0 .6-.486 1.087-1.087 1.087h-6.617c-.6 0-1.087-.487-1.087-1.087v-3.523h-19.22v3.523c0 .6-.487 1.087-1.087 1.087h-6.617c-.6 0-1.087-.487-1.087-1.087v-3.523H8.256c-2.404 0-4.572-1.034-6.082-2.68v13.738c0 1.704 1.382 3.09 3.082 3.09h45.14c1.7 0 3.082-1.386 3.082-3.09zm-9.424-3.018H39.61v8.133h4.444V27.87zm-28.012 0H11.6v8.133h4.443V27.87zm34.35-15.726H5.26c-1.702 0-3.086 1.384-3.086 3.086v10.08c0 3.354 2.728 6.083 6.082 6.083h1.169v-4.61c0-.6.486-1.087 1.087-1.087h6.617c.6 0 1.087.486 1.087 1.087v4.61h19.22v-4.61c0-.6.487-1.087 1.087-1.087h6.618c.6 0 1.087.486 1.087 1.087v4.61h1.168c3.354 0 6.082-2.729 6.082-6.083V15.23c0-1.702-1.384-3.086-3.086-3.086zm-9.673 3.64c.6 0 1.087.487 1.087 1.087s-.487 1.087-1.087 1.087H14.933c-.6 0-1.087-.487-1.087-1.087s.487-1.087 1.087-1.087zm-2.69-13.61H17.623c-.92 0-1.67.752-1.67 1.675V9.97h2.82V6.091c0-.6.487-1.087 1.088-1.087h15.93c.6 0 1.087.487 1.087 1.087v3.88H39.7V3.848c0-.923-.749-1.675-1.67-1.675zm-3.324 5.004H20.948V9.97h13.757V7.178z" transform="translate(20.000000, 508.000000) translate(20.000000, 20.000000)"/>
                </g>
            </g>
        </g>
    </g>
</svg>
