<?xml version="1.0" encoding="UTF-8"?>
<svg width="375px" height="186px" viewBox="0 0 375 186" version="1.1" xmlns="http://www.w3.org/2000/svg" xmlns:xlink="http://www.w3.org/1999/xlink">
    <title>blog copy</title>
    <defs>
        <rect id="path-1" x="0" y="0" width="375" height="186" rx="14"></rect>
        <linearGradient x1="320.793256%" y1="384.94761%" x2="-263.144137%" y2="-307.725694%" id="linearGradient-3">
            <stop stop-color="#6462AA" offset="0%"></stop>
            <stop stop-color="#20B69E" offset="33.4517045%"></stop>
            <stop stop-color="#6462AA" offset="51.2019231%"></stop>
            <stop stop-color="#4CA7DA" offset="100%"></stop>
        </linearGradient>
        <linearGradient x1="408.124081%" y1="51.6303561%" x2="-364.133121%" y2="48.2587716%" id="linearGradient-4">
            <stop stop-color="#6462AA" offset="0%"></stop>
            <stop stop-color="#20B69E" offset="33.4517045%"></stop>
            <stop stop-color="#6462AA" offset="51.2019231%"></stop>
            <stop stop-color="#4CA7DA" offset="100%"></stop>
        </linearGradient>
        <linearGradient x1="408.124081%" y1="65.3802474%" x2="-364.133121%" y2="33.5738202%" id="linearGradient-5">
            <stop stop-color="#6462AA" offset="0%"></stop>
            <stop stop-color="#20B69E" offset="33.4517045%"></stop>
            <stop stop-color="#6462AA" offset="51.2019231%"></stop>
            <stop stop-color="#4CA7DA" offset="100%"></stop>
        </linearGradient>
    </defs>
    <g id="Page-1" stroke="none" stroke-width="1" fill="none" fill-rule="evenodd">
        <g id="Group-26">
            <mask id="mask-2" fill="white">
                <use xlink:href="#path-1"></use>
            </mask>
            <use id="Mask" fill="#EAEBF6" xlink:href="#path-1"></use>
            <g id="Stories" mask="url(#mask-2)">
                <g transform="translate(145.000000, 44.000000)" id="story">
                    <path d="M81.6030522,80.4720173 L71.9318987,70.8363922 L71.9318987,1.62792943 C71.9318987,0.72891171 71.2000579,0 70.2974274,0 L21.2632899,0 C21.2321646,0 21.2026357,0.0158977483 21.1715104,0.0182824208 C21.0214711,0.0254363973 20.8730278,0.0556422209 20.7317674,0.105719976 C20.6838825,0.120028051 20.6359976,0.136720636 20.589709,0.15659277 C20.4077463,0.234491839 20.2417453,0.344981037 20.0996867,0.481701876 L0.486031684,20.016855 C0.348761637,20.1551653 0.237828234,20.3165275 0.158818303,20.4937875 C0.135673781,20.5446603 0.122904474,20.594738 0.104548749,20.6472007 C0.05746188,20.7823315 0.0295289706,20.9230265 0.0215482561,21.0653114 C0.0215482561,21.1010813 0,21.1320819 0,21.167852 L0,83.0244009 C0,83.9234186 0.731840837,84.6523303 1.63447125,84.6523303 L58.0596431,84.6523303 L67.7323929,94.2815964 C69.5639903,96.1265302 72.0627841,97.1614735 74.6677226,97.1551435 C78.638179,97.158294 82.2183732,94.7768113 83.7371227,91.1227139 C85.2550739,87.4694113 84.4122997,83.264457 81.6014562,80.4720173 L81.6030522,80.4720173 Z M67.7475565,89.6990704 L42.3071073,64.3683931 L51.5664506,55.1445197 L76.9989191,80.4847355 L67.7475565,89.6990704 Z M40.9240318,61.1403554 L38.7077588,51.5627569 L48.325441,53.7685696 L40.9240318,61.1403554 Z M19.6288186,5.55785282 L19.6288186,19.5351531 L5.59535061,19.5351531 L19.6288186,5.55785282 Z M3.28410611,81.3964714 L3.28410611,22.791012 L21.2632899,22.791012 C22.1659203,22.791012 22.8977611,22.0621003 22.8977611,21.1630826 L22.8977611,3.25585886 L68.6629562,3.25585886 L68.6629562,67.5789434 L52.7236692,51.6915288 L52.7053132,51.6804003 C52.5704375,51.5524234 52.4148115,51.4482931 52.2448202,51.3727788 C52.1985313,51.3529066 52.154637,51.3385986 52.1091462,51.321906 C52.0516843,51.2964696 51.9934244,51.2742127 51.9335682,51.2551354 L36.8969116,47.8045292 C36.3470334,47.6773472 35.7708183,47.841889 35.3717775,48.2385379 C34.9727366,48.6359814 34.8083319,49.210685 34.935227,49.7575676 L38.4004974,64.7348364 C38.4196514,64.7944528 38.4419977,64.8532745 38.4675363,64.9105064 C38.484296,64.9542253 38.4970653,64.9979439 38.5186135,65.0424576 C38.5936333,65.2141533 38.6997781,65.3715411 38.8306635,65.505877 L38.8386442,65.5193901 L54.7891045,81.3964714 L3.28410611,81.3964714 Z M79.2870193,91.9859615 C78.0643582,93.2077036 76.4035503,93.8944863 74.671713,93.8944863 C72.9398757,93.8944863 71.2790678,93.2077036 70.0572049,91.9859615 L70.8265554,91.2181004 L79.3013847,82.7787807 C80.5280364,83.9981379 81.2167807,85.6546833 81.2135994,87.3811787 C81.2111943,89.1076742 80.5176612,90.7618351 79.2870193,91.9780127 L79.2870193,91.9859615 Z" id="Shape" fill="url(#linearGradient-3)" fill-rule="nonzero"></path>
                    <path d="M14.294181,32.737069 L56.4601293,32.737069 C57.355744,32.737069 58.0818966,32.0278037 58.0818966,31.1530172 C58.0818966,30.2782308 57.355744,29.5689655 56.4601293,29.5689655 L14.294181,29.5689655 C13.3985664,29.5689655 12.6724138,30.2782308 12.6724138,31.1530172 C12.6724138,32.0278037 13.3985664,32.737069 14.294181,32.737069 Z" id="Path" fill="url(#linearGradient-4)" fill-rule="nonzero"></path>
                    <path d="M14.294181,42.2413793 L56.4601293,42.2413793 C57.355744,42.2413793 58.0818966,41.532114 58.0818966,40.6573276 C58.0818966,39.7825412 57.355744,39.0732759 56.4601293,39.0732759 L14.294181,39.0732759 C13.3985664,39.0732759 12.6724138,39.7825412 12.6724138,40.6573276 C12.6724138,41.532114 13.3985664,42.2413793 14.294181,42.2413793 Z" id="Path" fill="url(#linearGradient-4)" fill-rule="nonzero"></path>
                    <path d="M25.8141762,48.5775862 L14.3151341,48.5775862 C13.4079482,48.5775862 12.6724138,49.2868515 12.6724138,50.1616379 C12.6724138,51.0364244 13.4079482,51.7456897 14.3151341,51.7456897 L25.8141762,51.7456897 C26.7213622,51.7456897 27.4568966,51.0364244 27.4568966,50.1616379 C27.4568966,49.2868515 26.7213622,48.5775862 25.8141762,48.5775862 Z" id="Path" fill="url(#linearGradient-5)" fill-rule="nonzero"></path>
                </g>
            </g>
        </g>
    </g>
</svg>