<?xml version="1.0" encoding="UTF-8"?>
<svg width="50px" height="50px" viewBox="0 0 50 50" version="1.1" xmlns="http://www.w3.org/2000/svg" xmlns:xlink="http://www.w3.org/1999/xlink">
    <title>Group 20</title>
    <defs>
        <linearGradient x1="408.124081%" y1="383.728279%" x2="-364.133121%" y2="-306.423443%" id="linearGradient-1">
            <stop stop-color="#6462AA" offset="0%"></stop>
            <stop stop-color="#20B69E" offset="33.4517045%"></stop>
            <stop stop-color="#6462AA" offset="51.2019231%"></stop>
            <stop stop-color="#4CA7DA" offset="100%"></stop>
        </linearGradient>
        <linearGradient x1="408.124081%" y1="384.272112%" x2="-364.133121%" y2="-307.004259%" id="linearGradient-2">
            <stop stop-color="#6462AA" offset="0%"></stop>
            <stop stop-color="#20B69E" offset="33.4517045%"></stop>
            <stop stop-color="#6462AA" offset="51.2019231%"></stop>
            <stop stop-color="#4CA7DA" offset="100%"></stop>
        </linearGradient>
        <linearGradient x1="408.124081%" y1="52.2122892%" x2="-364.133121%" y2="47.6372643%" id="linearGradient-3">
            <stop stop-color="#6462AA" offset="0%"></stop>
            <stop stop-color="#20B69E" offset="33.4517045%"></stop>
            <stop stop-color="#6462AA" offset="51.2019231%"></stop>
            <stop stop-color="#4CA7DA" offset="100%"></stop>
        </linearGradient>
        <linearGradient x1="408.124081%" y1="52.7849344%" x2="-364.133121%" y2="47.0256764%" id="linearGradient-4">
            <stop stop-color="#6462AA" offset="0%"></stop>
            <stop stop-color="#20B69E" offset="33.4517045%"></stop>
            <stop stop-color="#6462AA" offset="51.2019231%"></stop>
            <stop stop-color="#4CA7DA" offset="100%"></stop>
        </linearGradient>
        <linearGradient x1="408.124081%" y1="52.7858803%" x2="-364.133121%" y2="47.0246661%" id="linearGradient-5">
            <stop stop-color="#6462AA" offset="0%"></stop>
            <stop stop-color="#20B69E" offset="33.4517045%"></stop>
            <stop stop-color="#6462AA" offset="51.2019231%"></stop>
            <stop stop-color="#4CA7DA" offset="100%"></stop>
        </linearGradient>
        <linearGradient x1="408.124081%" y1="52.7853004%" x2="-364.133121%" y2="47.0252854%" id="linearGradient-6">
            <stop stop-color="#6462AA" offset="0%"></stop>
            <stop stop-color="#20B69E" offset="33.4517045%"></stop>
            <stop stop-color="#6462AA" offset="51.2019231%"></stop>
            <stop stop-color="#4CA7DA" offset="100%"></stop>
        </linearGradient>
        <linearGradient x1="403.976781%" y1="384.94761%" x2="-359.337202%" y2="-307.725694%" id="linearGradient-7">
            <stop stop-color="#6462AA" offset="0%"></stop>
            <stop stop-color="#20B69E" offset="33.4517045%"></stop>
            <stop stop-color="#6462AA" offset="51.2019231%"></stop>
            <stop stop-color="#4CA7DA" offset="100%"></stop>
        </linearGradient>
        <linearGradient x1="380.749962%" y1="384.94761%" x2="-332.477811%" y2="-307.725694%" id="linearGradient-8">
            <stop stop-color="#6462AA" offset="0%"></stop>
            <stop stop-color="#20B69E" offset="33.4517045%"></stop>
            <stop stop-color="#6462AA" offset="51.2019231%"></stop>
            <stop stop-color="#4CA7DA" offset="100%"></stop>
        </linearGradient>
    </defs>
    <g id="Page-1" stroke="none" stroke-width="1" fill="none" fill-rule="evenodd">
        <g id="Group-20" fill-rule="nonzero">
            <path d="M36.1188802,41.6294808 C36.9925781,40.8176319 37.7863281,40.0802621 38.6367187,39.2900277 C37.628776,38.917111 36.7144531,38.5788298 35.7425781,38.2194548 C35.8696615,39.372059 35.9880208,40.4438038 36.1188802,41.6294808 M39.8721354,37.6656788 C39.9472656,37.4772673 40.0092448,37.3303923 40.0651042,37.1811735 C40.5595052,35.8596892 41.0532552,34.5380746 41.5467448,33.2160694 C43.6621094,27.5488819 45.7777344,21.8816944 47.8917969,16.213986 C48.2022135,15.3818246 48.0182292,14.9669808 47.1992187,14.65396 C46.5925781,14.4219288 45.9833333,14.1961475 45.3722656,13.9757048 C44.6076823,13.6997933 44.1726562,13.8978402 43.8854167,14.6668506 C41.2529948,21.71646 38.6235677,28.767111 35.9949219,35.8181527 C35.9526042,35.9319548 35.9330729,36.0543506 35.8977865,36.1928923 C37.2376302,36.6893767 38.5421875,37.1728402 39.8721354,37.6656788 M37.5335937,42.9841683 C36.9865885,43.490809 36.5574219,43.8879444 36.1286458,44.2854704 C35.8108073,44.5801319 35.4583333,44.7469288 35.0195312,44.5760954 C34.5688802,44.4005746 34.4113281,44.0448454 34.363151,43.5865121 C34.1559896,41.6168506 33.9403646,39.6479704 33.7084635,37.6810433 C33.6272135,36.9919808 33.6880208,36.3548715 33.9438802,35.6896371 C35.108724,32.6621631 36.228125,29.6173715 37.3501302,26.5738819 C37.459375,26.2770069 37.5255208,25.9457569 37.5261719,25.6303923 C37.5361979,19.4900277 37.5339844,13.3495329 37.5333333,7.20903813 C37.5332031,6.1350798 37.2476562,5.84966313 36.1792969,5.84966313 C26.5449219,5.84953292 16.9104167,5.84953292 7.27604167,5.84953292 C6.18346354,5.84966313 5.89335937,6.14067876 5.89322917,7.24041834 C5.89270833,12.2112517 5.89335937,17.182085 5.89270833,22.1529183 C5.89257812,23.0409392 5.55351563,23.4988819 4.90924479,23.4896371 C4.27421875,23.4803923 3.94023437,23.0130746 3.94010417,22.1270069 C3.93958333,17.1398975 3.93854167,12.1527881 3.94049479,7.16567876 C3.94127604,5.08364751 5.1265625,3.90031417 7.20546875,3.90018397 C15.7983073,3.89979334 24.3914062,3.90005376 32.9842448,3.90005376 L33.5766927,3.90005376 C33.5841146,3.75343917 33.5916667,3.65929855 33.5933594,3.56515792 C33.6169271,2.17700688 33.3933594,1.95044438 32.0023437,1.95044438 C22.4492188,1.95044438 12.8960938,1.95044438 3.34296875,1.95044438 C2.23658854,1.95044438 1.95325521,2.23130376 1.95325521,3.32791834 C1.953125,16.4535694 1.953125,29.5792204 1.95351563,42.7047413 C1.95364583,42.867111 1.94088542,43.0322152 1.96510417,43.1913298 C2.03671875,43.6607308 2.31510417,43.9724496 2.78164063,44.0369027 C3.14466146,44.0870329 3.52018229,44.0469288 3.93984375,44.0469288 L3.93984375,43.4380746 C3.93984375,39.5231006 3.93958333,35.6081267 3.94010417,31.6931527 C3.94023437,30.781434 4.29192708,30.3030485 4.94609375,30.3194548 C5.58385417,30.3354704 5.89270833,30.7815642 5.89283854,31.692111 C5.89322917,36.6629444 5.89257812,41.6337777 5.89335937,46.604611 C5.89361979,47.6617725 6.19635417,47.9592985 7.26432292,47.9592985 C16.8988281,47.9594288 26.5333333,47.9594288 36.1678385,47.9594288 C36.2817708,47.9594288 36.3958333,47.9629444 36.5096354,47.9582569 C37.1378906,47.9322152 37.5089844,47.582085 37.525651,46.9517465 C37.5453125,46.2050017 37.5326823,45.4573454 37.5334635,44.7100798 C37.5341146,44.181434 37.5335937,43.6527881 37.5335937,42.9841683 M37.109375,49.9089079 L6.34765625,49.9089079 C6.30820313,49.8826058 6.27226563,49.8449756 6.22877604,49.8315642 C4.70768229,49.3622933 3.95716146,48.3672413 3.94049479,46.7919808 C3.93776042,46.5406788 3.94010417,46.2893767 3.94010417,46.0099496 C3.67070313,46.0099496 3.47786458,46.0034392 3.28554688,46.0109913 C2.60625,46.0378142 1.9671875,45.9231006 1.37630208,45.5579965 C0.623567708,45.0930225 0.243619792,44.3831267 0,43.5729704 L0,2.43781417 C0.0475260417,2.30109542 0.0959635417,2.16450688 0.142317708,2.0272673 C0.55234375,0.816460007 1.62382813,0.00643396532 2.90325521,0.00565271532 C12.8121094,-0.00124832634 22.7210938,-0.00268061801 32.6299479,0.00617354866 C34.2640625,0.00760584032 35.5160156,1.2882048 35.5454427,2.92401209 C35.5511719,3.24159022 35.5463542,3.55929855 35.5463542,3.9272673 C36.0701823,3.9272673 36.5315104,3.87362147 36.9760417,3.93703292 C38.5091146,4.15552251 39.4826823,5.36698084 39.4847656,7.03286626 C39.4903646,11.3854704 39.4867188,15.7379444 39.4867188,20.0905485 L39.4867188,20.5768767 C39.6453125,20.4337777 39.7013021,20.2857308 39.7566406,20.1374235 C40.5346354,18.0565642 41.3052083,15.9729704 42.0925781,13.8956267 C42.7222656,12.2342985 44.2854167,11.5211475 45.963151,12.1146371 C46.4376302,12.2824756 46.8960938,12.5022673 47.3789062,12.637684 C48.6938802,13.0061735 49.6261719,13.7576058 50,15.1098194 L50,16.182085 C49.8854167,16.4803923 49.7682292,16.7777881 49.6565104,17.0771371 C47.1003906,23.9254444 44.5207031,30.7650277 42.0108073,37.6300017 C41.5385417,38.922059 40.9304687,40.0396371 39.8165365,40.8548715 C39.555599,41.0460173 39.4773438,41.2853402 39.4799479,41.6063038 C39.4941406,43.3594288 39.4960938,45.112684 39.4833333,46.865809 C39.4722656,48.3686735 38.7083333,49.3711475 37.272526,49.8182829 C37.2144531,49.8363819 37.1635417,49.8781788 37.109375,49.9089079" id="Fill-27" fill="url(#linearGradient-1)"></path>
            <path d="M15.6814987,17.9511475 C15.675,21.262736 18.375651,23.9771892 21.6863281,23.9865893 C25.039974,23.9960694 27.7466146,21.3106527 27.7522223,17.9682048 C27.7578125,14.6529704 25.0709635,11.9469808 21.7518229,11.9251058 C18.4263021,11.9031006 15.688151,14.6213298 15.6814987,17.9511475 M29.7053551,17.9719808 C29.6964844,22.3960694 26.1166667,25.9499756 21.6832031,25.9362136 C17.2855469,25.9223715 13.7205729,22.342684 13.7283726,17.9486735 C13.7363281,13.5363038 17.3477865,9.94893397 21.7552083,9.9753499 C26.1606771,10.002059 29.7141927,13.5762777 29.7053551,17.9719808" id="Fill-29" fill="url(#linearGradient-2)"></path>
            <path d="M21.6333854,29.2439209 C25.1971875,29.2439209 28.7608594,29.2437907 32.3245313,29.2443116 C32.4871615,29.2443116 32.6520052,29.2348064 32.8120313,29.2569418 C33.3052604,29.3250407 33.6733594,29.7538168 33.6646616,30.2325928 C33.6560417,30.6957439 33.3036979,31.1038168 32.8316927,31.1772543 C32.6723177,31.2019939 32.5072135,31.1928793 32.3445833,31.1928793 C25.2008333,31.1935303 18.0570833,31.1935303 10.9133333,31.1934001 C10.799401,31.1934001 10.6850781,31.1984782 10.5716667,31.1894939 C10.0092969,31.1454834 9.62713542,30.7417074 9.63419791,30.203947 C9.64132813,29.6867595 10.0138542,29.2954834 10.551875,29.2491293 C10.6973177,29.2366293 10.8445833,29.2440512 10.9909375,29.2440512 C14.5384635,29.2439209 18.0858594,29.2439209 21.6333854,29.2439209" id="Fill-31" fill="url(#linearGradient-3)"></path>
            <path d="M20.3334635,33.7278402 C23.45625,33.7278402 26.5791667,33.72771 29.7020833,33.7282308 C29.8645833,33.7282308 30.0292969,33.7188558 30.1893229,33.7409913 C30.6811198,33.80896 31.049349,34.2376058 31.0414062,34.7157308 C31.0335938,35.1769288 30.6804688,35.5860433 30.2106771,35.6613038 C30.0674479,35.6842204 29.91875,35.6767985 29.772526,35.6767985 C23.4779948,35.6774496 17.1834635,35.6774496 10.8888021,35.6767985 C10.7427083,35.6767985 10.5938802,35.684611 10.4507813,35.6613038 C9.95325521,35.580184 9.61679688,35.1624756 9.634375,34.6642985 C9.65104167,34.1882569 9.99414063,33.8049235 10.4776042,33.7399496 C10.6376302,33.7184652 10.8022135,33.7282308 10.9648438,33.7282308 C14.0877604,33.72771 17.2105469,33.7278402 20.3334635,33.7278402" id="Fill-33" fill="url(#linearGradient-4)"></path>
            <path d="M20.3235547,40.1613298 C17.2007682,40.1613298 14.0778516,40.1613298 10.9549349,40.1610694 C10.8085807,40.1610694 10.6610547,40.1688819 10.516263,40.1528663 C9.98657552,40.0937517 9.62446615,39.6838558 9.63416406,39.1654965 C9.64386719,38.6681006 9.99946615,38.2796892 10.5088411,38.2204444 C10.6373568,38.2054704 10.768737,38.212111 10.8988151,38.212111 C17.1932161,38.2117204 23.4878776,38.2117204 29.7824089,38.2123715 C29.9286328,38.2123715 30.0774609,38.2049496 30.2204297,38.2287777 C30.688138,38.3067725 31.0393099,38.7222673 31.0414004,39.1824235 C31.0432161,39.6419288 30.6950391,40.0636735 30.2275911,40.1421892 C30.0529818,40.1713558 29.8709505,40.1606788 29.6921745,40.1606788 C26.569388,40.1615902 23.4464714,40.1613298 20.3235547,40.1613298" id="Fill-35" fill="url(#linearGradient-5)"></path>
            <path d="M20.3291406,42.6956918 C23.4520573,42.6956918 26.5748437,42.6955616 29.6977604,42.6960824 C29.8602604,42.6960824 30.024974,42.6867074 30.185,42.708322 C30.6775781,42.7744678 31.0469792,43.2006397 31.041443,43.6792855 C31.0359115,44.1403532 30.6840885,44.5515512 30.2149479,44.6286345 C30.071849,44.652072 29.9230208,44.6446501 29.7767969,44.6446501 C23.4822656,44.6453012 17.1877344,44.6453012 10.8932031,44.6446501 C10.7469792,44.6446501 10.5982812,44.652723 10.4550521,44.6299366 C9.95635417,44.5503793 9.61885417,44.1348845 9.63434896,43.636447 C9.64919271,43.1601449 9.99085937,42.7747282 10.4732812,42.708322 C10.6333073,42.6861866 10.7980208,42.6960824 10.9605208,42.6960824 C14.0834375,42.6955616 17.2063542,42.6956918 20.3291406,42.6956918" id="Fill-37" fill="url(#linearGradient-6)"></path>
            <path d="M5.88358073,26.914598 C5.8785026,27.452098 5.45597656,27.8761866 4.92420573,27.8770991 C4.4003776,27.8778793 3.9596224,27.4438949 3.95089844,26.9186345 C3.94191406,26.3751449 4.40063802,25.9203272 4.94464844,25.9332178 C5.4785026,25.9459782 5.88865885,26.3746241 5.88358073,26.914598" id="Fill-39" fill="url(#linearGradient-7)"></path>
            <path d="M20.9251302,19.2002621 C21.675,18.7690121 22.3397135,18.3867204 23.0800781,17.9609392 C22.328776,17.5285173 21.6529948,17.1393246 20.9251302,16.7203142 L20.9251302,19.2002621 Z M20.9733073,14.8040381 C21.0356771,14.8071631 21.1414063,14.7888038 21.2289063,14.8205746 C22.485026,15.2765642 23.7113281,15.8338558 24.60625,16.8378923 C25.330599,17.6506527 25.0639323,18.9666683 24.1424479,19.5726579 C23.3852865,20.070835 22.5990885,20.5378923 21.7841146,20.9332048 C20.510026,21.5509131 19.0486979,20.6559913 18.9701823,19.2251319 C18.9240885,18.3847673 18.9309896,17.5382829 18.9699219,16.6971371 C19.0203125,15.6130225 19.8811198,14.8128923 20.9733073,14.8040381 L20.9733073,14.8040381 Z" id="Fill-41" fill="url(#linearGradient-8)"></path>
        </g>
    </g>
</svg>