<svg xmlns="http://www.w3.org/2000/svg" width="60" height="38" viewBox="0 0 60 38">
    <defs>
        <linearGradient id="85jrb9x58a" x1="408.124%" x2="-364.133%" y1="182.533%" y2="-91.545%">
            <stop offset="0%" stop-color="#6462AA"/>
            <stop offset="33.452%" stop-color="#20B69E"/>
            <stop offset="51.202%" stop-color="#6462AA"/>
            <stop offset="100%" stop-color="#4CA7DA"/>
        </linearGradient>
    </defs>
    <g fill="none" fill-rule="evenodd">
        <g fill="url(#85jrb9x58a)" fill-rule="nonzero" transform="translate(-237.000000, -174.000000)">
            <g>
                <g>
                    <path d="M59.377 3.366c-.386-.228-.864-.237-1.258-.023l-13.767 7.504V6.345C44.35 2.842 41.505.004 37.997 0H6.356C2.847.004.004 2.842 0 6.345v25.052c.004 3.503 2.847 6.341 6.356 6.345h31.64c3.51-.004 6.353-2.842 6.356-6.345v-4.42L58.12 34.48c.393.215.871.206 1.257-.022.387-.229.623-.644.623-1.092V4.457c0-.448-.237-.862-.623-1.09zM41.81 31.398c-.002 2.101-1.708 3.804-3.813 3.806H6.356c-2.105-.002-3.811-1.705-3.814-3.806V6.345c.003-2.101 1.709-3.805 3.814-3.807h31.64c2.105.002 3.812 1.706 3.814 3.807v25.053zm15.649-.17l-13.106-7.143V13.74l13.106-7.143v24.632z" transform="translate(217.000000, 152.000000) translate(20.000000, 22.000000)"/>
                </g>
            </g>
        </g>
    </g>
</svg>
