<svg xmlns="http://www.w3.org/2000/svg" width="22" height="28" viewBox="0 0 22 28">
    <defs>
        <linearGradient id="uo4f45qkqa" x1="279.012%" x2="-214.829%" y1="384.948%" y2="-307.726%">
            <stop offset="0%" stop-color="#6462AA"/>
            <stop offset="33.452%" stop-color="#20B69E"/>
            <stop offset="51.202%" stop-color="#6462AA"/>
            <stop offset="100%" stop-color="#4CA7DA"/>
        </linearGradient>
    </defs>
    <g fill="none" fill-rule="evenodd">
        <g fill="url(#uo4f45qkqa)" fill-rule="nonzero" transform="translate(-44.000000, -154.000000)">
            <g>
                <g>
                    <g>
                        <g>
                            <path d="M8.883 4.576c2.64-.765 5.488-.045 7.448 1.883 1.481 1.455 2.303 3.453 2.274 5.529-.03 2.075-.906 4.05-2.427 5.462-1.002.934-1.586 2.234-1.586 3.568v3.636c.003.382-.147.75-.418 1.022-.27.27-.637.423-1.02.42h-1.817v1.129c0 .186-.151.337-.337.337-.186 0-.337-.151-.337-.337v-1.128H8.846c-.383.002-.75-.15-1.02-.421s-.42-.64-.418-1.022v-3.63c0-1.344-.56-2.625-1.545-3.537-2.028-1.857-2.895-4.663-2.269-7.34.627-2.676 2.649-4.807 5.29-5.571zm5.035 16.807H8.082v.841h.931c.186 0 .337.151.337.337 0 .186-.15.337-.337.337h-.931v.954h3.84c.186 0 .337.15.337.337 0 .186-.15.337-.337.337h-3.84v.128c-.004.204.076.4.22.546.144.145.34.225.544.224h4.308c.204.001.4-.08.544-.224.144-.145.224-.342.22-.546v-.128h-.837c-.186 0-.337-.151-.337-.337 0-.186.15-.337.337-.337h.837v-.954h-3.747c-.186 0-.336-.15-.336-.337 0-.186.15-.337.336-.337h3.747v-.841zM11.065 4.946H11c-3.832.002-6.937 3.11-6.936 6.941.002 1.944.816 3.798 2.246 5.115 1.045.96 1.67 2.29 1.744 3.707h5.893c.096-1.428.733-2.765 1.78-3.74 2.077-1.937 2.766-4.943 1.74-7.59-1.027-2.648-3.563-4.403-6.402-4.433zM7.08 9.027c1.004-1.398 2.678-2.154 4.391-1.982 2.552.252 4.458 2.46 4.335 5.021-.124 2.561-2.234 4.576-4.798 4.58-.16 0-.32-.007-.481-.023-1.714-.166-3.208-1.234-3.92-2.802-.71-1.567-.53-3.396.473-4.794zm3.911-1.332c-2.231.004-4.057 1.777-4.128 4.008-.07 2.23 1.64 4.114 3.868 4.26 2.226.144 4.167-1.502 4.387-3.723.107-1.092-.223-2.183-.92-3.031-.696-.849-1.7-1.386-2.793-1.494-.138-.013-.276-.02-.414-.02zm-.572 1.672l1.992.008c.185.001.334.152.333.337 0 .186-.152.335-.337.334h-.003l-.722-.007c.106.16.181.338.22.526l.496.003c.089 0 .174.035.236.098.063.062.098.148.097.237-.001.087-.038.17-.101.23-.063.061-.148.094-.236.091h-.003l-.496.006c-.066.286-.211.548-.42.755-.278.274-.651.43-1.042.437l1.367 1.32c.134.13.137.342.008.476-.13.133-.342.137-.476.008l-1.975-1.909c-.099-.097-.13-.244-.077-.372.052-.129.176-.213.314-.214l.799-.001h.01c.34.003.65-.195.788-.506l-1.59-.007c-.09-.001-.175-.038-.237-.101-.062-.064-.097-.15-.095-.24.003-.185.156-.334.342-.332l1.593.017c-.123-.317-.426-.527-.766-.531v.001l-.812-.005c-.187.002-.342-.146-.346-.334.001-.087.038-.17.101-.23s.148-.093.235-.09h.004l.799-.005zm11.243 1.352c.186 0 .337.151.337.337 0 .186-.15.337-.337.337h-2.238c-.186 0-.336-.15-.336-.337 0-.186.15-.337.336-.337zm-19.088 0c.186 0 .336.151.336.337 0 .186-.15.337-.336.337H.337c-.186 0-.337-.15-.337-.337 0-.186.15-.337.337-.337zM18.63 2.945c.131-.132.344-.132.476 0 .131.131.131.344 0 .476L17.36 5.167c-.063.063-.15.099-.238.099-.137 0-.26-.082-.312-.208-.052-.126-.023-.271.073-.367zm-15.736 0c.132-.132.345-.132.476 0L5.117 4.69c.131.131.131.344 0 .476-.132.131-.345.131-.477 0L2.894 3.421c-.131-.132-.131-.345 0-.476zM11.281.05c.186 0 .336.15.336.336v2.238c0 .186-.15.337-.336.337-.186 0-.337-.151-.337-.337V.387c0-.186.15-.336.337-.336z" transform="translate(20.000000, 132.000000) translate(14.000000, 14.000000) translate(0.000000, 1.000000) translate(10.000000, 7.000000)"/>
                        </g>
                    </g>
                </g>
            </g>
        </g>
    </g>
</svg>
