<svg xmlns="http://www.w3.org/2000/svg" width="50" height="63" viewBox="0 0 50 63">
    <defs>
        <linearGradient id="yyojg640pa" x1="279.012%" x2="-214.829%" y1="384.948%" y2="-307.726%">
            <stop offset="0%" stop-color="#6462AA"/>
            <stop offset="33.452%" stop-color="#20B69E"/>
            <stop offset="51.202%" stop-color="#6462AA"/>
            <stop offset="100%" stop-color="#4CA7DA"/>
        </linearGradient>
    </defs>
    <g fill="none" fill-rule="evenodd">
        <g fill="url(#yyojg640pa)" fill-rule="nonzero" transform="translate(-39.000000, -669.000000)">
            <g>
                <g>
                    <path d="M20.19 10.4c6-1.738 12.472-.102 16.926 4.28 3.366 3.307 5.233 7.847 5.167 12.564-.066 4.718-2.059 9.204-5.516 12.415-2.277 2.122-3.604 5.077-3.604 8.109v8.263c.007.87-.334 1.707-.948 2.323-.615.616-1.45.961-2.32.957h-4.13v2.564c0 .423-.342.765-.765.765s-.765-.342-.765-.765v-2.564h-4.13c-.87.004-1.705-.34-2.32-.957-.614-.616-.955-1.453-.948-2.323V47.78c0-3.052-1.272-5.965-3.513-8.036-4.607-4.22-6.578-10.598-5.155-16.682C9.592 16.98 14.19 12.137 20.19 10.4zm11.443 38.197H18.367v1.913h2.118c.422 0 .765.343.765.766 0 .422-.343.765-.765.765h-2.118v2.168h8.73c.422 0 .765.343.765.765 0 .423-.343.766-.766.766h-8.729v.291c-.007.464.173.912.5 1.241.327.33.774.513 1.238.509h9.79c.464.004.91-.18 1.238-.509.327-.33.507-.777.5-1.24v-.292h-1.904c-.423 0-.766-.343-.766-.766 0-.422.343-.765.766-.765h1.904v-2.168h-8.516c-.423 0-.766-.343-.766-.765 0-.423.343-.766.766-.766h8.516v-1.913zM25.147 11.24l-.148.001c-8.708.004-15.765 7.066-15.762 15.774.005 4.418 1.855 8.632 5.103 11.626 2.375 2.18 3.798 5.205 3.964 8.424h13.394c.219-3.245 1.666-6.285 4.046-8.501 4.72-4.401 6.286-11.233 3.953-17.25-2.334-6.017-8.096-10.007-14.55-10.074zm-9.053 9.275c2.281-3.178 6.087-4.896 9.98-4.505 5.799.572 10.131 5.59 9.85 11.412-.28 5.82-5.076 10.399-10.904 10.41-.363 0-.728-.018-1.093-.054-3.894-.377-7.29-2.805-8.907-6.367-1.617-3.563-1.207-7.718 1.074-10.896zm8.889-3.028c-5.072.01-9.222 4.04-9.382 9.109-.16 5.069 3.728 9.352 8.79 9.681 5.06.33 9.47-3.413 9.97-8.46.244-2.483-.507-4.96-2.09-6.89-1.582-1.928-3.865-3.149-6.348-3.393-.315-.031-.628-.047-.94-.047zM23.68 21.29l4.528.017c.42.002.76.345.758.766-.002.421-.346.76-.766.759h-.009l-1.64-.017c.241.364.412.77.502 1.197l1.126.006c.201-.001.395.079.537.222.142.143.221.337.22.538-.004.2-.086.389-.23.526-.144.138-.337.212-.536.206h-.008l-1.126.013c-.15.65-.481 1.245-.955 1.716-.633.622-1.48.978-2.369.994l3.108 3c.303.293.311.777.018 1.08-.294.304-.778.312-1.081.018l-4.49-4.337c-.225-.221-.294-.555-.176-.847.119-.292.4-.484.716-.486l1.814-.003h.022c.773.008 1.477-.443 1.792-1.149l-3.614-.016c-.202-.002-.396-.085-.538-.23-.141-.145-.22-.34-.217-.543.009-.423.355-.76.777-.757l3.623.039c-.28-.72-.97-1.198-1.743-1.207v.003l-1.845-.011c-.425.005-.776-.333-.786-.759.003-.198.086-.387.23-.524.144-.137.337-.21.535-.203h.008l1.815-.011zm25.554 3.072c.422 0 .765.343.765.766 0 .422-.343.765-.765.765h-5.086c-.423 0-.766-.343-.766-.765 0-.423.343-.766.766-.766zm-43.384 0c.423 0 .766.343.766.766 0 .422-.343.765-.766.765H.765c-.422 0-.765-.343-.765-.765 0-.423.343-.766.765-.766zm36.49-17.67c.298-.299.783-.299 1.082 0 .298.3.298.784 0 1.082l-3.97 3.97c-.143.143-.337.223-.54.223-.31 0-.589-.186-.708-.472-.118-.286-.052-.615.166-.834zm-35.764 0c.3-.299.784-.299 1.083 0l3.969 3.969c.298.299.298.783 0 1.082-.3.299-.784.299-1.083 0L6.578 7.774c-.3-.298-.3-.783 0-1.082zM25.637.115c.423 0 .766.342.766.765v5.086c0 .422-.343.765-.765.765-.423 0-.766-.343-.766-.765V.88c0-.423.343-.765.766-.765z" transform="translate(17.000000, 660.000000) translate(22.000000, 9.000000)"/>
                </g>
            </g>
        </g>
    </g>
</svg>
